SplineFontDB: 3.0
FontName: Almendra-Regular
FullName: Almendra
FamilyName: Almendra
Weight: Book
Copyright: Copyright (c) 2011-2012, Ana Sanfelippo (anasanfe@gmail.com), with Reserved Font Name 'Almendra'
Version: 1.003
ItalicAngle: 0
UnderlinePosition: -50
UnderlineWidth: 50
Ascent: 800
Descent: 200
sfntRevision: 0x000100c5
LayerCount: 2
Layer: 0 1 "Back"  1
Layer: 1 1 "Fore"  0
XUID: [1021 110 788302449 6543176]
FSType: 0
OS2Version: 3
OS2_WeightWidthSlopeOnly: 0
OS2_UseTypoMetrics: 1
CreationTime: 1273876560
ModificationTime: 1352734882
PfmFamily: 17
TTFWeight: 400
TTFWidth: 5
LineGap: 0
VLineGap: 0
Panose: 2 0 0 0 0 0 0 0 0 0
OS2TypoAscent: 951
OS2TypoAOffset: 0
OS2TypoDescent: -345
OS2TypoDOffset: 0
OS2TypoLinegap: 0
OS2WinAscent: 951
OS2WinAOffset: 0
OS2WinDescent: 345
OS2WinDOffset: 0
HheadAscent: 951
HheadAOffset: 0
HheadDescent: -345
HheadDOffset: 0
OS2SubXSize: 650
OS2SubYSize: 600
OS2SubXOff: 0
OS2SubYOff: 75
OS2SupXSize: 650
OS2SupYSize: 600
OS2SupXOff: 0
OS2SupYOff: 350
OS2StrikeYSize: 50
OS2StrikeYPos: 288
OS2Vendor: 'pyrs'
OS2CodePages: 20000093.00000000
OS2UnicodeRanges: 8000006f.00000002.00000000.00000000
Lookup: 4 0 1 "'liga' Standard Ligatures in Latin lookup 0"  {"'liga' Standard Ligatures in Latin lookup 0 subtable"  } ['liga' ('latn' <'dflt' > ) ]
Lookup: 258 0 0 "'kern' Horizontal Kerning in Latin lookup 0"  {"'kern' Horizontal Kerning in Latin lookup 0 subtable"  } ['kern' ('latn' <'dflt' > ) ]
DEI: 91125
TtTable: prep
PUSHW_1
 511
SCANCTRL
PUSHB_1
 4
SCANTYPE
EndTTInstrs
ShortTable: maxp 16
  1
  0
  427
  282
  6
  0
  0
  2
  0
  1
  1
  0
  64
  0
  0
  0
EndShort
LangName: 1033 "" "" "" "AnaSanfelippo: Almendra: 2011" "" "Version 1.003" "" "Almendra is a trademark of Ana Sanfelippo." "Ana Sanfelippo" "Ana Sanfelippo" "" "" "www.anasanfelippo.com.ar" "This Font Software is licensed under the SIL Open Font License, Version 1.1. This license is available with a FAQ at: http://scripts.sil.org/OFL" "http://scripts.sil.org/OFL" 

StartChar: exclam
Encoding: 33 33 4
Width: 226
GlyphClass: 2
Flags: W
LayerCount: 2
Fore
SplineSet
160 46 m 1,0,1
 153 33 153 33 135.5 13 c 128,-1,2
 118 -7 118 -7 106 -15 c 1,3,4
 94 -7 94 -7 76.5 13 c 128,-1,5
 59 33 59 33 52 46 c 1,6,7
 58 58 58 58 75 73.5 c 128,-1,8
 92 89 92 89 106 96 c 1,9,10
 119 88 119 88 136 72.5 c 128,-1,11
 153 57 153 57 160 46 c 1,0,1
72 679 m 1,12,13
 84 685 84 685 108 690.5 c 128,-1,14
 132 696 132 696 139.5 696 c 128,-1,15
 147 696 147 696 149 696 c 1,16,17
 160 686 160 686 181 656 c 1,18,19
 134 489 134 489 119 182 c 1,20,-1
 93 180 l 1,21,-1
 72 679 l 1,12,13
EndSplineSet
EndChar

StartChar: quotedbl
Encoding: 34 34 5
Width: 315
GlyphClass: 2
Flags: W
LayerCount: 2
Fore
SplineSet
63 649 m 1,0,1
 75 655 75 655 99 660.5 c 128,-1,2
 123 666 123 666 130.5 666 c 128,-1,3
 138 666 138 666 140 666 c 1,4,-1
 152 653 l 1,5,6
 121 573 121 573 106 434 c 1,7,-1
 76 432 l 1,8,-1
 63 649 l 1,0,1
198 649 m 1,9,10
 210 655 210 655 234 660.5 c 128,-1,11
 258 666 258 666 265.5 666 c 128,-1,12
 273 666 273 666 275 666 c 1,13,-1
 287 653 l 1,14,15
 256 573 256 573 241 434 c 1,16,-1
 211 432 l 1,17,-1
 198 649 l 1,9,10
EndSplineSet
EndChar

StartChar: numbersign
Encoding: 35 35 6
Width: 550
GlyphClass: 2
Flags: W
LayerCount: 2
Fore
SplineSet
380 371 m 1,0,1
 447 370 447 370 471 370 c 128,-1,2
 495 370 495 370 503 370 c 1,3,-1
 510 364 l 1,4,-1
 500 316 l 1,5,-1
 373 319 l 1,6,-1
 358 188 l 1,7,8
 422 187 422 187 445.5 187 c 128,-1,9
 469 187 469 187 476 187 c 1,10,-1
 483 182 l 1,11,-1
 473 133 l 1,12,-1
 352 136 l 1,13,-1
 325 -92 l 1,14,-1
 320 -92 l 1,15,16
 296 -87 296 -87 279 -71 c 1,17,18
 297 28 297 28 310 137 c 1,19,-1
 202 140 l 1,20,-1
 175 -92 l 1,21,-1
 170 -92 l 1,22,23
 146 -87 146 -87 129 -71 c 1,24,25
 147 28 147 28 160 137 c 1,26,-1
 160 141 l 1,27,-1
 48 144 l 1,28,-1
 40 151 l 1,29,-1
 50 203 l 1,30,-1
 96 199 l 2,31,32
 114 197 114 197 167 195 c 1,33,-1
 183 324 l 1,34,-1
 75 327 l 1,35,-1
 67 333 l 1,36,-1
 77 386 l 1,37,-1
 122 382 l 2,38,39
 138 380 138 380 189 378 c 1,40,-1
 215 587 l 1,41,42
 234 587 234 587 259 592 c 1,43,-1
 263 589 l 1,44,45
 242 477 242 477 230 376 c 1,46,47
 263 374 263 374 339 372 c 1,48,-1
 365 587 l 1,49,50
 384 587 384 587 409 592 c 1,51,-1
 413 589 l 1,52,53
 392 476 392 476 380 372 c 1,54,-1
 380 371 l 1,0,1
208 193 m 1,55,56
 240 191 240 191 316 189 c 1,57,-1
 332 320 l 1,58,-1
 224 323 l 1,59,-1
 208 193 l 1,55,56
EndSplineSet
EndChar

StartChar: dollar
Encoding: 36 36 7
Width: 450
GlyphClass: 2
Flags: W
LayerCount: 2
Fore
SplineSet
93 342 m 0,0,1
 93 385 93 385 134.5 433 c 128,-1,2
 176 481 176 481 236 511 c 1,3,-1
 239 588 l 1,4,5
 255 590 255 590 266 594 c 1,6,-1
 270 591 l 1,7,8
 264 556 264 556 263 523 c 1,9,10
 339 523 339 523 402 507 c 1,11,-1
 402 493 l 1,12,13
 365 447 365 447 359 380 c 1,14,-1
 337 380 l 1,15,16
 337 420 337 420 334 443 c 1,17,18
 296 457 296 457 260 458 c 1,19,-1
 254 311 l 1,20,21
 356 252 356 252 378 220 c 0,22,23
 388 205 388 205 388 189 c 0,24,25
 388 137 388 137 344.5 84 c 128,-1,26
 301 31 301 31 234 -2 c 1,27,-1
 233 -92 l 1,28,-1
 228 -92 l 1,29,30
 211 -87 211 -87 201 -77 c 1,31,-1
 206 -15 l 1,32,33
 127 -15 127 -15 55 11 c 1,34,-1
 55 24 l 1,35,36
 92 70 92 70 98 136 c 1,37,-1
 120 136 l 1,38,39
 120 97 120 97 122 75 c 1,40,41
 163 53 163 53 209 50 c 1,42,-1
 218 224 l 1,43,44
 179 247 179 247 156.5 262 c 128,-1,45
 134 277 134 277 113.5 299.5 c 128,-1,46
 93 322 93 322 93 342 c 0,0,1
328 132 m 0,47,48
 328 159 328 159 243 209 c 1,49,-1
 236 50 l 1,50,51
 275 54 275 54 301.5 73.5 c 128,-1,52
 328 93 328 93 328 132 c 0,47,48
153 399 m 0,53,54
 153 373 153 373 229 326 c 1,55,-1
 234 457 l 1,56,57
 153 448 153 448 153 399 c 0,53,54
EndSplineSet
EndChar

StartChar: percent
Encoding: 37 37 8
Width: 744
GlyphClass: 2
Flags: W
LayerCount: 2
Fore
SplineSet
178 570 m 0,0,1
 200 570 200 570 292 555 c 128,-1,2
 384 540 384 540 450 540 c 128,-1,3
 516 540 516 540 539 578 c 2,4,-1
 545 588 l 1,5,6
 583 590 583 590 610 598 c 1,7,-1
 613 595 l 1,8,9
 545 498 545 498 468 378 c 2,10,-1
 163 -100 l 1,11,-1
 158 -100 l 1,12,13
 132 -88 132 -88 119 -68 c 1,14,15
 220 69 220 69 241 102 c 2,16,-1
 416 376 l 1,17,18
 464 448 464 448 510 527 c 1,19,-1
 506 528 l 1,20,21
 482 503 482 503 430 503 c 128,-1,22
 378 503 378 503 260 539 c 1,23,-1
 257 536 l 1,24,25
 304 492 304 492 319 408 c 1,26,27
 305 320 305 320 262 273.5 c 128,-1,28
 219 227 219 227 174.5 227 c 128,-1,29
 130 227 130 227 89 269.5 c 128,-1,30
 48 312 48 312 34 389 c 1,31,32
 48 477 48 477 92 523.5 c 128,-1,33
 136 570 136 570 178 570 c 0,0,1
483 281.5 m 128,-1,35
 527 328 527 328 571.5 328 c 128,-1,36
 616 328 616 328 656 285.5 c 128,-1,37
 696 243 696 243 710 166 c 1,38,39
 696 78 696 78 653 31.5 c 128,-1,40
 610 -15 610 -15 565.5 -15 c 128,-1,41
 521 -15 521 -15 480 27.5 c 128,-1,42
 439 70 439 70 425 147 c 1,43,34
 439 235 439 235 483 281.5 c 128,-1,35
249 399 m 128,-1,45
 249 445 249 445 230 486.5 c 128,-1,46
 211 528 211 528 178 540 c 1,47,48
 146 528 146 528 126 486 c 128,-1,49
 106 444 106 444 106 399 c 128,-1,50
 106 354 106 354 126 312 c 128,-1,51
 146 270 146 270 178 258 c 1,52,53
 211 270 211 270 230 311.5 c 128,-1,44
 249 353 249 353 249 399 c 128,-1,45
640 157 m 128,-1,55
 640 203 640 203 621 244.5 c 128,-1,56
 602 286 602 286 569 298 c 1,57,58
 537 286 537 286 517 244 c 128,-1,59
 497 202 497 202 497 157 c 128,-1,60
 497 112 497 112 517 70 c 128,-1,61
 537 28 537 28 569 16 c 1,62,63
 602 28 602 28 621 69.5 c 128,-1,54
 640 111 640 111 640 157 c 128,-1,55
EndSplineSet
EndChar

StartChar: ampersand
Encoding: 38 38 9
Width: 604
GlyphClass: 2
Flags: W
LayerCount: 2
Fore
SplineSet
425 407 m 1,0,1
 495 382 495 382 495 304.5 c 128,-1,2
 495 227 495 227 432 141 c 1,3,4
 492 71 492 71 530 37 c 1,5,6
 578 35 578 35 628 24 c 1,7,-1
 626 -1 l 1,8,9
 611 0 611 0 538 0 c 128,-1,10
 465 0 465 0 399 -15 c 1,11,-1
 395 -1 l 1,12,13
 401 9 401 9 401 29 c 128,-1,14
 401 49 401 49 377 77 c 1,15,16
 312 15 312 15 247 -15 c 1,17,18
 158 -15 158 -15 96 44 c 128,-1,19
 34 103 34 103 34 191 c 0,20,21
 34 315 34 315 166 379 c 1,22,23
 160 384 160 384 153.5 400 c 128,-1,24
 147 416 147 416 140 429 c 128,-1,25
 133 442 133 442 131 447.5 c 128,-1,26
 129 453 129 453 123.5 465 c 128,-1,27
 118 477 118 477 116.5 484 c 128,-1,28
 115 491 115 491 112 502 c 0,29,30
 107 519 107 519 107 538 c 1,31,32
 127 574 127 574 181.5 614 c 128,-1,33
 236 654 236 654 278 666 c 1,34,35
 414 666 414 666 414 568 c 0,36,37
 414 529 414 529 392.5 494 c 128,-1,38
 371 459 371 459 336 443 c 1,39,-1
 337 438 l 1,40,-1
 568 456 l 1,41,-1
 572 452 l 1,42,43
 565 434 565 434 559 405 c 1,44,45
 483 410 483 410 425 412 c 1,46,-1
 425 407 l 1,0,1
414 163 m 1,47,48
 443 209 443 209 443 276.5 c 128,-1,49
 443 344 443 344 406.5 379.5 c 128,-1,50
 370 415 370 415 307 417 c 1,51,-1
 300 436 l 1,52,53
 348 476 348 476 348 526 c 0,54,55
 348 561 348 561 321.5 579 c 128,-1,56
 295 597 295 597 251.5 597 c 128,-1,57
 208 597 208 597 186 578 c 1,58,59
 182 567 182 567 182 551 c 0,60,61
 182 492 182 492 264.5 366 c 128,-1,62
 347 240 347 240 414 163 c 1,47,48
156 111 m 128,-1,64
 198 63 198 63 263 63 c 128,-1,65
 328 63 328 63 362 96 c 1,66,67
 266 206 266 206 176 361 c 1,68,69
 114 311 114 311 114 235 c 128,-1,63
 114 159 114 159 156 111 c 128,-1,64
EndSplineSet
EndChar

StartChar: quotesingle
Encoding: 39 39 10
Width: 180
GlyphClass: 2
Flags: W
LayerCount: 2
Fore
SplineSet
63 649 m 1,0,1
 75 655 75 655 99 660.5 c 128,-1,2
 123 666 123 666 130.5 666 c 128,-1,3
 138 666 138 666 140 666 c 1,4,-1
 152 653 l 1,5,6
 121 573 121 573 106 434 c 1,7,-1
 76 432 l 1,8,-1
 63 649 l 1,0,1
EndSplineSet
EndChar

StartChar: parenleft
Encoding: 40 40 11
Width: 297
GlyphClass: 2
Flags: W
LayerCount: 2
Fore
SplineSet
102 -6.5 m 128,-1,1
 48 122 48 122 48 259.5 c 128,-1,2
 48 397 48 397 101 513.5 c 128,-1,3
 154 630 154 630 250 711 c 1,4,-1
 260 701 l 1,5,6
 120 510 120 510 120 262 c 0,7,8
 120 135 120 135 156 11.5 c 128,-1,9
 192 -112 192 -112 260 -205 c 1,10,-1
 250 -215 l 1,11,0
 156 -135 156 -135 102 -6.5 c 128,-1,1
EndSplineSet
EndChar

StartChar: parenright
Encoding: 41 41 12
Width: 297
GlyphClass: 2
Flags: W
LayerCount: 2
Fore
SplineSet
196 513.5 m 128,-1,1
 249 397 249 397 249 259.5 c 128,-1,2
 249 122 249 122 195 -6.5 c 128,-1,3
 141 -135 141 -135 47 -215 c 1,4,-1
 37 -205 l 1,5,6
 105 -112 105 -112 141 11.5 c 128,-1,7
 177 135 177 135 177 262 c 0,8,9
 177 510 177 510 37 701 c 1,10,-1
 47 711 l 1,11,0
 143 630 143 630 196 513.5 c 128,-1,1
EndSplineSet
EndChar

StartChar: asterisk
Encoding: 42 42 13
Width: 371
GlyphClass: 2
Flags: W
LayerCount: 2
Fore
SplineSet
203 672 m 1,0,-1
 229 678 l 1,1,-1
 231 676 l 1,2,3
 202 629 202 629 195 564 c 1,4,5
 247 603 247 603 273 651 c 1,6,-1
 276 651 l 1,7,8
 278 647 278 647 281 636.5 c 128,-1,9
 284 626 284 626 284 625 c 1,10,11
 311 630 311 630 318.5 630 c 128,-1,12
 326 630 326 630 327 629 c 1,13,14
 327 626 327 626 302 594 c 1,15,-1
 310 586 l 2,16,17
 318 578 318 578 320 574 c 1,18,-1
 319 572 l 1,19,20
 315 572 315 572 312 572 c 0,21,22
 263 572 263 572 203 547 c 1,23,24
 259 522 259 522 311 522 c 0,25,26
 315 522 315 522 319 522 c 1,27,-1
 320 520 l 1,28,29
 318 516 318 516 310 508 c 2,30,-1
 302 500 l 1,31,32
 303 498 303 498 310 490 c 0,33,34
 327 471 327 471 327 465 c 1,35,36
 326 464 326 464 318.5 464 c 128,-1,37
 311 464 311 464 284 469 c 1,38,39
 284 468 284 468 281 457.5 c 128,-1,40
 278 447 278 447 276 443 c 1,41,-1
 273 443 l 1,42,43
 246 492 246 492 195 530 c 1,44,45
 202 465 202 465 231 418 c 1,46,-1
 229 416 l 1,47,-1
 203 422 l 1,48,49
 190 386 190 386 185 383 c 1,50,51
 180 385 180 385 167 422 c 1,52,-1
 141 416 l 1,53,-1
 139 418 l 1,54,55
 167 465 167 465 175 530 c 1,56,57
 124 492 124 492 97 443 c 1,58,-1
 94 443 l 1,59,60
 92 447 92 447 89 457.5 c 128,-1,61
 86 468 86 468 86 469 c 1,62,63
 59 464 59 464 51.5 464 c 128,-1,64
 44 464 44 464 43 465 c 1,65,66
 43 468 43 468 68 500 c 1,67,-1
 60 508 l 2,68,69
 52 516 52 516 50 520 c 1,70,-1
 51 522 l 1,71,72
 55 522 55 522 59 522 c 0,73,74
 110 522 110 522 166 547 c 1,75,76
 106 572 106 572 58 572 c 0,77,78
 55 572 55 572 51 572 c 1,79,-1
 50 574 l 1,80,81
 52 578 52 578 60 586 c 2,82,-1
 68 594 l 1,83,84
 67 596 67 596 60 604 c 0,85,86
 43 623 43 623 43 629 c 1,87,88
 44 630 44 630 51.5 630 c 128,-1,89
 59 630 59 630 86 625 c 1,90,91
 86 626 86 626 89 636.5 c 128,-1,92
 92 647 92 647 94 651 c 1,93,-1
 97 651 l 1,94,95
 123 603 123 603 175 564 c 1,96,97
 166 629 166 629 139 676 c 1,98,-1
 141 678 l 1,99,-1
 167 672 l 1,100,101
 180 708 180 708 185 711 c 1,102,103
 190 709 190 709 203 672 c 1,0,-1
EndSplineSet
EndChar

StartChar: plus
Encoding: 43 43 14
Width: 550
GlyphClass: 2
Flags: W
LayerCount: 2
Fore
SplineSet
299 222 m 1,0,1
 299 95 299 95 308 0 c 1,2,-1
 262 -9 l 1,3,-1
 252 -2 l 1,4,-1
 252 222 l 1,5,-1
 66 222 l 1,6,-1
 58 229 l 1,7,-1
 67 280 l 1,8,9
 189 274 189 274 252 273 c 1,10,-1
 252 476 l 1,11,-1
 299 485 l 1,12,-1
 304 479 l 1,13,14
 299 347 299 347 299 273 c 2,15,-1
 299 272 l 1,16,17
 336 271 336 271 396 271 c 128,-1,18
 456 271 456 271 495 274 c 1,19,-1
 501 268 l 1,20,-1
 492 222 l 1,21,-1
 299 222 l 1,0,1
EndSplineSet
EndChar

StartChar: comma
Encoding: 44 44 15
Width: 213
GlyphClass: 2
Flags: W
LayerCount: 2
Fore
SplineSet
160 46 m 1,0,1
 160 -4 160 -4 126 -56 c 128,-1,2
 92 -108 92 -108 46 -139 c 1,3,-1
 36 -129 l 1,4,5
 57 -104 57 -104 74 -67.5 c 128,-1,6
 91 -31 91 -31 92 -4 c 1,7,8
 66 20 66 20 52 46 c 1,9,10
 58 58 58 58 75 73.5 c 128,-1,11
 92 89 92 89 106 96 c 1,12,13
 119 88 119 88 136 72.5 c 128,-1,14
 153 57 153 57 160 46 c 1,0,1
EndSplineSet
EndChar

StartChar: hyphen
Encoding: 45 45 16
Width: 286
GlyphClass: 2
Flags: W
LayerCount: 2
Fore
SplineSet
80 288 m 2,0,1
 168 288 168 288 252 298 c 1,2,-1
 260 293 l 1,3,-1
 254 251 l 1,4,-1
 37 236 l 1,5,-1
 28 242 l 1,6,-1
 34 288 l 1,7,-1
 80 288 l 2,0,1
EndSplineSet
EndChar

StartChar: period
Encoding: 46 46 17
Width: 212
GlyphClass: 2
Flags: W
LayerCount: 2
Fore
SplineSet
160 46 m 1,0,1
 153 33 153 33 135.5 13 c 128,-1,2
 118 -7 118 -7 106 -15 c 1,3,4
 94 -7 94 -7 76.5 13 c 128,-1,5
 59 33 59 33 52 46 c 1,6,7
 58 58 58 58 75 73.5 c 128,-1,8
 92 89 92 89 106 96 c 1,9,10
 119 88 119 88 136 72.5 c 128,-1,11
 153 57 153 57 160 46 c 1,0,1
EndSplineSet
EndChar

StartChar: slash
Encoding: 47 47 18
Width: 354
GlyphClass: 2
Flags: W
LayerCount: 2
Fore
SplineSet
61 -41 m 1,0,-1
 56 -41 l 1,1,2
 33 -31 33 -31 16 -11 c 1,3,4
 61 89 61 89 95 178 c 2,5,-1
 209 477 l 2,6,7
 249 581 249 581 287 698 c 1,8,9
 315 700 315 700 342 706 c 1,10,-1
 346 703 l 1,11,12
 320 644 320 644 263 491 c 1,13,-1
 61 -41 l 1,0,-1
EndSplineSet
EndChar

StartChar: zero
Encoding: 48 48 19
Width: 499
GlyphClass: 2
Flags: W
LayerCount: 2
Fore
SplineSet
126.5 417 m 128,-1,1
 190 485 190 485 255 485 c 128,-1,2
 320 485 320 485 377.5 423 c 128,-1,3
 435 361 435 361 457 248 c 1,4,5
 436 120 436 120 373.5 52.5 c 128,-1,6
 311 -15 311 -15 246 -15 c 128,-1,7
 181 -15 181 -15 122.5 47 c 128,-1,8
 64 109 64 109 42 221 c 1,9,0
 63 349 63 349 126.5 417 c 128,-1,1
141 235 m 128,-1,11
 141 164 141 164 171 99 c 128,-1,12
 201 34 201 34 251 17 c 1,13,14
 301 34 301 34 331 99 c 128,-1,15
 361 164 361 164 361 235 c 128,-1,16
 361 306 361 306 331 371 c 128,-1,17
 301 436 301 436 251 453 c 1,18,19
 201 436 201 436 171 371 c 128,-1,10
 141 306 141 306 141 235 c 128,-1,11
EndSplineSet
EndChar

StartChar: one
Encoding: 49 49 20
Width: 333
GlyphClass: 2
Flags: W
LayerCount: 2
Fore
SplineSet
266 -6 m 1,0,1
 215 0 215 0 156 0 c 128,-1,2
 97 0 97 0 44 -8 c 1,3,-1
 42 11 l 1,4,5
 82 24 82 24 120 33 c 1,6,7
 129 107 129 107 129 190 c 2,8,-1
 129 274 l 2,9,10
 129 375 129 375 122 433 c 1,11,12
 75 446 75 446 44 462 c 1,13,-1
 47 482 l 1,14,15
 104 470 104 470 165 470 c 128,-1,16
 226 470 226 470 267 475 c 1,17,-1
 271 455 l 1,18,19
 242 447 242 447 212 434 c 1,20,21
 203 367 203 367 203 274 c 2,22,-1
 203 190 l 2,23,24
 203 88 203 88 210 36 c 1,25,26
 242 27 242 27 269 13 c 1,27,-1
 266 -6 l 1,0,1
EndSplineSet
EndChar

StartChar: two
Encoding: 50 50 21
Width: 444
GlyphClass: 2
Flags: W
LayerCount: 2
Fore
SplineSet
165 85 m 1,0,1
 179 86 179 86 220 86 c 128,-1,2
 261 86 261 86 352 74 c 1,3,4
 362 96 362 96 375 132 c 1,5,-1
 396 125 l 1,6,7
 385 86 385 86 385 54 c 128,-1,8
 385 22 385 22 392 -7 c 1,9,-1
 380 -15 l 1,10,11
 221 21 221 21 84 21 c 1,12,13
 71 8 71 8 53 -15 c 1,14,-1
 34 -5 l 1,15,16
 67 61 67 61 178 172 c 0,17,18
 216 210 216 210 246 259 c 128,-1,19
 276 308 276 308 276 347 c 128,-1,20
 276 386 276 386 252 404.5 c 128,-1,21
 228 423 228 423 191 423 c 128,-1,22
 154 423 154 423 126 409 c 1,23,24
 119 397 119 397 119 377 c 128,-1,25
 119 357 119 357 129 348 c 1,26,-1
 128 341 l 1,27,28
 102 325 102 325 80 301 c 1,29,30
 68 302 68 302 61 310.5 c 128,-1,31
 54 319 54 319 54 330 c 0,32,33
 54 376 54 376 107.5 422.5 c 128,-1,34
 161 469 161 469 216 485 c 1,35,36
 297 485 297 485 334.5 446 c 128,-1,37
 372 407 372 407 372 326 c 1,38,39
 277 200 277 200 136 79 c 1,40,-1
 138 75 l 1,41,42
 153 82 153 82 165 85 c 1,0,1
EndSplineSet
EndChar

StartChar: three
Encoding: 51 51 22
Width: 450
GlyphClass: 2
Flags: W
LayerCount: 2
Fore
SplineSet
93 49 m 1,0,1
 93 10 93 10 95 -12 c 1,2,3
 119 -29 119 -29 158.5 -41 c 128,-1,4
 198 -53 198 -53 233 -53 c 128,-1,5
 268 -53 268 -53 288 -29 c 1,6,7
 303 9 303 9 303 56 c 0,8,9
 303 127 303 127 266 167.5 c 128,-1,10
 229 208 229 208 161 208 c 1,11,-1
 157 214 l 1,12,-1
 292 397 l 1,13,-1
 290 401 l 1,14,15
 275 394 275 394 263 391 c 1,16,17
 205 391 205 391 116 398 c 1,18,19
 107 376 107 376 96 337 c 1,20,-1
 75 344 l 1,21,22
 82 384 82 384 82 413.5 c 128,-1,23
 82 443 82 443 72 476 c 1,24,-1
 83 485 l 1,25,26
 203 458 203 458 363 458 c 1,27,28
 388 474 388 474 399 485 c 1,29,-1
 416 470 l 1,30,31
 378 435 378 435 239 267 c 1,32,33
 311 255 311 255 351 202.5 c 128,-1,34
 391 150 391 150 391 66 c 1,35,36
 371 11 371 11 317.5 -41.5 c 128,-1,37
 264 -94 264 -94 209 -115 c 1,38,39
 168 -115 168 -115 116 -104 c 128,-1,40
 64 -93 64 -93 28 -76 c 1,41,-1
 28 -63 l 1,42,43
 66 -20 66 -20 71 49 c 1,44,-1
 93 49 l 1,0,1
EndSplineSet
EndChar

StartChar: four
Encoding: 52 52 23
Width: 471
GlyphClass: 2
Flags: W
LayerCount: 2
Fore
SplineSet
332 274 m 128,-1,1
 332 144 332 144 333 109 c 1,2,3
 371 109 371 109 386.5 116.5 c 128,-1,4
 402 124 402 124 414 153 c 1,5,-1
 430 150 l 1,6,7
 421 105 421 105 421 58 c 1,8,-1
 417 56 l 1,9,10
 382 59 382 59 334 59 c 1,11,12
 334 -8 334 -8 342 -67 c 1,13,14
 363 -78 363 -78 393 -85 c 1,15,-1
 389 -105 l 1,16,17
 332 -100 332 -100 285.5 -100 c 128,-1,18
 239 -100 239 -100 177 -112 c 1,19,-1
 174 -92 l 1,20,21
 208 -77 208 -77 253 -66 c 1,22,23
 260 -9 260 -9 260 59 c 1,24,-1
 7 59 l 1,25,-1
 3 73 l 1,26,27
 164 260 164 260 264 460 c 1,28,29
 306 470 306 470 337 485 c 1,30,-1
 345 481 l 1,31,0
 332 404 332 404 332 274 c 128,-1,1
256 379 m 1,32,33
 194 243 194 243 108 120 c 1,34,35
 170 114 170 114 260 112 c 1,36,-1
 263 379 l 1,37,-1
 256 379 l 1,32,33
EndSplineSet
EndChar

StartChar: five
Encoding: 53 53 24
Width: 461
GlyphClass: 2
Flags: W
LayerCount: 2
Fore
SplineSet
105 49 m 1,0,1
 105 10 105 10 107 -12 c 1,2,3
 131 -29 131 -29 170.5 -41 c 128,-1,4
 210 -53 210 -53 245 -53 c 128,-1,5
 280 -53 280 -53 300 -29 c 1,6,7
 315 9 315 9 315 56 c 0,8,9
 315 126 315 126 278.5 167 c 128,-1,10
 242 208 242 208 174 208 c 0,11,12
 135 208 135 208 104 191 c 1,13,-1
 92 200 l 1,14,-1
 102 375 l 2,15,16
 104 402 104 402 104 430 c 128,-1,17
 104 458 104 458 100 482 c 1,18,-1
 121 486 l 1,19,20
 126 468 126 468 130 459 c 1,21,22
 258 463 258 463 359 485 c 1,23,-1
 370 476 l 1,24,25
 358 441 358 441 358 407 c 128,-1,26
 358 373 358 373 363 343 c 1,27,-1
 341 338 l 1,28,29
 332 375 332 375 323 398 c 1,30,31
 253 391 253 391 170 391 c 1,32,-1
 147 401 l 1,33,-1
 143 396 l 1,34,-1
 132 241 l 1,35,36
 177 266 177 266 197 271 c 1,37,38
 295 268 295 268 349 215 c 128,-1,39
 403 162 403 162 403 66 c 1,40,41
 383 11 383 11 329.5 -41.5 c 128,-1,42
 276 -94 276 -94 221 -115 c 1,43,44
 180 -115 180 -115 128 -104 c 128,-1,45
 76 -93 76 -93 40 -76 c 1,46,-1
 40 -63 l 1,47,48
 78 -20 78 -20 83 49 c 1,49,-1
 105 49 l 1,0,1
EndSplineSet
EndChar

StartChar: six
Encoding: 54 54 25
Width: 451
GlyphClass: 2
Flags: W
LayerCount: 2
Fore
SplineSet
143 215 m 0,0,1
 143 47 143 47 249 47 c 0,2,3
 298 47 298 47 318 71 c 1,4,5
 333 109 333 109 333 146 c 0,6,7
 333 298 333 298 202 298 c 0,8,9
 187 298 187 298 172 295 c 1,10,-1
 172 302 l 1,11,12
 200 322 200 322 229 350 c 1,13,14
 421 350 421 350 421 156 c 1,15,16
 399 105 399 105 340 52.5 c 128,-1,17
 281 0 281 0 228 -15 c 1,18,19
 54 -15 54 -15 54 182 c 0,20,21
 54 306 54 306 132.5 421 c 128,-1,22
 211 536 211 536 327 585 c 1,23,-1
 340 567 l 1,24,25
 250 508 250 508 196.5 415 c 128,-1,26
 143 322 143 322 143 215 c 0,0,1
EndSplineSet
EndChar

StartChar: seven
Encoding: 55 55 26
Width: 390
GlyphClass: 2
Flags: W
LayerCount: 2
Fore
SplineSet
268 -106 m 1,0,1
 210 -100 210 -100 159.5 -100 c 128,-1,2
 109 -100 109 -100 56 -111 c 1,3,-1
 51 -91 l 1,4,5
 83 -81 83 -81 101 -70 c 1,6,7
 114 74 114 74 241 288 c 2,8,-1
 306 398 l 1,9,-1
 303 402 l 1,10,11
 289 395 289 395 277 391 c 1,12,13
 256 390 256 390 212 390 c 128,-1,14
 168 390 168 390 95 397 c 1,15,16
 86 374 86 374 77 337 c 1,17,-1
 55 342 l 1,18,19
 60 372 60 372 60 405.5 c 128,-1,20
 60 439 60 439 48 474 c 1,21,-1
 59 483 l 1,22,23
 184 457 184 457 346 457 c 1,24,25
 354 466 354 466 363 481 c 1,26,-1
 383 471 l 1,27,28
 191 142 191 142 190 -64 c 1,29,30
 238 -73 238 -73 270 -86 c 1,31,-1
 268 -106 l 1,0,1
EndSplineSet
EndChar

StartChar: eight
Encoding: 56 56 27
Width: 476
GlyphClass: 2
Flags: W
LayerCount: 2
Fore
SplineSet
397 485 m 0,0,1
 397 451 397 451 362 408 c 128,-1,2
 327 365 327 365 288 337 c 1,3,4
 328 312 328 312 352 293 c 128,-1,5
 376 274 376 274 397 240 c 128,-1,6
 418 206 418 206 418 166 c 1,7,8
 396 109 396 109 341.5 56.5 c 128,-1,9
 287 4 287 4 229 -15 c 1,10,11
 163 -15 163 -15 110.5 26.5 c 128,-1,12
 58 68 58 68 58 130 c 0,13,14
 58 173 58 173 94 222 c 128,-1,15
 130 271 130 271 175 302 c 1,16,17
 80 371 80 371 80 454 c 1,18,19
 103 491 103 491 159.5 532.5 c 128,-1,20
 216 574 216 574 258 585 c 1,21,22
 316 585 316 585 356.5 559.5 c 128,-1,23
 397 534 397 534 397 485 c 0,0,1
315 71 m 1,24,25
 330 106 330 106 330 133.5 c 128,-1,26
 330 161 330 161 323.5 175 c 128,-1,27
 317 189 317 189 310 199 c 128,-1,28
 303 209 303 209 286 223.5 c 128,-1,29
 269 238 269 238 259.5 244.5 c 128,-1,30
 250 251 250 251 226.5 266.5 c 128,-1,31
 203 282 203 282 194 288 c 1,32,33
 132 240 132 240 132 156 c 0,34,35
 132 111 132 111 167.5 79 c 128,-1,36
 203 47 203 47 249 47 c 128,-1,37
 295 47 295 47 315 71 c 1,24,25
174 500 m 1,38,39
 167 488 167 488 167 460 c 128,-1,40
 167 432 167 432 192 406.5 c 128,-1,41
 217 381 217 381 267 350 c 1,42,43
 323 401 323 401 323 459 c 0,44,45
 323 523 323 523 237 523 c 0,46,47
 195 523 195 523 174 500 c 1,38,39
EndSplineSet
EndChar

StartChar: nine
Encoding: 57 57 28
Width: 451
GlyphClass: 2
Flags: W
LayerCount: 2
Fore
SplineSet
308 255 m 0,0,1
 308 423 308 423 202 423 c 0,2,3
 153 423 153 423 133 399 c 1,4,5
 118 361 118 361 118 324 c 0,6,7
 118 172 118 172 249 172 c 0,8,9
 264 172 264 172 279 175 c 1,10,-1
 279 168 l 1,11,12
 251 148 251 148 222 120 c 1,13,14
 30 120 30 120 30 314 c 1,15,16
 52 365 52 365 111 417.5 c 128,-1,17
 170 470 170 470 223 485 c 1,18,19
 397 485 397 485 397 288 c 0,20,21
 397 164 397 164 318.5 49 c 128,-1,22
 240 -66 240 -66 124 -115 c 1,23,-1
 111 -97 l 1,24,25
 201 -38 201 -38 254.5 55 c 128,-1,26
 308 148 308 148 308 255 c 0,0,1
EndSplineSet
EndChar

StartChar: colon
Encoding: 58 58 29
Width: 212
GlyphClass: 2
Flags: W
LayerCount: 2
Fore
SplineSet
160 46 m 1,0,1
 153 33 153 33 135.5 13 c 128,-1,2
 118 -7 118 -7 106 -15 c 1,3,4
 94 -7 94 -7 76.5 13 c 128,-1,5
 59 33 59 33 52 46 c 1,6,7
 58 58 58 58 75 73.5 c 128,-1,8
 92 89 92 89 106 96 c 1,9,10
 119 88 119 88 136 72.5 c 128,-1,11
 153 57 153 57 160 46 c 1,0,1
160 435 m 1,12,13
 153 422 153 422 135.5 402 c 128,-1,14
 118 382 118 382 106 374 c 1,15,16
 94 382 94 382 76.5 402 c 128,-1,17
 59 422 59 422 52 435 c 1,18,19
 58 447 58 447 75 462.5 c 128,-1,20
 92 478 92 478 106 485 c 1,21,22
 119 477 119 477 136 461.5 c 128,-1,23
 153 446 153 446 160 435 c 1,12,13
EndSplineSet
EndChar

StartChar: semicolon
Encoding: 59 59 30
Width: 212
GlyphClass: 2
Flags: W
LayerCount: 2
Fore
SplineSet
160 46 m 1,0,1
 160 -4 160 -4 126 -56 c 128,-1,2
 92 -108 92 -108 46 -139 c 1,3,-1
 36 -129 l 1,4,5
 57 -104 57 -104 74 -67.5 c 128,-1,6
 91 -31 91 -31 92 -4 c 1,7,8
 66 20 66 20 52 46 c 1,9,10
 58 58 58 58 75 73.5 c 128,-1,11
 92 89 92 89 106 96 c 1,12,13
 119 88 119 88 136 72.5 c 128,-1,14
 153 57 153 57 160 46 c 1,0,1
160 435 m 1,15,16
 153 422 153 422 135.5 402 c 128,-1,17
 118 382 118 382 106 374 c 1,18,19
 94 382 94 382 76.5 402 c 128,-1,20
 59 422 59 422 52 435 c 1,21,22
 58 447 58 447 75 462.5 c 128,-1,23
 92 478 92 478 106 485 c 1,24,25
 119 477 119 477 136 461.5 c 128,-1,26
 153 446 153 446 160 435 c 1,15,16
EndSplineSet
EndChar

StartChar: less
Encoding: 60 60 31
Width: 550
GlyphClass: 2
Flags: W
LayerCount: 2
Fore
SplineSet
472 55 m 1,0,1
 260 160 260 160 52 222 c 1,2,-1
 66 286 l 1,3,4
 122 303 122 303 249 351 c 128,-1,5
 376 399 376 399 474 449 c 1,6,-1
 498 403 l 1,7,-1
 493 393 l 1,8,-1
 134 254 l 1,9,-1
 134 250 l 1,10,-1
 493 112 l 1,11,-1
 498 102 l 1,12,-1
 472 55 l 1,0,1
EndSplineSet
EndChar

StartChar: equal
Encoding: 61 61 32
Width: 550
GlyphClass: 2
Flags: W
LayerCount: 2
Fore
SplineSet
62 203 m 1,0,1
 232 194 232 194 341.5 194 c 128,-1,2
 451 194 451 194 490 197 c 1,3,-1
 496 191 l 1,4,-1
 487 145 l 1,5,-1
 61 145 l 1,6,-1
 53 152 l 1,7,-1
 62 203 l 1,0,1
62 357 m 1,8,9
 232 348 232 348 341.5 348 c 128,-1,10
 451 348 451 348 490 351 c 1,11,-1
 496 345 l 1,12,-1
 487 299 l 1,13,-1
 61 299 l 1,14,-1
 53 306 l 1,15,-1
 62 357 l 1,8,9
EndSplineSet
EndChar

StartChar: greater
Encoding: 62 62 33
Width: 550
GlyphClass: 2
Flags: W
LayerCount: 2
Fore
SplineSet
498 222 m 1,0,1
 290 160 290 160 78 55 c 1,2,-1
 52 102 l 1,3,-1
 57 112 l 1,4,-1
 416 250 l 1,5,-1
 416 254 l 1,6,-1
 57 393 l 1,7,-1
 52 403 l 1,8,-1
 76 449 l 1,9,10
 174 399 174 399 301 351 c 128,-1,11
 428 303 428 303 484 286 c 1,12,-1
 498 222 l 1,0,1
EndSplineSet
EndChar

StartChar: question
Encoding: 63 63 34
Width: 335
GlyphClass: 2
Flags: W
LayerCount: 2
Fore
SplineSet
239 560 m 0,0,1
 239 597 239 597 215 615.5 c 128,-1,2
 191 634 191 634 154 634 c 128,-1,3
 117 634 117 634 89 620 c 1,4,5
 82 608 82 608 82 588 c 128,-1,6
 82 568 82 568 92 559 c 1,7,-1
 91 552 l 1,8,9
 65 536 65 536 43 512 c 1,10,11
 31 513 31 513 24 521.5 c 128,-1,12
 17 530 17 530 17 541 c 0,13,14
 17 587 17 587 70.5 633.5 c 128,-1,15
 124 680 124 680 179 696 c 1,16,17
 260 696 260 696 297.5 657 c 128,-1,18
 335 618 335 618 335 537 c 1,19,20
 272 447 272 447 177 352 c 1,21,22
 170 263 170 263 166 182 c 1,23,-1
 140 180 l 1,24,-1
 119 319 l 1,25,-1
 119 338 l 1,26,27
 239 458 239 458 239 560 c 0,0,1
205 49 m 1,28,29
 198 36 198 36 180.5 16 c 128,-1,30
 163 -4 163 -4 151 -12 c 1,31,32
 139 -4 139 -4 121.5 16 c 128,-1,33
 104 36 104 36 97 49 c 1,34,35
 103 61 103 61 120 76.5 c 128,-1,36
 137 92 137 92 151 99 c 1,37,38
 164 91 164 91 181 75.5 c 128,-1,39
 198 60 198 60 205 49 c 1,28,29
EndSplineSet
EndChar

StartChar: at
Encoding: 64 64 35
Width: 860
GlyphClass: 2
Flags: W
LayerCount: 2
Fore
SplineSet
241 176 m 0,0,1
 241 280 241 280 297 366.5 c 128,-1,2
 353 453 353 453 447 485 c 1,3,4
 514 485 514 485 587 464 c 1,5,6
 601 485 601 485 610 517 c 1,7,-1
 631 511 l 1,8,9
 609 419 609 419 609 259.5 c 128,-1,10
 609 100 609 100 626 31 c 1,11,12
 692 69 692 69 725.5 153 c 128,-1,13
 759 237 759 237 759 329 c 0,14,15
 759 616 759 616 458 616 c 0,16,17
 356 616 356 616 281 570 c 1,18,19
 208 500 208 500 164.5 389 c 128,-1,20
 121 278 121 278 121 172 c 0,21,22
 121 22 121 22 193 -59 c 128,-1,23
 265 -140 265 -140 409 -140 c 0,24,25
 471 -140 471 -140 528 -118 c 1,26,-1
 535 -131 l 1,27,28
 475 -173 475 -173 401 -190 c 1,29,30
 225 -190 225 -190 140 -105.5 c 128,-1,31
 55 -21 55 -21 55 155 c 0,32,33
 55 356 55 356 168 497.5 c 128,-1,34
 281 639 281 639 474 666 c 1,35,36
 823 666 823 666 823 363 c 0,37,38
 823 224 823 224 759 119.5 c 128,-1,39
 695 15 695 15 573 -15 c 1,40,41
 558 3 558 3 548.5 55 c 128,-1,42
 539 107 539 107 539 145 c 1,43,-1
 535 146 l 1,44,45
 500 96 500 96 452 49 c 128,-1,46
 404 2 404 2 361 -15 c 1,47,48
 306 -15 306 -15 273.5 46 c 128,-1,49
 241 107 241 107 241 176 c 0,0,1
321 221 m 0,50,51
 321 172 321 172 338.5 119.5 c 128,-1,52
 356 67 356 67 389 67 c 0,53,54
 424 67 424 67 474 117 c 128,-1,55
 524 167 524 167 539 207 c 1,56,57
 539 356 539 356 532 399 c 1,58,59
 479 423 479 423 429.5 423 c 128,-1,60
 380 423 380 423 354 399 c 1,61,62
 321 323 321 323 321 221 c 0,50,51
EndSplineSet
EndChar

StartChar: A
Encoding: 65 65 36
Width: 599
GlyphClass: 2
Flags: W
LayerCount: 2
Fore
SplineSet
98 662 m 1,0,1
 212 651 212 651 336 651 c 128,-1,2
 460 651 460 651 574 662 c 1,3,-1
 578 637 l 1,4,5
 533 623 533 623 482 616 c 1,6,7
 469 520 469 520 469 325.5 c 128,-1,8
 469 131 469 131 482 35 c 1,9,10
 535 30 535 30 592 16 c 1,11,-1
 589 -8 l 1,12,13
 515 0 515 0 428.5 0 c 128,-1,14
 342 0 342 0 289 -8 c 1,15,-1
 285 17 l 1,16,17
 330 31 330 31 381 38 c 1,18,19
 389 104 389 104 392 251 c 1,20,21
 340 257 340 257 277.5 257 c 128,-1,22
 215 257 215 257 172 251 c 1,23,24
 148 153 148 153 148 94 c 128,-1,25
 148 35 148 35 191 10 c 1,26,-1
 187 -4 l 1,27,28
 156 0 156 0 82.5 0 c 128,-1,29
 9 0 9 0 -50 -8 c 1,30,-1
 -54 17 l 1,31,32
 -9 31 -9 31 42 38 c 1,33,-1
 206 619 l 1,34,35
 150 625 150 625 95 638 c 1,36,-1
 98 662 l 1,0,1
183 301 m 1,37,38
 228 294 228 294 289.5 294 c 128,-1,39
 351 294 351 294 392 301 c 1,40,41
 392 543 392 543 382 611 c 1,42,43
 351 614 351 614 320.5 614 c 128,-1,44
 290 614 290 614 258 611 c 1,45,-1
 183 301 l 1,37,38
EndSplineSet
EndChar

StartChar: B
Encoding: 66 66 37
Width: 576
GlyphClass: 2
Flags: W
LayerCount: 2
Fore
SplineSet
16 649 m 1,0,-1
 304 658 l 1,1,2
 425 658 425 658 463 628 c 0,3,4
 500 600 500 600 500 543 c 128,-1,5
 500 486 500 486 461 440.5 c 128,-1,6
 422 395 422 395 366 372 c 1,7,-1
 366 368 l 1,8,9
 438 368 438 368 483 335 c 128,-1,10
 528 302 528 302 528 237 c 0,11,12
 528 157 528 157 453.5 82.5 c 128,-1,13
 379 8 379 8 292 -15 c 1,14,15
 229 -15 229 -15 145 23 c 1,16,17
 128 -3 128 -3 122 -22 c 1,18,-1
 101 -17 l 1,19,20
 125 92 125 92 125 303 c 128,-1,21
 125 514 125 514 114 608 c 1,22,23
 66 624 66 624 16 624 c 1,24,-1
 16 649 l 1,0,-1
263 382 m 2,25,26
 337 382 337 382 370 403 c 1,27,28
 406 443 406 443 406 509 c 0,29,30
 406 621 406 621 287 621 c 0,31,32
 247 621 247 621 211 608 c 1,33,34
 202 514 202 514 202 343.5 c 128,-1,35
 202 173 202 173 207 85 c 1,36,37
 259 57 259 57 318.5 57 c 128,-1,38
 378 57 378 57 413 81 c 1,39,40
 436 130 436 130 436 191 c 0,41,42
 436 345 436 345 246 345 c 1,43,-1
 251 382 l 1,44,-1
 263 382 l 2,25,26
EndSplineSet
EndChar

StartChar: C
Encoding: 67 67 38
Width: 498
GlyphClass: 2
Flags: W
LayerCount: 2
Fore
SplineSet
304 64 m 0,0,1
 385 64 385 64 467 142 c 1,2,-1
 481 129 l 1,3,4
 398 23 398 23 283 -15 c 1,5,6
 163 -15 163 -15 102.5 60.5 c 128,-1,7
 42 136 42 136 42 269.5 c 128,-1,8
 42 403 42 403 115.5 517.5 c 128,-1,9
 189 632 189 632 313 666 c 1,10,11
 414 666 414 666 519 647 c 1,12,-1
 518 625 l 1,13,14
 492 625 492 625 470 616 c 1,15,16
 445 557 445 557 437 478 c 1,17,-1
 412 478 l 1,18,19
 403 518 403 518 403 571 c 1,20,21
 356 596 356 596 290.5 596 c 128,-1,22
 225 596 225 596 182 560 c 1,23,24
 131 473 131 473 131 339 c 0,25,26
 131 139 131 139 217 86 c 0,27,28
 253 64 253 64 304 64 c 0,0,1
EndSplineSet
EndChar

StartChar: D
Encoding: 68 68 39
Width: 619
GlyphClass: 2
Flags: W
LayerCount: 2
Fore
SplineSet
16 649 m 1,0,-1
 304 658 l 1,1,2
 438 658 438 658 507.5 589 c 128,-1,3
 577 520 577 520 577 383.5 c 128,-1,4
 577 247 577 247 504 134 c 128,-1,5
 431 21 431 21 306 -15 c 1,6,7
 234 -15 234 -15 145 23 c 1,8,9
 128 -3 128 -3 122 -22 c 1,10,-1
 101 -17 l 1,11,12
 125 92 125 92 125 303 c 128,-1,13
 125 514 125 514 114 608 c 1,14,15
 66 624 66 624 16 624 c 1,16,-1
 16 649 l 1,0,-1
383.5 596.5 m 128,-1,18
 343 621 343 621 295 621 c 128,-1,19
 247 621 247 621 211 608 c 1,20,21
 202 514 202 514 202 343.5 c 128,-1,22
 202 173 202 173 207 85 c 1,23,24
 261 57 261 57 330 57 c 128,-1,25
 399 57 399 57 437 91 c 1,26,27
 488 184 488 184 488 320 c 0,28,29
 488 444 488 444 446 528 c 0,30,17
 424 572 424 572 383.5 596.5 c 128,-1,18
EndSplineSet
EndChar

StartChar: E
Encoding: 69 69 40
Width: 512
GlyphClass: 2
Flags: W
LayerCount: 2
Fore
SplineSet
304 64 m 0,0,1
 385 64 385 64 467 142 c 1,2,-1
 481 129 l 1,3,4
 398 23 398 23 283 -15 c 1,5,6
 163 -15 163 -15 102.5 60.5 c 128,-1,7
 42 136 42 136 42 269.5 c 128,-1,8
 42 403 42 403 115.5 517.5 c 128,-1,9
 189 632 189 632 313 666 c 1,10,11
 414 666 414 666 519 647 c 1,12,-1
 518 625 l 1,13,14
 492 625 492 625 470 616 c 1,15,16
 445 557 445 557 437 478 c 1,17,-1
 412 478 l 1,18,19
 403 518 403 518 403 571 c 1,20,21
 356 596 356 596 290.5 596 c 128,-1,22
 225 596 225 596 182 560 c 1,23,24
 137 483 137 483 132 373 c 1,25,26
 175 365 175 365 244 365 c 0,27,28
 355 365 355 365 376 408 c 1,29,-1
 396 404 l 1,30,31
 387 372 387 372 387 328 c 128,-1,32
 387 284 387 284 393 240 c 1,33,-1
 370 236 l 1,34,35
 355 274 355 274 350 325 c 1,36,37
 312 328 312 328 241.5 328 c 128,-1,38
 171 328 171 328 131 323 c 1,39,40
 134 135 134 135 220 84 c 0,41,42
 254 64 254 64 304 64 c 0,0,1
EndSplineSet
EndChar

StartChar: F
Encoding: 70 70 41
Width: 488
GlyphClass: 2
Flags: W
LayerCount: 2
Fore
SplineSet
409 593 m 1,0,1
 366 614 366 614 308 614 c 128,-1,2
 250 614 250 614 217 609 c 1,3,4
 207 541 207 541 207 366 c 1,5,6
 250 358 250 358 291 358 c 0,7,8
 369 358 369 358 390 401 c 1,9,-1
 410 397 l 1,10,11
 401 365 401 365 401 320.5 c 128,-1,12
 401 276 401 276 407 233 c 1,13,-1
 384 229 l 1,14,15
 369 267 369 267 364 318 c 1,16,17
 327 321 327 321 287 321 c 128,-1,18
 247 321 247 321 207 316 c 1,19,20
 208 112 208 112 220 35 c 1,21,22
 270 30 270 30 330 16 c 1,23,-1
 327 -8 l 1,24,25
 253 0 253 0 166.5 0 c 128,-1,26
 80 0 80 0 27 -8 c 1,27,-1
 23 17 l 1,28,29
 68 31 68 31 119 38 c 1,30,31
 130 120 130 120 130 296 c 2,32,-1
 130 355 l 2,33,34
 130 465 130 465 117 613 c 1,35,36
 77 618 77 618 21 636 c 1,37,-1
 25 661 l 1,38,39
 129 651 129 651 264 651 c 128,-1,40
 399 651 399 651 498 662 c 1,41,-1
 502 642 l 1,42,43
 450 589 450 589 443 484 c 1,44,-1
 418 484 l 1,45,46
 409 527 409 527 409 593 c 1,0,1
EndSplineSet
EndChar

StartChar: G
Encoding: 71 71 42
Width: 557
GlyphClass: 2
Flags: W
LayerCount: 2
Fore
SplineSet
216 86 m 0,0,1
 251 64 251 64 305 64 c 128,-1,2
 359 64 359 64 403 93 c 1,3,-1
 403 176 l 2,4,5
 403 199 403 199 399 243 c 1,6,7
 364 253 364 253 308 263 c 1,8,-1
 311 284 l 1,9,10
 334 281 334 281 355 281 c 0,11,12
 443 281 443 281 516 330 c 1,13,-1
 525 312 l 1,14,15
 502 294 502 294 489 276 c 1,16,17
 477 156 477 156 469 -4 c 1,18,-1
 448 -4 l 1,19,20
 438 39 438 39 424 67 c 1,21,22
 359 10 359 10 283 -15 c 1,23,24
 163 -15 163 -15 102.5 60.5 c 128,-1,25
 42 136 42 136 42 269.5 c 128,-1,26
 42 403 42 403 115.5 517.5 c 128,-1,27
 189 632 189 632 313 666 c 1,28,29
 417 666 417 666 522 647 c 1,30,-1
 521 625 l 1,31,32
 496 625 496 625 473 616 c 1,33,34
 446 552 446 552 440 477 c 1,35,-1
 415 477 l 1,36,37
 406 518 406 518 406 570 c 1,38,39
 359 596 359 596 292 596 c 128,-1,40
 225 596 225 596 182 560 c 1,41,42
 131 473 131 473 131 339 c 0,43,44
 131 138 131 138 216 86 c 0,0,1
EndSplineSet
EndChar

StartChar: H
Encoding: 72 72 43
Width: 708
GlyphClass: 2
Flags: W
LayerCount: 2
Fore
SplineSet
398 659 m 1,0,1
 459 651 459 651 546.5 651 c 128,-1,2
 634 651 634 651 698 659 c 1,3,-1
 701 635 l 1,4,5
 644 621 644 621 591 616 c 1,6,7
 578 542 578 542 578 355 c 2,8,-1
 578 296 l 2,9,10
 578 109 578 109 591 35 c 1,11,12
 644 30 644 30 701 16 c 1,13,-1
 698 -8 l 1,14,15
 634 0 634 0 546.5 0 c 128,-1,16
 459 0 459 0 398 -8 c 1,17,-1
 394 17 l 1,18,19
 439 31 439 31 490 38 c 1,20,21
 500 139 500 139 501 328 c 1,22,23
 427 335 427 335 354 335 c 128,-1,24
 281 335 281 335 207 328 c 1,25,26
 208 114 208 114 220 35 c 1,27,28
 273 30 273 30 330 16 c 1,29,-1
 327 -8 l 1,30,31
 253 0 253 0 166.5 0 c 128,-1,32
 80 0 80 0 27 -8 c 1,33,-1
 23 17 l 1,34,35
 68 31 68 31 119 38 c 1,36,37
 130 120 130 120 130 296 c 2,38,-1
 130 355 l 2,39,40
 130 517 130 517 117 613 c 1,41,42
 66 620 66 620 21 634 c 1,43,-1
 25 659 l 1,44,45
 78 651 78 651 164.5 651 c 128,-1,46
 251 651 251 651 325 659 c 1,47,-1
 328 635 l 1,48,49
 271 621 271 621 218 616 c 1,50,51
 209 557 209 557 207 382 c 1,52,53
 283 372 283 372 358 372 c 128,-1,54
 433 372 433 372 501 381 c 1,55,56
 500 513 500 513 490 613 c 1,57,58
 439 620 439 620 394 634 c 1,59,-1
 398 659 l 1,0,1
EndSplineSet
EndChar

StartChar: I
Encoding: 73 73 44
Width: 337
GlyphClass: 2
Flags: W
LayerCount: 2
Fore
SplineSet
218 616 m 1,0,1
 207 541 207 541 207 336 c 128,-1,2
 207 131 207 131 220 35 c 1,3,4
 273 30 273 30 330 16 c 1,5,-1
 327 -8 l 1,6,7
 253 0 253 0 166.5 0 c 128,-1,8
 80 0 80 0 27 -8 c 1,9,-1
 23 17 l 1,10,11
 68 31 68 31 119 38 c 1,12,13
 130 120 130 120 130 296 c 2,14,-1
 130 355 l 2,15,16
 130 517 130 517 117 613 c 1,17,18
 66 620 66 620 21 634 c 1,19,-1
 25 659 l 1,20,21
 78 651 78 651 164.5 651 c 128,-1,22
 251 651 251 651 325 659 c 1,23,-1
 328 635 l 1,24,25
 271 621 271 621 218 616 c 1,0,1
EndSplineSet
EndChar

StartChar: J
Encoding: 74 74 45
Width: 337
GlyphClass: 2
Flags: W
LayerCount: 2
Fore
SplineSet
12 659 m 1,0,1
 86 651 86 651 172.5 651 c 128,-1,2
 259 651 259 651 312 659 c 1,3,-1
 316 634 l 1,4,5
 271 620 271 620 220 613 c 1,6,7
 207 517 207 517 207 355 c 2,8,-1
 207 296 l 2,9,10
 207 111 207 111 215 33 c 1,11,12
 159 -93 159 -93 9 -180 c 1,13,-1
 -8 -161 l 1,14,15
 68 -97 68 -97 99 -23.5 c 128,-1,16
 130 50 130 50 130 154 c 2,17,-1
 130 355 l 2,18,19
 130 541 130 541 119 616 c 1,20,21
 66 621 66 621 9 635 c 1,22,-1
 12 659 l 1,0,1
EndSplineSet
EndChar

StartChar: K
Encoding: 75 75 46
Width: 606
GlyphClass: 2
Flags: W
LayerCount: 2
Fore
SplineSet
623 -8 m 1,0,1
 564 0 564 0 495.5 0 c 128,-1,2
 427 0 427 0 396 -4 c 1,3,-1
 392 10 l 1,4,5
 409 27 409 27 409 67 c 0,6,7
 409 148 409 148 307 344 c 1,8,9
 251 293 251 293 207 257 c 1,10,11
 210 102 210 102 219 35 c 1,12,13
 278 29 278 29 332 16 c 1,14,-1
 329 -8 l 1,15,16
 255 0 255 0 167 0 c 128,-1,17
 79 0 79 0 26 -8 c 1,18,-1
 22 17 l 1,19,20
 67 31 67 31 118 38 c 1,21,22
 129 120 129 120 129 296 c 2,23,-1
 129 355 l 2,24,25
 129 517 129 517 116 613 c 1,26,27
 65 620 65 620 20 634 c 1,28,-1
 24 659 l 1,29,30
 77 651 77 651 158.5 651 c 128,-1,31
 240 651 240 651 314 659 c 1,32,-1
 317 635 l 1,33,34
 253 620 253 620 217 616 c 1,35,36
 206 541 206 541 206 350 c 2,37,-1
 206 294 l 1,38,39
 332 427 332 427 371 491 c 128,-1,40
 410 555 410 555 410 589.5 c 128,-1,41
 410 624 410 624 393 641 c 1,42,-1
 397 655 l 1,43,44
 428 651 428 651 485.5 651 c 128,-1,45
 543 651 543 651 602 659 c 1,46,-1
 606 634 l 1,47,48
 561 620 561 620 510 613 c 1,49,50
 501 528 501 528 364 397 c 1,51,-1
 531 38 l 1,52,53
 582 31 582 31 627 17 c 1,54,-1
 623 -8 l 1,0,1
EndSplineSet
EndChar

StartChar: L
Encoding: 76 76 47
Width: 456
GlyphClass: 2
Flags: W
LayerCount: 2
Fore
SplineSet
471 -11 m 1,0,1
 371 0 371 0 242.5 0 c 128,-1,2
 114 0 114 0 25 -10 c 1,3,-1
 21 15 l 1,4,5
 60 28 60 28 117 38 c 1,6,7
 128 120 128 120 128 296 c 2,8,-1
 128 355 l 2,9,10
 128 530 128 530 117 613 c 1,11,12
 66 620 66 620 21 634 c 1,13,-1
 25 659 l 1,14,15
 78 651 78 651 164.5 651 c 128,-1,16
 251 651 251 651 325 659 c 1,17,-1
 328 635 l 1,18,19
 268 621 268 621 218 616 c 1,20,21
 205 528 205 528 205 322 c 128,-1,22
 205 116 205 116 215 42 c 1,23,24
 248 37 248 37 304 37 c 128,-1,25
 360 37 360 37 400 55 c 1,26,27
 412 92 412 92 419 167 c 1,28,-1
 444 167 l 1,29,30
 448 61 448 61 477 9 c 1,31,-1
 471 -11 l 1,0,1
EndSplineSet
EndChar

StartChar: M
Encoding: 77 77 48
Width: 864
GlyphClass: 2
Flags: W
LayerCount: 2
Fore
SplineSet
362 70 m 0,0,1
 362 204 362 204 232 601 c 1,2,-1
 228 600 l 1,3,-1
 196 367 l 2,4,5
 176 224 176 224 176 109 c 0,6,7
 176 72 176 72 184.5 48 c 128,-1,8
 193 24 193 24 219 10 c 1,9,-1
 215 -4 l 1,10,11
 184 0 184 0 109.5 0 c 128,-1,12
 35 0 35 0 -24 -8 c 1,13,-1
 -28 17 l 1,14,15
 17 31 17 31 68 38 c 1,16,-1
 184 617 l 1,17,18
 124 623 124 623 74 635 c 1,19,-1
 77 659 l 1,20,21
 151 651 151 651 234 651 c 128,-1,22
 317 651 317 651 357 655 c 1,23,-1
 359 641 l 1,24,25
 325 629 325 629 325 610 c 0,26,27
 325 544 325 544 404 293 c 2,28,-1
 435 195 l 1,29,-1
 442 197 l 1,30,31
 443 219 443 219 566 609 c 1,32,33
 566 619 566 619 555 628.5 c 128,-1,34
 544 638 544 638 532 641 c 1,35,-1
 535 655 l 1,36,37
 585 651 585 651 672 651 c 128,-1,38
 759 651 759 651 811 659 c 1,39,-1
 816 634 l 1,40,41
 768 619 768 619 719 613 c 1,42,43
 714 589 714 589 714 527.5 c 128,-1,44
 714 466 714 466 730.5 281 c 128,-1,45
 747 96 747 96 761 35 c 1,46,47
 814 30 814 30 871 16 c 1,48,-1
 868 -8 l 1,49,50
 794 0 794 0 708 0 c 128,-1,51
 622 0 622 0 569 -8 c 1,52,-1
 565 17 l 1,53,54
 610 31 610 31 661 38 c 1,55,56
 661 133 661 133 649.5 305.5 c 128,-1,57
 638 478 638 478 621 597 c 1,58,-1
 618 598 l 1,59,60
 477 208 477 208 469 105 c 1,61,62
 404 66 404 66 372 29 c 1,63,-1
 360 37 l 1,64,65
 362 59 362 59 362 70 c 0,0,1
EndSplineSet
EndChar

StartChar: N
Encoding: 78 78 49
Width: 706
GlyphClass: 2
Flags: W
LayerCount: 2
Fore
SplineSet
25 659 m 1,0,1
 75 651 75 651 154.5 651 c 128,-1,2
 234 651 234 651 278 657 c 1,3,-1
 283 641 l 1,4,5
 271 637 271 637 260 628.5 c 128,-1,6
 249 620 249 620 249 610 c 0,7,8
 249 586 249 586 300 498 c 128,-1,9
 351 410 351 410 524 140 c 1,10,-1
 528 142 l 1,11,-1
 528 286 l 2,12,13
 528 454 528 454 511 540 c 128,-1,14
 494 626 494 626 451 641 c 1,15,-1
 455 655 l 1,16,17
 486 651 486 651 556 651 c 128,-1,18
 626 651 626 651 685 659 c 1,19,-1
 688 636 l 1,20,21
 617 619 617 619 589 616 c 1,22,23
 576 518 576 518 576 355 c 2,24,-1
 576 296 l 2,25,26
 576 109 576 109 589 35 c 1,27,28
 640 29 640 29 685 17 c 1,29,-1
 681 -8 l 1,30,31
 628 0 628 0 574.5 0 c 128,-1,32
 521 0 521 0 488 -3 c 1,33,34
 488 66 488 66 187 535 c 1,35,-1
 183 533 l 1,36,-1
 183 365 l 2,37,38
 183 110 183 110 220 35 c 1,39,40
 275 30 275 30 329 16 c 1,41,-1
 327 -8 l 1,42,43
 253 0 253 0 166.5 0 c 128,-1,44
 80 0 80 0 27 -8 c 1,45,-1
 23 17 l 1,46,47
 68 31 68 31 119 38 c 1,48,49
 130 120 130 120 130 296 c 2,50,-1
 130 355 l 2,51,52
 130 517 130 517 117 613 c 1,53,54
 66 620 66 620 21 634 c 1,55,-1
 25 659 l 1,0,1
EndSplineSet
EndChar

StartChar: O
Encoding: 79 79 50
Width: 602
GlyphClass: 2
Flags: W
LayerCount: 2
Fore
SplineSet
113 62.5 m 128,-1,1
 42 140 42 140 42 272 c 128,-1,2
 42 404 42 404 116.5 518.5 c 128,-1,3
 191 633 191 633 313 666 c 1,4,5
 435 666 435 666 497.5 593 c 128,-1,6
 560 520 560 520 560 384.5 c 128,-1,7
 560 249 560 249 491.5 140.5 c 128,-1,8
 423 32 423 32 301 -15 c 1,9,0
 184 -15 184 -15 113 62.5 c 128,-1,1
276 594 m 0,10,11
 220 594 220 594 182 560 c 1,12,13
 131 470 131 470 131 339 c 0,14,15
 131 183 131 183 215 101 c 0,16,17
 260 57 260 57 320.5 57 c 128,-1,18
 381 57 381 57 421 92 c 1,19,20
 471 184 471 184 471 310 c 0,21,22
 471 427 471 427 431 506 c 0,23,24
 387 594 387 594 276 594 c 0,10,11
EndSplineSet
EndChar

StartChar: P
Encoding: 80 80 51
Width: 512
GlyphClass: 2
Flags: W
LayerCount: 2
Fore
SplineSet
21 649 m 1,0,-1
 311 658 l 1,1,2
 517 658 517 658 517 494 c 0,3,4
 517 405 517 405 444 350 c 128,-1,5
 371 295 371 295 274 295 c 0,6,7
 259 295 259 295 252 296 c 1,8,-1
 256 328 l 1,9,-1
 268 328 l 2,10,11
 343 328 343 328 383 366 c 128,-1,12
 423 404 423 404 423 477 c 128,-1,13
 423 550 423 550 392 585.5 c 128,-1,14
 361 621 361 621 294 621 c 0,15,16
 254 621 254 621 216 608 c 1,17,18
 207 514 207 514 207 319 c 128,-1,19
 207 124 207 124 219 35 c 1,20,21
 272 30 272 30 329 16 c 1,22,-1
 326 -8 l 1,23,24
 252 0 252 0 165.5 0 c 128,-1,25
 79 0 79 0 26 -8 c 1,26,-1
 22 17 l 1,27,28
 67 31 67 31 118 38 c 1,29,30
 130 120 130 120 130 317 c 128,-1,31
 130 514 130 514 119 608 c 1,32,33
 71 624 71 624 21 624 c 1,34,-1
 21 649 l 1,0,-1
EndSplineSet
EndChar

StartChar: Q
Encoding: 81 81 52
Width: 602
GlyphClass: 2
Flags: W
LayerCount: 2
Fore
SplineSet
286 -73 m 0,0,1
 223 -73 223 -73 179 -107 c 1,2,-1
 162 -91 l 1,3,4
 204 -47 204 -47 281 -14 c 1,5,6
 172 -7 172 -7 107 69.5 c 128,-1,7
 42 146 42 146 42 275 c 128,-1,8
 42 404 42 404 116.5 518.5 c 128,-1,9
 191 633 191 633 313 666 c 1,10,11
 435 666 435 666 497.5 593 c 128,-1,12
 560 520 560 520 560 388.5 c 128,-1,13
 560 257 560 257 498.5 152.5 c 128,-1,14
 437 48 437 48 326 -4 c 1,15,16
 376 -4 376 -4 475 -48.5 c 128,-1,17
 574 -93 574 -93 601 -99 c 1,18,19
 645 -82 645 -82 687 -58 c 1,20,-1
 698 -75 l 1,21,22
 627 -120 627 -120 583 -202 c 1,23,-1
 555 -182 l 2,24,25
 403 -73 403 -73 286 -73 c 0,0,1
276 594 m 0,26,27
 220 594 220 594 182 560 c 1,28,29
 131 470 131 470 131 339 c 0,30,31
 131 183 131 183 215 101 c 0,32,33
 260 57 260 57 320.5 57 c 128,-1,34
 381 57 381 57 421 92 c 1,35,36
 471 184 471 184 471 310 c 0,37,38
 471 427 471 427 431 506 c 0,39,40
 387 594 387 594 276 594 c 0,26,27
EndSplineSet
EndChar

StartChar: R
Encoding: 82 82 53
Width: 619
GlyphClass: 2
Flags: W
LayerCount: 2
Fore
SplineSet
35 649 m 1,0,-1
 323 658 l 1,1,2
 424 658 424 658 475 625 c 128,-1,3
 526 592 526 592 526 504 c 0,4,5
 526 382 526 382 401 334 c 1,6,-1
 541 38 l 1,7,8
 592 31 592 31 637 17 c 1,9,-1
 633 -8 l 1,10,11
 574 0 574 0 505.5 0 c 128,-1,12
 437 0 437 0 406 -4 c 1,13,-1
 402 10 l 1,14,15
 419 27 419 27 419 67 c 0,16,17
 419 147 419 147 325 322 c 1,18,19
 300 327 300 327 267 327 c 1,20,-1
 270 349 l 1,21,-1
 282 349 l 2,22,23
 354 349 354 349 393 384.5 c 128,-1,24
 432 420 432 420 432 488 c 128,-1,25
 432 556 432 556 401.5 588.5 c 128,-1,26
 371 621 371 621 306 621 c 0,27,28
 266 621 266 621 230 608 c 1,29,30
 221 514 221 514 221 313.5 c 128,-1,31
 221 113 221 113 232 38 c 1,32,33
 283 31 283 31 328 17 c 1,34,-1
 324 -8 l 1,35,36
 271 0 271 0 184.5 0 c 128,-1,37
 98 0 98 0 24 -8 c 1,38,-1
 21 16 l 1,39,40
 78 30 78 30 131 35 c 1,41,42
 144 131 144 131 144 322.5 c 128,-1,43
 144 514 144 514 133 608 c 1,44,45
 85 624 85 624 35 624 c 1,46,-1
 35 649 l 1,0,-1
EndSplineSet
EndChar

StartChar: S
Encoding: 83 83 54
Width: 465
GlyphClass: 2
Flags: W
LayerCount: 2
Fore
SplineSet
114 130 m 1,0,-1
 116 90 l 1,1,-1
 116 87 l 1,2,3
 173 64 173 64 230 64 c 128,-1,4
 287 64 287 64 320.5 90.5 c 128,-1,5
 354 117 354 117 354 168 c 0,6,7
 354 198 354 198 311 235.5 c 128,-1,8
 268 273 268 273 216 303 c 128,-1,9
 164 333 164 333 121 371.5 c 128,-1,10
 78 410 78 410 78 442 c 0,11,12
 78 512 78 512 142.5 577.5 c 128,-1,13
 207 643 207 643 284 666 c 1,14,15
 370 666 370 666 447 649 c 1,16,-1
 447 629 l 1,17,18
 395 581 395 581 389 481 c 1,19,-1
 364 481 l 1,20,21
 364 534 364 534 359 574 c 1,22,23
 316 594 316 594 263.5 594 c 128,-1,24
 211 594 211 594 178 572 c 128,-1,25
 145 550 145 550 145 509 c 0,26,27
 145 479 145 479 188 442 c 128,-1,28
 231 405 231 405 282.5 375.5 c 128,-1,29
 334 346 334 346 377 308 c 128,-1,30
 420 270 420 270 420 238 c 0,31,32
 420 165 420 165 355.5 90 c 128,-1,33
 291 15 291 15 215 -15 c 1,34,35
 136 -15 136 -15 68 3 c 1,36,37
 47 -7 47 -7 26 -27 c 1,38,-1
 11 -13 l 1,39,40
 80 60 80 60 88 180 c 1,41,-1
 113 180 l 1,42,-1
 113 166 l 1,43,-1
 114 130 l 1,0,-1
EndSplineSet
EndChar

StartChar: T
Encoding: 84 84 55
Width: 519
GlyphClass: 2
Flags: W
LayerCount: 2
Fore
SplineSet
352 614 m 0,0,1
 325 614 325 614 308 609 c 1,2,3
 298 541 298 541 298 336 c 128,-1,4
 298 131 298 131 311 35 c 1,5,6
 361 30 361 30 421 16 c 1,7,-1
 418 -8 l 1,8,9
 344 0 344 0 257.5 0 c 128,-1,10
 171 0 171 0 118 -8 c 1,11,-1
 114 17 l 1,12,13
 159 31 159 31 210 38 c 1,14,15
 221 120 221 120 221 296 c 2,16,-1
 221 355 l 2,17,18
 221 458 221 458 208 609 c 1,19,20
 191 614 191 614 149 614 c 128,-1,21
 107 614 107 614 65 596 c 1,22,23
 52 554 52 554 45 484 c 1,24,-1
 20 484 l 1,25,26
 16 591 16 591 -13 642 c 1,27,-1
 -7 662 l 1,28,29
 89 651 89 651 268.5 651 c 128,-1,30
 448 651 448 651 544 662 c 1,31,-1
 548 642 l 1,32,33
 515 607 515 607 503.5 573 c 128,-1,34
 492 539 492 539 489 484 c 1,35,-1
 464 484 l 1,36,37
 455 527 455 527 455 593 c 1,38,39
 412 614 412 614 352 614 c 0,0,1
EndSplineSet
EndChar

StartChar: U
Encoding: 85 85 56
Width: 665
GlyphClass: 2
Flags: W
LayerCount: 2
Fore
SplineSet
197 549 m 0,0,1
 183 423 183 423 183 329.5 c 128,-1,2
 183 236 183 236 186 206.5 c 128,-1,3
 189 177 189 177 198 149 c 128,-1,4
 207 121 207 121 222 103 c 0,5,6
 256 64 256 64 328 64 c 128,-1,7
 400 64 400 64 453 112 c 1,8,9
 458 242 458 242 458 372 c 128,-1,10
 458 502 458 502 447 616 c 1,11,12
 396 623 396 623 351 637 c 1,13,-1
 355 659 l 1,14,15
 416 651 416 651 503.5 651 c 128,-1,16
 591 651 591 651 655 659 c 1,17,-1
 658 638 l 1,18,19
 601 624 601 624 548 619 c 1,20,21
 535 545 535 545 535 355 c 2,22,-1
 535 296 l 2,23,24
 535 109 535 109 548 35 c 1,25,26
 601 30 601 30 658 16 c 1,27,-1
 655 -8 l 1,28,29
 591 0 591 0 525 0 c 128,-1,30
 459 0 459 0 441 -1 c 1,31,-1
 438 13 l 1,32,33
 447 24 447 24 451 84 c 1,34,35
 393 19 393 19 305 -15 c 1,36,37
 194 -15 194 -15 148.5 50.5 c 128,-1,38
 103 116 103 116 103 241 c 0,39,40
 103 298 103 298 110 422 c 128,-1,41
 117 546 117 546 117 569 c 128,-1,42
 117 592 117 592 110 613 c 1,43,44
 59 620 59 620 14 634 c 1,45,-1
 18 659 l 1,46,47
 77 651 77 651 145.5 651 c 128,-1,48
 214 651 214 651 245 655 c 1,49,-1
 249 641 l 1,50,51
 204 616 204 616 197 549 c 0,0,1
EndSplineSet
EndChar

StartChar: V
Encoding: 86 86 57
Width: 599
GlyphClass: 2
Flags: W
LayerCount: 2
Fore
SplineSet
423 -8 m 1,0,1
 364 0 364 0 291.5 0 c 128,-1,2
 219 0 219 0 188 -4 c 1,3,-1
 184 10 l 1,4,5
 196 14 196 14 207 22.5 c 128,-1,6
 218 31 218 31 218 41 c 0,7,8
 218 114 218 114 85 529 c 0,9,10
 67 584 67 584 54 613 c 1,11,12
 -2 620 -2 620 -42 634 c 1,13,-1
 -38 659 l 1,14,15
 15 651 15 651 105.5 651 c 128,-1,16
 196 651 196 651 270 659 c 1,17,-1
 273 635 l 1,18,19
 216 621 216 621 163 616 c 1,20,21
 170 535 170 535 213.5 371.5 c 128,-1,22
 257 208 257 208 307 69 c 1,23,24
 391 255 391 255 419.5 351.5 c 128,-1,25
 448 448 448 448 448 518 c 0,26,27
 448 612 448 612 398 641 c 1,28,-1
 402 655 l 1,29,30
 433 651 433 651 501.5 651 c 128,-1,31
 570 651 570 651 629 659 c 1,32,-1
 633 634 l 1,33,34
 588 620 588 620 537 613 c 1,35,36
 542 578 542 578 542 555 c 0,37,38
 542 467 542 467 498.5 366 c 128,-1,39
 455 265 455 265 331 35 c 1,40,41
 382 28 382 28 427 14 c 1,42,-1
 423 -8 l 1,0,1
EndSplineSet
EndChar

StartChar: W
Encoding: 87 87 58
Width: 906
GlyphClass: 2
Flags: W
LayerCount: 2
Fore
SplineSet
373 -4 m 1,0,1
 325 0 325 0 272 0 c 128,-1,2
 219 0 219 0 188 -4 c 1,3,-1
 184 10 l 1,4,5
 196 14 196 14 207 22.5 c 128,-1,6
 218 31 218 31 218 41 c 0,7,8
 218 114 218 114 85 529 c 0,9,10
 67 584 67 584 54 613 c 1,11,12
 -3 623 -3 623 -42 636 c 1,13,-1
 -38 661 l 1,14,15
 59 651 59 651 285.5 651 c 128,-1,16
 512 651 512 651 609 661 c 1,17,-1
 613 636 l 1,18,19
 569 622 569 622 517 613 c 1,20,21
 522 578 522 578 522 549.5 c 128,-1,22
 522 521 522 521 514 478 c 1,23,24
 552 308 552 308 634 69 c 1,25,26
 708 256 708 256 731.5 352.5 c 128,-1,27
 755 449 755 449 755 518 c 0,28,29
 755 612 755 612 705 641 c 1,30,-1
 709 655 l 1,31,32
 740 651 740 651 808.5 651 c 128,-1,33
 877 651 877 651 936 659 c 1,34,-1
 940 634 l 1,35,36
 895 620 895 620 844 613 c 1,37,38
 849 578 849 578 849 555 c 0,39,40
 849 471 849 471 807.5 362 c 128,-1,41
 766 253 766 253 657 34 c 1,42,43
 674 25 674 25 703 17 c 1,44,-1
 700 -4 l 1,45,46
 652 0 652 0 599 0 c 128,-1,47
 546 0 546 0 515 -4 c 1,48,-1
 511 10 l 1,49,50
 523 14 523 14 534 22.5 c 128,-1,51
 545 31 545 31 545 41 c 0,52,53
 545 100 545 100 474 340 c 1,54,-1
 470 340 l 1,55,56
 423 219 423 219 330 34 c 1,57,58
 347 25 347 25 376 17 c 1,59,-1
 373 -4 l 1,0,1
404.5 352.5 m 128,-1,61
 428 449 428 449 428 517.5 c 128,-1,62
 428 586 428 586 403 606.5 c 128,-1,63
 378 627 378 627 300.5 627 c 128,-1,64
 223 627 223 627 164 609 c 1,65,66
 173 527 173 527 215.5 366 c 128,-1,67
 258 205 258 205 307 69 c 1,68,60
 381 256 381 256 404.5 352.5 c 128,-1,61
EndSplineSet
EndChar

StartChar: X
Encoding: 88 88 59
Width: 645
GlyphClass: 2
Flags: W
LayerCount: 2
Fore
SplineSet
452 609 m 0,0,1
 452 631 452 631 432 641 c 1,2,-1
 436 655 l 1,3,4
 486 651 486 651 541.5 651 c 128,-1,5
 597 651 597 651 649 659 c 1,6,-1
 654 634 l 1,7,8
 606 619 606 619 557 613 c 1,9,10
 504 529 504 529 367 348 c 1,11,-1
 563 38 l 1,12,13
 614 31 614 31 659 17 c 1,14,-1
 655 -8 l 1,15,16
 596 0 596 0 527.5 0 c 128,-1,17
 459 0 459 0 428 -4 c 1,18,-1
 424 10 l 1,19,20
 428 18 428 18 428 32 c 0,21,22
 428 97 428 97 313 286 c 1,23,24
 184 71 184 71 184 35 c 1,25,26
 237 30 237 30 294 16 c 1,27,-1
 291 -8 l 1,28,29
 211 0 211 0 129.5 0 c 128,-1,30
 48 0 48 0 -9 -8 c 1,31,-1
 -14 17 l 1,32,33
 34 32 34 32 83 38 c 1,34,35
 143 133 143 133 287 327 c 1,36,-1
 107 613 l 1,37,38
 56 620 56 620 11 634 c 1,39,-1
 15 659 l 1,40,41
 78 651 78 651 173.5 651 c 128,-1,42
 269 651 269 651 349 659 c 1,43,-1
 352 635 l 1,44,45
 295 621 295 621 242 616 c 1,46,47
 242 554 242 554 342 387 c 1,48,49
 452 567 452 567 452 609 c 0,0,1
EndSplineSet
EndChar

StartChar: Y
Encoding: 89 89 60
Width: 545
GlyphClass: 2
Flags: W
LayerCount: 2
Fore
SplineSet
402 609 m 0,0,1
 402 631 402 631 382 641 c 1,2,-1
 386 655 l 1,3,4
 436 651 436 651 491.5 651 c 128,-1,5
 547 651 547 651 599 659 c 1,6,-1
 604 634 l 1,7,8
 556 619 556 619 507 613 c 1,9,-1
 311 298 l 1,10,11
 311 131 311 131 324 35 c 1,12,13
 377 30 377 30 434 16 c 1,14,-1
 431 -8 l 1,15,16
 357 0 357 0 270.5 0 c 128,-1,17
 184 0 184 0 131 -8 c 1,18,-1
 127 17 l 1,19,20
 172 31 172 31 223 38 c 1,21,22
 234 120 234 120 234 245 c 2,23,-1
 234 271 l 1,24,25
 134 483 134 483 107 537.5 c 128,-1,26
 80 592 80 592 62 613 c 1,27,28
 6 620 6 620 -34 634 c 1,29,-1
 -30 659 l 1,30,31
 23 651 23 651 113.5 651 c 128,-1,32
 204 651 204 651 278 659 c 1,33,-1
 281 635 l 1,34,35
 224 621 224 621 171 616 c 1,36,37
 218 476 218 476 291 337 c 1,38,39
 402 554 402 554 402 609 c 0,0,1
EndSplineSet
EndChar

StartChar: Z
Encoding: 90 90 61
Width: 491
GlyphClass: 2
Flags: W
LayerCount: 2
Fore
SplineSet
169.5 653 m 128,-1,1
 304 640 304 640 362 640 c 128,-1,2
 420 640 420 640 439 647.5 c 128,-1,3
 458 655 458 655 481 676 c 1,4,-1
 502 660 l 1,5,6
 468 627 468 627 423 549 c 2,7,-1
 155 73 l 1,8,-1
 159 70 l 1,9,-1
 303 70 l 2,10,11
 361 70 361 70 386 89 c 1,12,13
 392 127 392 127 392 182 c 1,14,-1
 418 182 l 1,15,16
 425 69 425 69 497 -5 c 1,17,-1
 478 -20 l 1,18,19
 470 -10 470 -10 458 -2 c 1,20,21
 316 21 316 21 119 21 c 0,22,23
 38 21 38 21 6 -17 c 1,24,-1
 -15 0 l 1,25,26
 35 50 35 50 75 118 c 1,27,-1
 359 587 l 1,28,-1
 356 590 l 1,29,-1
 221 590 l 2,30,31
 158 590 158 590 114 571 c 1,32,33
 103 514 103 514 89 480 c 1,34,-1
 65 484 l 1,35,36
 67 522 67 522 67 556.5 c 128,-1,37
 67 591 67 591 58 627 c 1,38,39
 42 636 42 636 11 644 c 1,40,-1
 14 666 l 1,41,0
 35 666 35 666 169.5 653 c 128,-1,1
EndSplineSet
EndChar

StartChar: bracketleft
Encoding: 91 91 62
Width: 326
GlyphClass: 2
Flags: W
LayerCount: 2
Fore
SplineSet
270 -193 m 0,0,1
 162 -193 162 -193 101 -208 c 1,2,-1
 94 -203 l 1,3,4
 104 -134 104 -134 104 248 c 128,-1,5
 104 630 104 630 94 699 c 1,6,-1
 101 704 l 1,7,8
 162 689 162 689 270 689 c 0,9,10
 283 689 283 689 296 689 c 1,11,-1
 296 668 l 1,12,13
 218 666 218 666 164 651 c 1,14,-1
 164 -155 l 1,15,16
 218 -170 218 -170 296 -172 c 1,17,-1
 296 -193 l 1,18,19
 283 -193 283 -193 270 -193 c 0,0,1
EndSplineSet
EndChar

StartChar: backslash
Encoding: 92 92 63
Width: 351
GlyphClass: 2
Flags: W
LayerCount: 2
Fore
SplineSet
282 -45 m 1,0,-1
 277 -45 l 1,1,-1
 99 478 l 2,2,3
 53 615 53 615 21 696 c 1,4,5
 53 707 53 707 69 717 c 1,6,-1
 73 717 l 1,7,8
 99 622 99 622 142 493 c 1,9,-1
 251 175 l 2,10,11
 283 82 283 82 323 -17 c 1,12,13
 309 -33 309 -33 282 -45 c 1,0,-1
EndSplineSet
EndChar

StartChar: bracketright
Encoding: 93 93 64
Width: 326
GlyphClass: 2
Flags: W
LayerCount: 2
Fore
SplineSet
56 689 m 0,0,1
 164 689 164 689 225 704 c 1,2,-1
 232 699 l 1,3,4
 222 630 222 630 222 248 c 128,-1,5
 222 -134 222 -134 232 -203 c 1,6,-1
 225 -208 l 1,7,8
 164 -193 164 -193 56 -193 c 0,9,10
 43 -193 43 -193 30 -193 c 1,11,-1
 30 -172 l 1,12,13
 108 -170 108 -170 162 -155 c 1,14,-1
 162 651 l 1,15,16
 108 666 108 666 30 668 c 1,17,-1
 30 689 l 1,18,19
 43 689 43 689 56 689 c 0,0,1
EndSplineSet
EndChar

StartChar: asciicircum
Encoding: 94 94 65
Width: 518
GlyphClass: 2
Flags: W
LayerCount: 2
Fore
SplineSet
259 580 m 1,0,-1
 79 291 l 1,1,-1
 50 306 l 1,2,3
 142 464 142 464 231 686 c 1,4,-1
 284 696 l 1,5,6
 379 458 379 458 468 306 c 1,7,-1
 439 291 l 1,8,-1
 259 580 l 1,0,-1
EndSplineSet
EndChar

StartChar: underscore
Encoding: 95 95 66
Width: 615
GlyphClass: 2
Flags: W
LayerCount: 2
Fore
SplineSet
5 -134 m 1,0,1
 175 -143 175 -143 374.5 -143 c 128,-1,2
 574 -143 574 -143 613 -140 c 1,3,-1
 619 -146 l 1,4,-1
 611 -185 l 1,5,-1
 5 -185 l 1,6,-1
 -3 -178 l 1,7,-1
 5 -134 l 1,0,1
EndSplineSet
EndChar

StartChar: grave
Encoding: 96 96 67
Width: 200
GlyphClass: 2
Flags: W
LayerCount: 2
Fore
SplineSet
25 693 m 1,0,1
 35 695 35 695 46.5 695 c 128,-1,2
 58 695 58 695 68 694 c 1,3,4
 92 652 92 652 127.5 610 c 128,-1,5
 163 568 163 568 200 543 c 1,6,-1
 189 525 l 1,7,-1
 0 634 l 1,8,9
 1 644 1 644 9.5 664.5 c 128,-1,10
 18 685 18 685 25 693 c 1,0,1
EndSplineSet
EndChar

StartChar: a
Encoding: 97 97 68
Width: 514
GlyphClass: 2
Flags: W
LayerCount: 2
Fore
SplineSet
50 176 m 0,0,1
 50 280 50 280 106 366.5 c 128,-1,2
 162 453 162 453 256 485 c 1,3,4
 323 485 323 485 396 464 c 1,5,6
 410 485 410 485 419 517 c 1,7,-1
 440 511 l 1,8,9
 418 421 418 421 418 193 c 0,10,11
 418 91 418 91 425 33 c 1,12,13
 449 25 449 25 479 25 c 1,14,-1
 479 4 l 1,15,16
 415 1 415 1 344 -15 c 1,17,-1
 337 -11 l 1,18,19
 348 58 348 58 348 145 c 1,20,-1
 344 146 l 1,21,22
 309 96 309 96 261 49 c 128,-1,23
 213 2 213 2 170 -15 c 1,24,25
 115 -15 115 -15 82.5 46 c 128,-1,26
 50 107 50 107 50 176 c 0,0,1
130 221 m 0,27,28
 130 172 130 172 147.5 119.5 c 128,-1,29
 165 67 165 67 198 67 c 0,30,31
 233 67 233 67 283 117 c 128,-1,32
 333 167 333 167 348 207 c 1,33,34
 348 356 348 356 341 399 c 1,35,36
 288 423 288 423 238.5 423 c 128,-1,37
 189 423 189 423 163 399 c 1,38,39
 130 323 130 323 130 221 c 0,27,28
EndSplineSet
EndChar

StartChar: b
Encoding: 98 98 69
Width: 511
GlyphClass: 2
Flags: W
LayerCount: 2
Fore
SplineSet
459 294 m 0,0,1
 459 190 459 190 403 103.5 c 128,-1,2
 347 17 347 17 253 -15 c 1,3,4
 157 -15 157 -15 78 21 c 1,5,6
 91 137 91 137 91 388 c 128,-1,7
 91 639 91 639 67 734 c 1,8,-1
 88 740 l 1,9,10
 97 708 97 708 111 687 c 1,11,12
 166 696 166 696 218 711 c 1,13,-1
 223 693 l 1,14,15
 204 678 204 678 176 664 c 1,16,17
 161 582 161 582 161 325 c 1,18,-1
 165 324 l 1,19,20
 200 374 200 374 248 421 c 128,-1,21
 296 468 296 468 339 485 c 1,22,23
 394 485 394 485 426.5 424 c 128,-1,24
 459 363 459 363 459 294 c 0,0,1
379 249 m 0,25,26
 379 298 379 298 361.5 350.5 c 128,-1,27
 344 403 344 403 311 403 c 0,28,29
 276 403 276 403 226 353 c 128,-1,30
 176 303 176 303 161 263 c 1,31,32
 161 114 161 114 168 71 c 1,33,34
 221 47 221 47 270.5 47 c 128,-1,35
 320 47 320 47 346 71 c 1,36,37
 379 147 379 147 379 249 c 0,25,26
EndSplineSet
EndChar

StartChar: c
Encoding: 99 99 70
Width: 387
GlyphClass: 2
Flags: W
LayerCount: 2
Fore
SplineSet
238 57 m 0,0,1
 293 57 293 57 352 110 c 1,2,-1
 362 100 l 1,3,4
 304 19 304 19 221 -15 c 1,5,6
 134 -15 134 -15 92 40 c 128,-1,7
 50 95 50 95 50 194 c 128,-1,8
 50 293 50 293 106 377 c 128,-1,9
 162 461 162 461 252 485 c 1,10,11
 313 485 313 485 373 469 c 1,12,-1
 373 455 l 1,13,14
 334 407 334 407 330 350 c 1,15,-1
 308 350 l 1,16,17
 308 389 308 389 306 411 c 1,18,19
 265 423 265 423 225 423 c 128,-1,20
 185 423 185 423 159 399 c 1,21,22
 130 338 130 338 130 245 c 0,23,24
 130 105 130 105 181 72 c 0,25,26
 204 57 204 57 238 57 c 0,0,1
EndSplineSet
EndChar

StartChar: d
Encoding: 100 100 71
Width: 514
GlyphClass: 2
Flags: W
LayerCount: 2
Fore
SplineSet
50 176 m 0,0,1
 50 280 50 280 106 366.5 c 128,-1,2
 162 453 162 453 256 485 c 1,3,4
 310 485 310 485 354 475 c 1,5,6
 354 605 354 605 347 663 c 1,7,8
 323 671 323 671 293 671 c 1,9,-1
 293 692 l 1,10,11
 357 695 357 695 428 711 c 1,12,-1
 435 706 l 1,13,14
 418 608 418 608 418 376 c 2,15,-1
 418 193 l 2,16,17
 418 91 418 91 425 33 c 1,18,19
 449 25 449 25 479 25 c 1,20,-1
 479 4 l 1,21,22
 415 1 415 1 344 -15 c 1,23,-1
 337 -11 l 1,24,25
 348 58 348 58 348 145 c 1,26,-1
 344 146 l 1,27,28
 309 96 309 96 261 49 c 128,-1,29
 213 2 213 2 170 -15 c 1,30,31
 115 -15 115 -15 82.5 46 c 128,-1,32
 50 107 50 107 50 176 c 0,0,1
130 221 m 0,33,34
 130 171 130 171 147.5 119 c 128,-1,35
 165 67 165 67 198 67 c 0,36,37
 233 67 233 67 283 117 c 128,-1,38
 333 167 333 167 348 207 c 1,39,40
 348 356 348 356 341 399 c 1,41,42
 288 423 288 423 238.5 423 c 128,-1,43
 189 423 189 423 163 399 c 1,44,45
 130 323 130 323 130 221 c 0,33,34
EndSplineSet
EndChar

StartChar: e
Encoding: 101 101 72
Width: 426
GlyphClass: 2
Flags: W
LayerCount: 2
Fore
SplineSet
238 57 m 0,0,1
 301 57 301 57 361 110 c 1,2,-1
 372 100 l 1,3,4
 315 22 315 22 226 -15 c 1,5,6
 138 -15 138 -15 94 40 c 128,-1,7
 50 95 50 95 50 193 c 128,-1,8
 50 291 50 291 105 375.5 c 128,-1,9
 160 460 160 460 252 485 c 1,10,11
 319 485 319 485 346 458.5 c 128,-1,12
 373 432 373 432 373 365 c 0,13,14
 373 327 373 327 363 300 c 1,15,16
 384 292 384 292 412 292 c 1,17,-1
 411 271 l 1,18,19
 405 271 405 271 398 271 c 0,20,21
 286 271 286 271 130 238 c 1,22,23
 130 105 130 105 182 72 c 0,24,25
 204 57 204 57 238 57 c 0,0,1
280.5 397 m 128,-1,27
 268 423 268 423 228 423 c 128,-1,28
 188 423 188 423 159 399 c 1,29,30
 132 343 132 343 130 264 c 1,31,32
 212 291 212 291 293 305 c 1,33,26
 293 371 293 371 280.5 397 c 128,-1,27
EndSplineSet
EndChar

StartChar: f
Encoding: 102 102 73
Width: 325
GlyphClass: 2
Flags: W
LayerCount: 2
Fore
SplineSet
177 428 m 1,0,-1
 177 230 l 2,1,2
 177 96 177 96 189 -60 c 1,3,4
 175 -58 175 -58 166.5 -58 c 128,-1,5
 158 -58 158 -58 154 -58 c 1,6,7
 124 -113 124 -113 109 -200 c 1,8,-1
 91 -199 l 1,9,10
 103 17 103 17 103 230 c 2,11,-1
 103 429 l 1,12,-1
 49 429 l 1,13,-1
 47 431 l 1,14,15
 47 447 47 447 50 453 c 1,16,17
 63 458 63 458 103 470 c 1,18,19
 113 548 113 548 167 615 c 128,-1,20
 221 682 221 682 295 711 c 1,21,22
 339 711 339 711 385 695 c 1,23,-1
 385 681 l 1,24,25
 347 634 347 634 342 566 c 1,26,-1
 320 566 l 1,27,28
 320 605 320 605 318 627 c 1,29,30
 299 639 299 639 261.5 639 c 128,-1,31
 224 639 224 639 199 615 c 1,32,33
 178 559 178 559 178 471 c 1,34,-1
 320 476 l 1,35,-1
 324 472 l 1,36,37
 317 454 317 454 311 425 c 1,38,39
 260 428 260 428 177 428 c 1,0,-1
EndSplineSet
EndChar

StartChar: g
Encoding: 103 103 74
Width: 503
GlyphClass: 2
Flags: W
LayerCount: 2
Fore
SplineSet
53 185 m 0,0,1
 53 287 53 287 107 370.5 c 128,-1,2
 161 454 161 454 254 485 c 1,3,4
 321 485 321 485 394 464 c 1,5,6
 438 473 438 473 471 483 c 1,7,-1
 476 465 l 1,8,9
 457 450 457 450 429 436 c 1,10,11
 416 315 416 315 416 178.5 c 128,-1,12
 416 42 416 42 423 -34 c 1,13,14
 401 -89 401 -89 340 -142.5 c 128,-1,15
 279 -196 279 -196 219 -215 c 1,16,17
 126 -215 126 -215 41 -184 c 1,18,-1
 41 -165 l 1,19,20
 60 -98 60 -98 153 2 c 1,21,-1
 153 6 l 1,22,23
 107 19 107 19 80 73.5 c 128,-1,24
 53 128 53 128 53 185 c 0,0,1
133 229 m 0,25,26
 133 182 133 182 150.5 132 c 128,-1,27
 168 82 168 82 200.5 82 c 128,-1,28
 233 82 233 82 281.5 134.5 c 128,-1,29
 330 187 330 187 346 226 c 1,30,31
 346 357 346 357 339 399 c 1,32,33
 286 423 286 423 238 423 c 128,-1,34
 190 423 190 423 163 399 c 1,35,36
 133 326 133 326 133 229 c 0,25,26
243 -153 m 0,37,38
 287 -153 287 -153 312 -129 c 1,39,40
 335 -69 335 -69 340.5 -13 c 128,-1,41
 346 43 346 43 346 170 c 1,42,-1
 342 171 l 1,43,44
 315 114 315 114 244 52 c 0,45,46
 216 28 216 28 190 2 c 0,47,48
 127 -61 127 -61 120 -125 c 1,49,50
 175 -153 175 -153 243 -153 c 0,37,38
EndSplineSet
EndChar

StartChar: h
Encoding: 104 104 75
Width: 542
GlyphClass: 2
Flags: W
LayerCount: 2
Fore
SplineSet
385 291 m 0,0,1
 385 403 385 403 339 403 c 0,2,3
 300 403 300 403 247 354 c 128,-1,4
 194 305 194 305 176 263 c 1,5,6
 176 118 176 118 187 30 c 1,7,8
 214 24 214 24 250 11 c 1,9,-1
 248 -8 l 1,10,11
 192 0 192 0 142 0 c 128,-1,12
 92 0 92 0 41 -6 c 1,13,-1
 38 13 l 1,14,15
 68 26 68 26 97 33 c 1,16,17
 106 101 106 101 106 190 c 2,18,-1
 106 376 l 2,19,20
 106 639 106 639 82 734 c 1,21,-1
 103 740 l 1,22,23
 112 708 112 708 126 687 c 1,24,25
 181 696 181 696 233 711 c 1,26,-1
 238 693 l 1,27,28
 219 678 219 678 191 664 c 1,29,30
 176 582 176 582 176 325 c 1,31,-1
 180 324 l 1,32,33
 214 371 214 371 268.5 420.5 c 128,-1,34
 323 470 323 470 367 485 c 1,35,36
 428 485 428 485 446 430 c 0,37,38
 458 391 458 391 458 334 c 0,39,40
 458 325 458 325 458 314 c 2,41,-1
 453 33 l 1,42,43
 477 25 477 25 507 25 c 1,44,-1
 507 4 l 1,45,46
 443 1 443 1 372 -15 c 1,47,-1
 365 -11 l 1,48,49
 381 86 381 86 384 269 c 0,50,51
 385 279 385 279 385 291 c 0,0,1
EndSplineSet
EndChar

StartChar: i
Encoding: 105 105 76
Width: 287
GlyphClass: 2
Flags: W
LayerCount: 2
Fore
SplineSet
190 274 m 2,0,-1
 190 190 l 2,1,2
 190 82 190 82 197 30 c 1,3,4
 225 24 225 24 260 11 c 1,5,-1
 258 -8 l 1,6,7
 202 0 202 0 152 0 c 128,-1,8
 102 0 102 0 51 -6 c 1,9,-1
 48 13 l 1,10,11
 78 26 78 26 107 33 c 1,12,13
 116 101 116 101 116 190 c 2,14,-1
 116 274 l 2,15,16
 116 355 116 355 108 436 c 1,17,18
 82 444 82 444 54 444 c 1,19,-1
 54 465 l 1,20,21
 131 470 131 470 196 485 c 1,22,-1
 203 481 l 1,23,24
 190 404 190 404 190 274 c 2,0,-1
208 620 m 1,25,26
 201 607 201 607 183.5 587 c 128,-1,27
 166 567 166 567 154 559 c 1,28,29
 142 567 142 567 124.5 587 c 128,-1,30
 107 607 107 607 100 620 c 1,31,32
 106 632 106 632 123 647.5 c 128,-1,33
 140 663 140 663 154 670 c 1,34,35
 167 662 167 662 184 646.5 c 128,-1,36
 201 631 201 631 208 620 c 1,25,26
EndSplineSet
EndChar

StartChar: j
Encoding: 106 106 77
Width: 291
GlyphClass: 2
Flags: W
LayerCount: 2
Fore
SplineSet
113 53 m 2,0,-1
 113 190 l 2,1,2
 113 355 113 355 105 436 c 1,3,4
 79 444 79 444 51 444 c 1,5,-1
 51 465 l 1,6,7
 128 470 128 470 193 485 c 1,8,-1
 200 481 l 1,9,10
 185 393 185 393 185 234.5 c 128,-1,11
 185 76 185 76 192 0 c 1,12,13
 160 -109 160 -109 32 -215 c 1,14,-1
 17 -200 l 1,15,16
 113 -83 113 -83 113 53 c 2,0,-1
206 620 m 1,17,18
 199 607 199 607 181.5 587 c 128,-1,19
 164 567 164 567 152 559 c 1,20,21
 140 567 140 567 122.5 587 c 128,-1,22
 105 607 105 607 98 620 c 1,23,24
 104 632 104 632 121 647.5 c 128,-1,25
 138 663 138 663 152 670 c 1,26,27
 165 662 165 662 182 646.5 c 128,-1,28
 199 631 199 631 206 620 c 1,17,18
EndSplineSet
EndChar

StartChar: k
Encoding: 107 107 78
Width: 515
GlyphClass: 2
Flags: W
LayerCount: 2
Fore
SplineSet
253 -8 m 1,0,1
 197 0 197 0 147 0 c 128,-1,2
 97 0 97 0 46 -6 c 1,3,-1
 43 13 l 1,4,5
 73 26 73 26 102 33 c 1,6,7
 111 101 111 101 111 230 c 2,8,-1
 111 417 l 2,9,10
 111 568 111 568 103 649 c 1,11,12
 77 657 77 657 49 657 c 1,13,-1
 49 678 l 1,14,15
 148 685 148 685 239 711 c 1,16,-1
 244 693 l 1,17,18
 225 678 225 678 197 664 c 1,19,20
 181 576 181 576 181 326 c 1,21,-1
 185 324 l 1,22,23
 220 374 220 374 270 421.5 c 128,-1,24
 320 469 320 469 364 485 c 1,25,26
 400 476 400 476 422 443 c 128,-1,27
 444 410 444 410 444 371 c 0,28,29
 444 271 444 271 344 228 c 1,30,-1
 374 164 l 2,31,32
 384 143 384 143 394.5 119 c 128,-1,33
 405 95 405 95 410 83 c 0,34,35
 424 54 424 54 437 37 c 1,36,37
 437 35 437 35 458.5 32 c 128,-1,38
 480 29 480 29 491 29 c 1,39,-1
 491 8 l 1,40,41
 422 5 422 5 349 -12 c 1,42,-1
 340 -7 l 1,43,44
 340 63 340 63 283 211 c 1,45,46
 259 209 259 209 247 209 c 1,47,-1
 247 230 l 1,48,49
 301 233 301 233 332.5 261.5 c 128,-1,50
 364 290 364 290 364 341 c 0,51,52
 364 358 364 358 356.5 381.5 c 128,-1,53
 349 405 349 405 337 413 c 1,54,55
 298 406 298 406 248.5 355.5 c 128,-1,56
 199 305 199 305 181 263 c 1,57,58
 181 118 181 118 192 30 c 1,59,60
 220 24 220 24 255 11 c 1,61,-1
 253 -8 l 1,0,1
EndSplineSet
EndChar

StartChar: l
Encoding: 108 108 79
Width: 298
GlyphClass: 2
Flags: W
LayerCount: 2
Fore
SplineSet
186 230 m 2,0,1
 186 201 186 201 186 138.5 c 128,-1,2
 186 76 186 76 192 30 c 1,3,4
 220 24 220 24 255 11 c 1,5,-1
 253 -8 l 1,6,7
 197 0 197 0 147 0 c 128,-1,8
 97 0 97 0 46 -6 c 1,9,-1
 43 13 l 1,10,11
 73 26 73 26 102 33 c 1,12,13
 111 97 111 97 112 230 c 2,14,-1
 114 417 l 2,15,16
 114 443 114 443 114 510.5 c 128,-1,17
 114 578 114 578 107 649 c 1,18,19
 81 657 81 657 53 657 c 1,20,-1
 53 678 l 1,21,22
 153 685 153 685 244 711 c 1,23,-1
 249 693 l 1,24,25
 230 678 230 678 202 664 c 1,26,27
 190 598 190 598 188 417 c 2,28,-1
 186 230 l 2,0,1
EndSplineSet
EndChar

StartChar: m
Encoding: 109 109 80
Width: 809
GlyphClass: 2
Flags: W
LayerCount: 2
Fore
SplineSet
771 -6 m 1,0,1
 723 0 723 0 689.5 0 c 128,-1,2
 656 0 656 0 628 -2 c 1,3,-1
 628 12 l 1,4,5
 643 90 643 90 647 269 c 0,6,7
 647 277 647 277 647 285 c 0,8,9
 647 403 647 403 605 403 c 0,10,11
 569 403 569 403 517 354 c 128,-1,12
 465 305 465 305 447 263 c 1,13,-1
 443 31 l 1,14,15
 477 24 477 24 512 11 c 1,16,-1
 510 -8 l 1,17,18
 454 0 454 0 419 0 c 128,-1,19
 384 0 384 0 356 -2 c 1,20,-1
 356 12 l 1,21,22
 371 90 371 90 375 269 c 0,23,24
 375 277 375 277 375 285 c 0,25,26
 375 403 375 403 333 403 c 0,27,28
 297 403 297 403 245.5 354 c 128,-1,29
 194 305 194 305 176 263 c 1,30,31
 176 118 176 118 187 30 c 1,32,33
 214 24 214 24 250 11 c 1,34,-1
 248 -8 l 1,35,36
 192 0 192 0 142 0 c 128,-1,37
 92 0 92 0 41 -6 c 1,38,-1
 38 13 l 1,39,40
 68 26 68 26 97 33 c 1,41,42
 106 101 106 101 106 190 c 2,43,-1
 106 274 l 2,44,45
 106 366 106 366 99 437 c 1,46,47
 75 445 75 445 45 445 c 1,48,-1
 45 466 l 1,49,50
 109 469 109 469 180 485 c 1,51,-1
 187 481 l 1,52,53
 176 412 176 412 176 325 c 1,54,-1
 180 324 l 1,55,56
 212 371 212 371 264 420.5 c 128,-1,57
 316 470 316 470 358 485 c 1,58,59
 448 485 448 485 448 325 c 1,60,-1
 452 324 l 1,61,62
 484 371 484 371 536 420.5 c 128,-1,63
 588 470 588 470 630 485 c 1,64,65
 720 485 720 485 720 328 c 0,66,67
 720 321 720 321 720 314 c 2,68,-1
 715 33 l 1,69,70
 744 26 744 26 774 13 c 1,71,-1
 771 -6 l 1,0,1
EndSplineSet
EndChar

StartChar: n
Encoding: 110 110 81
Width: 547
GlyphClass: 2
Flags: W
LayerCount: 2
Fore
SplineSet
385 291 m 0,0,1
 385 403 385 403 339 403 c 0,2,3
 300 403 300 403 247 354 c 128,-1,4
 194 305 194 305 176 263 c 1,5,6
 176 118 176 118 187 30 c 1,7,8
 214 24 214 24 250 11 c 1,9,-1
 248 -8 l 1,10,11
 192 0 192 0 142 0 c 128,-1,12
 92 0 92 0 41 -6 c 1,13,-1
 38 13 l 1,14,15
 68 26 68 26 97 33 c 1,16,17
 106 101 106 101 106 190 c 2,18,-1
 106 274 l 2,19,20
 106 366 106 366 99 437 c 1,21,22
 75 445 75 445 45 445 c 1,23,-1
 45 466 l 1,24,25
 109 469 109 469 180 485 c 1,26,-1
 187 481 l 1,27,28
 176 412 176 412 176 325 c 1,29,-1
 180 324 l 1,30,31
 214 371 214 371 268.5 420.5 c 128,-1,32
 323 470 323 470 367 485 c 1,33,34
 428 485 428 485 446 430 c 0,35,36
 458 391 458 391 458 334 c 0,37,38
 458 325 458 325 458 314 c 2,39,-1
 453 33 l 1,40,41
 482 26 482 26 512 13 c 1,42,-1
 509 -6 l 1,43,44
 461 0 461 0 427.5 0 c 128,-1,45
 394 0 394 0 364 -2 c 1,46,-1
 364 12 l 1,47,48
 380 90 380 90 384 269 c 0,49,50
 385 279 385 279 385 291 c 0,0,1
EndSplineSet
EndChar

StartChar: o
Encoding: 111 111 82
Width: 488
GlyphClass: 2
Flags: W
LayerCount: 2
Fore
SplineSet
101 43.5 m 128,-1,1
 45 102 45 102 45 197 c 128,-1,2
 45 292 45 292 102.5 376.5 c 128,-1,3
 160 461 160 461 254 485 c 1,4,5
 347 485 347 485 395 431 c 128,-1,6
 443 377 443 377 443 282 c 128,-1,7
 443 187 443 187 387 103 c 128,-1,8
 331 19 331 19 244 -15 c 1,9,0
 157 -15 157 -15 101 43.5 c 128,-1,1
227 423 m 0,10,11
 185 423 185 423 158 399 c 1,12,13
 125 336 125 336 125 254 c 128,-1,14
 125 172 125 172 162 109.5 c 128,-1,15
 199 47 199 47 261 47 c 0,16,17
 303 47 303 47 331 72 c 1,18,19
 363 133 363 133 363 220.5 c 128,-1,20
 363 308 363 308 329.5 365.5 c 128,-1,21
 296 423 296 423 227 423 c 0,10,11
EndSplineSet
EndChar

StartChar: p
Encoding: 112 112 83
Width: 513
GlyphClass: 2
Flags: W
LayerCount: 2
Fore
SplineSet
463 294 m 0,0,1
 463 190 463 190 407 103.5 c 128,-1,2
 351 17 351 17 257 -15 c 1,3,4
 203 -15 203 -15 159 -5 c 1,5,6
 159 -114 159 -114 166 -166 c 1,7,8
 211 -177 211 -177 245 -192 c 1,9,-1
 242 -212 l 1,10,11
 180 -200 180 -200 137.5 -200 c 128,-1,12
 95 -200 95 -200 38 -205 c 1,13,-1
 34 -185 l 1,14,15
 64 -178 64 -178 85 -167 c 1,16,17
 95 -81 95 -81 95 114 c 2,18,-1
 95 277 l 2,19,20
 95 379 95 379 88 437 c 1,21,22
 64 445 64 445 34 445 c 1,23,-1
 34 466 l 1,24,25
 98 469 98 469 169 485 c 1,26,-1
 176 481 l 1,27,28
 165 412 165 412 165 325 c 1,29,-1
 169 324 l 1,30,31
 204 374 204 374 252 421 c 128,-1,32
 300 468 300 468 343 485 c 1,33,34
 398 485 398 485 430.5 424 c 128,-1,35
 463 363 463 363 463 294 c 0,0,1
383 249 m 0,36,37
 383 298 383 298 365.5 350.5 c 128,-1,38
 348 403 348 403 315 403 c 0,39,40
 280 403 280 403 230 353 c 128,-1,41
 180 303 180 303 165 263 c 1,42,43
 165 114 165 114 172 71 c 1,44,45
 225 47 225 47 274.5 47 c 128,-1,46
 324 47 324 47 350 71 c 1,47,48
 383 147 383 147 383 249 c 0,36,37
EndSplineSet
EndChar

StartChar: q
Encoding: 113 113 84
Width: 516
GlyphClass: 2
Flags: W
LayerCount: 2
Fore
SplineSet
50 176 m 0,0,1
 50 280 50 280 106 366.5 c 128,-1,2
 162 453 162 453 256 485 c 1,3,4
 323 485 323 485 396 464 c 1,5,6
 440 473 440 473 473 483 c 1,7,-1
 478 465 l 1,8,9
 459 450 459 450 431 436 c 1,10,11
 418 332 418 332 418 116.5 c 128,-1,12
 418 -99 418 -99 426 -163 c 1,13,14
 459 -169 459 -169 480 -175 c 1,15,-1
 482 -194 l 1,16,17
 386 -200 386 -200 284 -227 c 1,18,-1
 277 -207 l 1,19,20
 324 -192 324 -192 337 -178 c 1,21,22
 347 -84 347 -84 348 145 c 1,23,-1
 344 146 l 1,24,25
 309 96 309 96 261 49 c 128,-1,26
 213 2 213 2 170 -15 c 1,27,28
 115 -15 115 -15 82.5 46 c 128,-1,29
 50 107 50 107 50 176 c 0,0,1
130 221 m 0,30,31
 130 172 130 172 147.5 119.5 c 128,-1,32
 165 67 165 67 198 67 c 0,33,34
 233 67 233 67 283 117 c 128,-1,35
 333 167 333 167 348 207 c 1,36,37
 348 356 348 356 341 399 c 1,38,39
 288 423 288 423 238.5 423 c 128,-1,40
 189 423 189 423 163 399 c 1,41,42
 130 323 130 323 130 221 c 0,30,31
EndSplineSet
EndChar

StartChar: r
Encoding: 114 114 85
Width: 381
GlyphClass: 2
Flags: W
LayerCount: 2
Fore
SplineSet
269 -8 m 1,0,1
 218 0 218 0 158 0 c 128,-1,2
 98 0 98 0 41 -6 c 1,3,-1
 38 13 l 1,4,5
 68 26 68 26 97 33 c 1,6,7
 106 101 106 101 106 190 c 2,8,-1
 106 274 l 2,9,10
 106 366 106 366 99 437 c 1,11,12
 75 445 75 445 45 445 c 1,13,-1
 45 466 l 1,14,15
 109 469 109 469 180 485 c 1,16,-1
 187 481 l 1,17,18
 176 412 176 412 176 325 c 1,19,-1
 180 324 l 1,20,21
 194 364 194 364 231.5 416.5 c 128,-1,22
 269 469 269 469 301 485 c 1,23,24
 346 485 346 485 389 469 c 1,25,-1
 389 455 l 1,26,27
 351 407 351 407 346 330 c 1,28,-1
 324 330 l 1,29,30
 324 369 324 369 322 391 c 1,31,32
 309 401 309 401 288 401 c 0,33,34
 258 401 258 401 224.5 353.5 c 128,-1,35
 191 306 191 306 176 263 c 1,36,37
 176 118 176 118 187 30 c 1,38,39
 237 23 237 23 271 11 c 1,40,-1
 269 -8 l 1,0,1
EndSplineSet
EndChar

StartChar: s
Encoding: 115 115 86
Width: 391
GlyphClass: 2
Flags: W
LayerCount: 2
Fore
SplineSet
93 110 m 2,0,-1
 95 68 l 1,1,-1
 95 64 l 1,2,3
 141 47 141 47 182 47 c 128,-1,4
 223 47 223 47 250.5 65 c 128,-1,5
 278 83 278 83 278 125 c 0,6,7
 278 156 278 156 173 210 c 0,8,9
 134 230 134 230 101 258.5 c 128,-1,10
 68 287 68 287 68 314 c 0,11,12
 68 367 68 367 124.5 420.5 c 128,-1,13
 181 474 181 474 231 485 c 1,14,15
 295 485 295 485 355 469 c 1,16,-1
 355 455 l 1,17,18
 316 407 316 407 312 350 c 1,19,-1
 290 350 l 1,20,21
 290 389 290 389 288 411 c 1,22,23
 249 423 249 423 214 423 c 128,-1,24
 179 423 179 423 151.5 409.5 c 128,-1,25
 124 396 124 396 124 366 c 0,26,27
 124 348 124 348 157 324 c 128,-1,28
 190 300 190 300 229 280.5 c 128,-1,29
 268 261 268 261 301 232 c 128,-1,30
 334 203 334 203 334 176 c 0,31,32
 334 115 334 115 278.5 58.5 c 128,-1,33
 223 2 223 2 166 -15 c 1,34,35
 94 -15 94 -15 28 6 c 1,36,-1
 28 20 l 1,37,38
 67 68 67 68 71 125 c 1,39,-1
 93 125 l 1,40,41
 93 125 93 125 93 110 c 2,0,-1
EndSplineSet
EndChar

StartChar: t
Encoding: 116 116 87
Width: 344
GlyphClass: 2
Flags: W
LayerCount: 2
Fore
SplineSet
170 195 m 0,0,1
 170 57 170 57 200 57 c 0,2,3
 255 57 255 57 314 110 c 1,4,-1
 324 100 l 1,5,6
 266 19 266 19 183 -15 c 1,7,8
 126 -15 126 -15 110 37 c 0,9,10
 96 81 96 81 96 189 c 0,11,12
 96 208 96 208 96 230 c 2,13,-1
 100 429 l 1,14,-1
 46 429 l 1,15,-1
 44 431 l 1,16,17
 44 447 44 447 47 453 c 1,18,19
 131 508 131 508 157 567 c 1,20,21
 169 570 169 570 185 570 c 1,22,-1
 189 568 l 1,23,24
 179 508 179 508 177 471 c 1,25,-1
 317 476 l 1,26,-1
 321 472 l 1,27,28
 314 454 314 454 308 425 c 1,29,30
 257 428 257 428 174 428 c 1,31,-1
 170 230 l 2,32,33
 170 212 170 212 170 195 c 0,0,1
EndSplineSet
EndChar

StartChar: u
Encoding: 117 117 88
Width: 542
GlyphClass: 2
Flags: W
LayerCount: 2
Fore
SplineSet
157 179 m 0,0,1
 157 67 157 67 203 67 c 0,2,3
 242 67 242 67 295 116 c 128,-1,4
 348 165 348 165 366 207 c 1,5,6
 366 352 366 352 355 440 c 1,7,8
 328 446 328 446 292 459 c 1,9,-1
 294 478 l 1,10,11
 350 470 350 470 400 470 c 128,-1,12
 450 470 450 470 501 476 c 1,13,-1
 504 457 l 1,14,15
 474 444 474 444 445 437 c 1,16,17
 436 369 436 369 436 280 c 2,18,-1
 436 196 l 2,19,20
 436 104 436 104 443 33 c 1,21,22
 467 25 467 25 497 25 c 1,23,-1
 497 4 l 1,24,25
 433 1 433 1 362 -15 c 1,26,-1
 355 -13 l 1,27,28
 366 56 366 56 366 145 c 1,29,-1
 362 146 l 1,30,31
 328 99 328 99 273.5 49.5 c 128,-1,32
 219 0 219 0 175 -15 c 1,33,34
 114 -15 114 -15 96 40 c 0,35,36
 84 79 84 79 84 136 c 0,37,38
 84 145 84 145 84 156 c 2,39,-1
 89 437 l 1,40,41
 65 445 65 445 35 445 c 1,42,-1
 35 466 l 1,43,44
 99 469 99 469 170 485 c 1,45,-1
 177 481 l 1,46,47
 161 384 161 384 158 201 c 0,48,49
 157 191 157 191 157 179 c 0,0,1
EndSplineSet
EndChar

StartChar: v
Encoding: 118 118 89
Width: 479
GlyphClass: 2
Flags: W
LayerCount: 2
Fore
SplineSet
443 395 m 0,0,1
 443 301 443 301 390 192.5 c 128,-1,2
 337 84 337 84 263 8 c 1,3,4
 236 -5 236 -5 204 -15 c 1,5,6
 160 -5 160 -5 124 158 c 0,7,8
 109 229 109 229 95 315.5 c 128,-1,9
 81 402 81 402 72 436 c 1,10,11
 48 444 48 444 18 444 c 1,12,-1
 18 465 l 1,13,14
 85 468 85 468 160 485 c 1,15,-1
 167 481 l 1,16,17
 159 453 159 453 159 418.5 c 128,-1,18
 159 384 159 384 173.5 296.5 c 128,-1,19
 188 209 188 209 205.5 142.5 c 128,-1,20
 223 76 223 76 232.5 61 c 128,-1,21
 242 46 242 46 253 46 c 1,22,23
 310 116 310 116 336.5 185.5 c 128,-1,24
 363 255 363 255 363 342 c 0,25,26
 363 392 363 392 342 434 c 1,27,28
 313 443 313 443 286 443 c 1,29,-1
 287 464 l 1,30,31
 389 468 389 468 479 491 c 1,32,-1
 483 473 l 1,33,34
 470 463 470 463 435 445 c 1,35,36
 443 419 443 419 443 395 c 0,0,1
EndSplineSet
EndChar

StartChar: w
Encoding: 119 119 90
Width: 728
GlyphClass: 2
Flags: W
LayerCount: 2
Fore
SplineSet
688 395 m 0,0,1
 688 301 688 301 637 192.5 c 128,-1,2
 586 84 586 84 515 8 c 1,3,4
 490 -5 490 -5 459 -15 c 1,5,6
 413 -4 413 -4 376 188 c 1,7,8
 329 87 329 87 256 8 c 1,9,10
 231 -5 231 -5 200 -15 c 1,11,12
 183 -11 183 -11 168.5 13 c 128,-1,13
 154 37 154 37 133.5 116.5 c 128,-1,14
 113 196 113 196 97 299 c 128,-1,15
 81 402 81 402 72 436 c 1,16,17
 48 444 48 444 18 444 c 1,18,-1
 18 465 l 1,19,20
 85 468 85 468 160 485 c 1,21,-1
 167 481 l 1,22,23
 159 453 159 453 159 418.5 c 128,-1,24
 159 384 159 384 173 296.5 c 128,-1,25
 187 209 187 209 203 142.5 c 128,-1,26
 219 76 219 76 228 61 c 128,-1,27
 237 46 237 46 247 46 c 1,28,29
 300 116 300 116 324.5 185.5 c 128,-1,30
 349 255 349 255 349 327 c 128,-1,31
 349 399 349 399 331 436 c 1,32,33
 307 444 307 444 277 444 c 1,34,-1
 277 465 l 1,35,36
 336 461 336 461 423 461 c 0,37,38
 604 461 604 461 724 491 c 1,39,-1
 728 473 l 1,40,41
 715 463 715 463 680 445 c 1,42,43
 688 419 688 419 688 395 c 0,0,1
531 443 m 0,44,45
 450 443 450 443 418 423 c 1,46,47
 418 384 418 384 432 296.5 c 128,-1,48
 446 209 446 209 462 142.5 c 128,-1,49
 478 76 478 76 487 61 c 128,-1,50
 496 46 496 46 506 46 c 1,51,52
 559 116 559 116 583.5 185.5 c 128,-1,53
 608 255 608 255 608 342 c 0,54,55
 608 392 608 392 587 434 c 1,56,57
 558 443 558 443 531 443 c 0,44,45
EndSplineSet
EndChar

StartChar: x
Encoding: 120 120 91
Width: 490
GlyphClass: 2
Flags: W
LayerCount: 2
Fore
SplineSet
405 330 m 1,0,1
 405 369 405 369 403 391 c 1,2,3
 390 401 390 401 368.5 401 c 128,-1,4
 347 401 347 401 296 304 c 2,5,-1
 276 266 l 1,6,-1
 334 164 l 2,7,8
 388 69 388 69 416 33 c 1,9,10
 416 31 416 31 437.5 28 c 128,-1,11
 459 25 459 25 470 25 c 1,12,-1
 470 4 l 1,13,14
 407 1 407 1 337 -15 c 1,15,-1
 329 -13 l 1,16,17
 329 15 329 15 269 125 c 1,18,-1
 233 189 l 1,19,20
 209 133 209 133 167.5 66 c 128,-1,21
 126 -1 126 -1 98 -15 c 1,22,23
 53 -15 53 -15 10 1 c 1,24,-1
 10 15 l 1,25,26
 48 63 48 63 53 140 c 1,27,-1
 75 140 l 1,28,29
 75 101 75 101 77 79 c 1,30,31
 90 69 90 69 111.5 69 c 128,-1,32
 133 69 133 69 196 189 c 1,33,-1
 214 224 l 1,34,-1
 172 300 l 1,35,36
 134 365 134 365 85 436 c 1,37,38
 61 444 61 444 31 444 c 1,39,-1
 31 465 l 1,40,41
 98 468 98 468 173 485 c 1,42,-1
 180 481 l 1,43,44
 180 453 180 453 189 430 c 128,-1,45
 198 407 198 407 237 337 c 2,46,-1
 258 300 l 1,47,48
 286 359 286 359 321 415.5 c 128,-1,49
 356 472 356 472 382 485 c 1,50,51
 427 485 427 485 470 469 c 1,52,-1
 470 455 l 1,53,54
 432 407 432 407 427 330 c 1,55,-1
 405 330 l 1,0,1
EndSplineSet
EndChar

StartChar: y
Encoding: 121 121 92
Width: 530
GlyphClass: 2
Flags: W
LayerCount: 2
Fore
SplineSet
178 481 m 1,0,1
 159 365 159 365 159 185 c 0,2,3
 159 67 159 67 201 67 c 0,4,5
 237 67 237 67 289.5 117.5 c 128,-1,6
 342 168 342 168 357 207 c 1,7,8
 357 352 357 352 346 440 c 1,9,10
 319 446 319 446 283 459 c 1,11,-1
 285 478 l 1,12,13
 341 470 341 470 391 470 c 128,-1,14
 441 470 441 470 492 476 c 1,15,-1
 495 457 l 1,16,17
 465 444 465 444 436 437 c 1,18,19
 427 369 427 369 427 280 c 2,20,-1
 427 196 l 2,21,22
 427 37 427 37 434 -34 c 1,23,24
 415 -89 415 -89 354 -141.5 c 128,-1,25
 293 -194 293 -194 233 -215 c 1,26,27
 141 -215 141 -215 65 -186 c 1,28,-1
 65 -173 l 1,29,30
 102 -129 102 -129 107 -61 c 1,31,-1
 128 -61 l 1,32,33
 128 -100 128 -100 130 -122 c 1,34,35
 186 -153 186 -153 258 -153 c 0,36,37
 298 -153 298 -153 323 -129 c 1,38,39
 346 -68 346 -68 351.5 -18.5 c 128,-1,40
 357 31 357 31 357 145 c 1,41,-1
 353 146 l 1,42,43
 323 101 323 101 270 50.5 c 128,-1,44
 217 0 217 0 175 -15 c 1,45,46
 117 -15 117 -15 100 40 c 0,47,48
 87 79 87 79 87 136 c 0,49,50
 87 145 87 145 87 156 c 2,51,-1
 92 437 l 1,52,53
 68 445 68 445 38 445 c 1,54,-1
 38 466 l 1,55,56
 101 469 101 469 171 485 c 1,57,-1
 178 481 l 1,0,1
EndSplineSet
EndChar

StartChar: z
Encoding: 122 122 93
Width: 412
GlyphClass: 2
Flags: W
LayerCount: 2
Fore
SplineSet
386 126 m 1,0,1
 375 87 375 87 375 54.5 c 128,-1,2
 375 22 375 22 382 -7 c 1,3,-1
 370 -15 l 1,4,5
 216 31 216 31 84 31 c 1,6,7
 53 14 53 14 24 -15 c 1,8,-1
 7 0 l 1,9,10
 39 32 39 32 80 90 c 2,11,-1
 289 385 l 1,12,-1
 225 388 l 2,13,14
 151 391 151 391 124 391 c 128,-1,15
 97 391 97 391 88 390 c 1,16,17
 68 370 68 370 51 341 c 1,18,-1
 32 352 l 1,19,20
 61 405 61 405 68 478 c 1,21,-1
 81 485 l 1,22,23
 106 473 106 473 129 468.5 c 128,-1,24
 152 464 152 464 232 458 c 2,25,-1
 340 449 l 1,26,27
 371 466 371 466 390 485 c 1,28,-1
 407 470 l 1,29,30
 365 428 365 428 334 380 c 2,31,-1
 142 89 l 1,32,-1
 144 85 l 1,33,34
 159 92 159 92 171 95 c 1,35,36
 257 95 257 95 342 75 c 1,37,38
 352 97 352 97 365 133 c 1,39,-1
 386 126 l 1,0,1
EndSplineSet
EndChar

StartChar: braceleft
Encoding: 123 123 94
Width: 300
GlyphClass: 2
Flags: W
LayerCount: 2
Fore
SplineSet
132.5 -159 m 128,-1,1
 89 -117 89 -117 89 -71 c 128,-1,2
 89 -25 89 -25 102.5 57.5 c 128,-1,3
 116 140 116 140 116 187 c 0,4,5
 116 223 116 223 48 236 c 1,6,-1
 44 255 l 1,7,8
 116 271 116 271 116 309 c 0,9,10
 116 356 116 356 102.5 439 c 128,-1,11
 89 522 89 522 89 567.5 c 128,-1,12
 89 613 89 613 132.5 655 c 128,-1,13
 176 697 176 697 224 711 c 1,14,-1
 228 697 l 1,15,16
 201 683 201 683 177 657 c 128,-1,17
 153 631 153 631 144 604 c 1,18,19
 144 557 144 557 166.5 463 c 128,-1,20
 189 369 189 369 189 329 c 1,21,22
 175 295 175 295 98 250 c 1,23,-1
 98 246 l 1,24,25
 175 201 175 201 189 167 c 1,26,27
 189 127 189 127 166.5 33 c 128,-1,28
 144 -61 144 -61 144 -108 c 1,29,30
 153 -135 153 -135 177 -161 c 128,-1,31
 201 -187 201 -187 228 -201 c 1,32,-1
 224 -215 l 1,33,0
 176 -201 176 -201 132.5 -159 c 128,-1,1
EndSplineSet
EndChar

StartChar: bar
Encoding: 124 124 95
Width: 238
GlyphClass: 2
Flags: W
LayerCount: 2
Fore
SplineSet
144 -199 m 1,0,1
 126 -209 126 -209 103 -216 c 1,2,-1
 96 -213 l 1,3,4
 96 476 96 476 89 723 c 1,5,6
 123 737 123 737 141 750 c 1,7,-1
 146 749 l 1,8,9
 144 607 144 607 144 -199 c 1,0,1
EndSplineSet
EndChar

StartChar: braceright
Encoding: 125 125 96
Width: 288
GlyphClass: 2
Flags: W
LayerCount: 2
Fore
SplineSet
167.5 655 m 128,-1,1
 211 613 211 613 211 567.5 c 128,-1,2
 211 522 211 522 197.5 439 c 128,-1,3
 184 356 184 356 184 309 c 0,4,5
 184 271 184 271 256 255 c 1,6,-1
 252 236 l 1,7,8
 184 223 184 223 184 187 c 0,9,10
 184 140 184 140 197.5 57.5 c 128,-1,11
 211 -25 211 -25 211 -71 c 128,-1,12
 211 -117 211 -117 167.5 -159 c 128,-1,13
 124 -201 124 -201 76 -215 c 1,14,-1
 72 -201 l 1,15,16
 99 -187 99 -187 123 -161 c 128,-1,17
 147 -135 147 -135 156 -108 c 1,18,19
 156 -61 156 -61 133.5 33 c 128,-1,20
 111 127 111 127 111 167 c 1,21,22
 125 201 125 201 202 246 c 1,23,-1
 202 250 l 1,24,25
 125 295 125 295 111 329 c 1,26,27
 111 369 111 369 133.5 463 c 128,-1,28
 156 557 156 557 156 604 c 1,29,30
 147 631 147 631 123 657 c 128,-1,31
 99 683 99 683 72 697 c 1,32,-1
 76 711 l 1,33,0
 124 697 124 697 167.5 655 c 128,-1,1
EndSplineSet
EndChar

StartChar: asciitilde
Encoding: 126 126 97
Width: 590
GlyphClass: 2
Flags: W
LayerCount: 2
Fore
SplineSet
404 258 m 0,0,1
 473 258 473 258 522 316 c 1,2,-1
 540 305 l 1,3,4
 520 267 520 267 476 233.5 c 128,-1,5
 432 200 432 200 389 188 c 1,6,7
 356 188 356 188 279 221 c 128,-1,8
 202 254 202 254 169 254 c 0,9,10
 103 254 103 254 68 200 c 1,11,-1
 50 211 l 1,12,13
 72 252 72 252 119.5 287.5 c 128,-1,14
 167 323 167 323 211 328 c 1,15,16
 254 299 254 299 307 278.5 c 128,-1,17
 360 258 360 258 404 258 c 0,0,1
EndSplineSet
EndChar

StartChar: exclamdown
Encoding: 161 161 99
Width: 226
GlyphClass: 2
Flags: W
LayerCount: 2
Fore
SplineSet
66 436 m 1,0,1
 73 447 73 447 90 462.5 c 128,-1,2
 107 478 107 478 120 486 c 1,3,4
 134 479 134 479 151 463.5 c 128,-1,5
 168 448 168 448 174 436 c 1,6,7
 167 423 167 423 149.5 403 c 128,-1,8
 132 383 132 383 120 375 c 1,9,10
 108 383 108 383 90.5 403 c 128,-1,11
 73 423 73 423 66 436 c 1,0,1
154 -183 m 1,12,13
 142 -189 142 -189 118 -194.5 c 128,-1,14
 94 -200 94 -200 86.5 -200 c 128,-1,15
 79 -200 79 -200 77 -200 c 1,16,17
 66 -190 66 -190 45 -160 c 1,18,19
 92 -3 92 -3 107 299 c 1,20,-1
 133 301 l 1,21,-1
 154 -183 l 1,12,13
EndSplineSet
EndChar

StartChar: cent
Encoding: 162 162 100
Width: 450
GlyphClass: 2
Flags: W
LayerCount: 2
Fore
SplineSet
264 72 m 2,0,1
 319 72 319 72 378 125 c 1,2,-1
 388 115 l 1,3,4
 336 41 336 41 261 6 c 1,5,-1
 260 -92 l 1,6,-1
 255 -92 l 1,7,8
 239 -87 239 -87 228 -77 c 1,9,-1
 234 0 l 1,10,11
 153 4 153 4 114.5 58.5 c 128,-1,12
 76 113 76 113 76 206 c 128,-1,13
 76 299 76 299 123.5 378.5 c 128,-1,14
 171 458 171 458 250 490 c 1,15,-1
 254 588 l 1,16,17
 269 590 269 590 282 594 c 1,18,-1
 286 591 l 1,19,20
 281 557 281 557 278 500 c 1,21,22
 339 500 339 500 399 484 c 1,23,-1
 399 470 l 1,24,25
 360 422 360 422 356 365 c 1,26,-1
 334 365 l 1,27,28
 334 404 334 404 332 426 c 1,29,30
 294 436 294 436 276 437 c 1,31,-1
 263 72 l 1,32,-1
 264 72 l 2,0,1
194 98 m 0,33,34
 211 81 211 81 236 75 c 1,35,-1
 248 438 l 1,36,37
 210 436 210 436 185 414 c 1,38,39
 156 353 156 353 156 244.5 c 128,-1,40
 156 136 156 136 194 98 c 0,33,34
EndSplineSet
EndChar

StartChar: sterling
Encoding: 163 163 101
Width: 450
GlyphClass: 2
Flags: W
LayerCount: 2
Fore
SplineSet
104 136 m 1,0,-1
 99 241 l 1,1,-1
 99 242 l 1,2,-1
 60 239 l 1,3,-1
 51 245 l 1,4,-1
 57 291 l 1,5,-1
 103 291 l 1,6,7
 117 377 117 377 173 446.5 c 128,-1,8
 229 516 229 516 312 538 c 1,9,10
 381 538 381 538 440 522 c 1,11,-1
 440 508 l 1,12,13
 403 462 403 462 397 395 c 1,14,-1
 375 395 l 1,15,16
 375 436 375 436 372 459 c 1,17,18
 330 473 330 473 286 473 c 128,-1,19
 242 473 242 473 212 447 c 1,20,21
 181 382 181 382 181 293 c 1,22,23
 238 295 238 295 325 305 c 1,24,-1
 333 300 l 1,25,-1
 327 258 l 1,26,-1
 179 247 l 1,27,28
 172 150 172 150 130 88 c 1,29,-1
 133 85 l 1,30,31
 148 92 148 92 160 95 c 1,32,33
 168 95 168 95 176 95 c 0,34,35
 269 95 269 95 364 74 c 1,36,37
 374 96 374 96 387 132 c 1,38,-1
 408 125 l 1,39,40
 397 86 397 86 397 53.5 c 128,-1,41
 397 21 397 21 404 -8 c 1,42,-1
 392 -16 l 1,43,44
 238 30 238 30 103 30 c 1,45,46
 72 13 72 13 43 -16 c 1,47,-1
 26 -1 l 1,48,49
 63 36 63 36 98 88 c 1,50,51
 104 109 104 109 104 136 c 1,0,-1
EndSplineSet
EndChar

StartChar: currency
Encoding: 164 164 102
Width: 567
GlyphClass: 2
Flags: W
LayerCount: 2
Fore
SplineSet
430 487 m 1,0,-1
 507 568 l 1,1,2
 549 554 549 554 560 552 c 1,3,-1
 562 548 l 1,4,-1
 463 455 l 1,5,6
 496 413 496 413 496 350 c 0,7,8
 496 261 496 261 439 198 c 1,9,10
 524 117 524 117 562 83 c 1,11,-1
 560 79 l 1,12,13
 549 77 549 77 507 63 c 1,14,-1
 406 168 l 1,15,16
 355 129 355 129 289 116 c 1,17,18
 207 116 207 116 152 152 c 1,19,-1
 61 63 l 1,20,-1
 56 63 l 1,21,22
 37 84 37 84 32 110 c 1,23,24
 57 131 57 131 115 185 c 1,25,26
 81 227 81 227 81 286 c 0,27,28
 81 370 81 370 133 431 c 1,29,30
 78 481 78 481 32 521 c 1,31,32
 37 547 37 547 56 568 c 1,33,-1
 61 568 l 1,34,-1
 166 464 l 1,35,36
 222 509 222 509 301 523 c 1,37,38
 377 523 377 523 430 487 c 1,0,-1
385 426.5 m 128,-1,40
 347 469 347 469 281 469 c 128,-1,41
 215 469 215 469 186 443 c 1,42,43
 154 398 154 398 154 327 c 128,-1,44
 154 256 154 256 192 213 c 128,-1,45
 230 170 230 170 296 170 c 128,-1,46
 362 170 362 170 391 196 c 1,47,48
 423 241 423 241 423 312.5 c 128,-1,39
 423 384 423 384 385 426.5 c 128,-1,40
EndSplineSet
EndChar

StartChar: yen
Encoding: 165 165 103
Width: 450
GlyphClass: 2
Flags: W
LayerCount: 2
Fore
SplineSet
-19 529 m 1,0,1
 41 523 41 523 91 523 c 128,-1,2
 141 523 141 523 201 534 c 1,3,-1
 206 514 l 1,4,5
 174 504 174 504 156 493 c 1,6,7
 169 434 169 434 249 271 c 1,8,9
 335 439 335 439 335 491 c 0,10,11
 335 510 335 510 322 523 c 1,12,-1
 325 530 l 1,13,14
 354 523 354 523 395.5 523 c 128,-1,15
 437 523 437 523 465 527 c 1,16,-1
 467 505 l 1,17,18
 432 501 432 501 413 492 c 1,19,-1
 269 246 l 1,20,-1
 269 245 l 1,21,-1
 313 247 l 2,22,23
 376 250 376 250 397 252 c 1,24,25
 401 232 401 232 406 221 c 1,26,-1
 406 216 l 1,27,-1
 269 214 l 1,28,29
 269 180 269 180 270 165 c 1,30,-1
 313 167 l 2,31,32
 376 170 376 170 397 172 c 1,33,34
 401 152 401 152 406 141 c 1,35,-1
 406 136 l 1,36,-1
 271 134 l 1,37,38
 272 85 272 85 280 30 c 1,39,40
 308 24 308 24 343 11 c 1,41,-1
 341 -8 l 1,42,43
 285 0 285 0 235 0 c 128,-1,44
 185 0 185 0 134 -6 c 1,45,-1
 131 13 l 1,46,47
 161 26 161 26 190 33 c 1,48,49
 194 67 194 67 197 132 c 1,50,-1
 186 132 l 1,51,52
 114 130 114 130 68 123 c 1,53,-1
 65 127 l 1,54,55
 71 147 71 147 72 159 c 1,56,-1
 198 163 l 1,57,-1
 199 212 l 1,58,-1
 186 212 l 1,59,60
 114 210 114 210 68 203 c 1,61,-1
 65 207 l 1,62,63
 71 227 71 227 72 239 c 1,64,-1
 190 243 l 1,65,66
 104 421 104 421 59 487 c 1,67,68
 11 496 11 496 -21 509 c 1,69,-1
 -19 529 l 1,0,1
EndSplineSet
EndChar

StartChar: brokenbar
Encoding: 166 166 104
Width: 245
GlyphClass: 2
Flags: W
LayerCount: 2
Fore
SplineSet
149 340 m 1,0,1
 131 330 131 330 108 323 c 1,2,-1
 101 326 l 1,3,4
 100 508 100 508 94 725 c 1,5,6
 128 739 128 739 146 752 c 1,7,-1
 151 751 l 1,8,9
 149 609 149 609 149 340 c 1,0,1
149 -198 m 1,10,11
 131 -208 131 -208 108 -215 c 1,12,-1
 101 -212 l 1,13,14
 100 -30 100 -30 94 187 c 1,15,16
 128 201 128 201 146 214 c 1,17,-1
 151 213 l 1,18,19
 149 71 149 71 149 -198 c 1,10,11
EndSplineSet
EndChar

StartChar: section
Encoding: 167 167 105
Width: 467
GlyphClass: 2
Flags: W
LayerCount: 2
Fore
SplineSet
347 144 m 1,0,1
 365 168 365 168 365 201.5 c 128,-1,2
 365 235 365 235 336 267.5 c 128,-1,3
 307 300 307 300 266 330.5 c 128,-1,4
 225 361 225 361 184 393 c 0,5,6
 85 470 85 470 85 535 c 1,7,8
 108 572 108 572 164.5 613.5 c 128,-1,9
 221 655 221 655 263 666 c 1,10,11
 327 666 327 666 387 650 c 1,12,-1
 387 636 l 1,13,14
 348 588 348 588 344 531 c 1,15,-1
 322 531 l 1,16,17
 322 570 322 570 320 592 c 1,18,19
 281 604 281 604 241.5 604 c 128,-1,20
 202 604 202 604 179 581 c 1,21,22
 172 569 172 569 172 547 c 0,23,24
 172 512 172 512 211.5 472 c 128,-1,25
 251 432 251 432 299.5 401.5 c 128,-1,26
 348 371 348 371 392 330.5 c 128,-1,27
 436 290 436 290 443 256 c 1,28,29
 435 231 435 231 408.5 192 c 128,-1,30
 382 153 382 153 361 131 c 1,31,-1
 347 144 l 1,0,1
125 10 m 2,32,-1
 127 -32 l 1,33,-1
 127 -36 l 1,34,35
 173 -53 173 -53 216 -53 c 128,-1,36
 259 -53 259 -53 282 -30 c 1,37,38
 289 -18 289 -18 289 4 c 0,39,40
 289 39 289 39 249.5 79 c 128,-1,41
 210 119 210 119 161.5 149.5 c 128,-1,42
 113 180 113 180 69 220.5 c 128,-1,43
 25 261 25 261 18 295 c 1,44,45
 26 320 26 320 52.5 359 c 128,-1,46
 79 398 79 398 100 420 c 1,47,-1
 114 407 l 1,48,49
 96 383 96 383 96 349.5 c 128,-1,50
 96 316 96 316 125 283.5 c 128,-1,51
 154 251 154 251 195 220.5 c 128,-1,52
 236 190 236 190 277 158 c 0,53,54
 376 81 376 81 376 16 c 1,55,56
 353 -21 353 -21 296.5 -62.5 c 128,-1,57
 240 -104 240 -104 198 -115 c 1,58,59
 126 -115 126 -115 60 -94 c 1,60,-1
 60 -80 l 1,61,62
 99 -32 99 -32 103 25 c 1,63,-1
 125 25 l 1,64,65
 125 25 125 25 125 10 c 2,32,-1
EndSplineSet
EndChar

StartChar: dieresis
Encoding: 168 168 106
Width: 293
GlyphClass: 2
Flags: W
LayerCount: 2
Fore
SplineSet
108 620 m 1,0,1
 101 607 101 607 83.5 587 c 128,-1,2
 66 567 66 567 54 559 c 1,3,4
 42 567 42 567 24.5 587 c 128,-1,5
 7 607 7 607 0 620 c 1,6,7
 6 632 6 632 23 647.5 c 128,-1,8
 40 663 40 663 54 670 c 1,9,10
 67 662 67 662 84 646.5 c 128,-1,11
 101 631 101 631 108 620 c 1,0,1
293 620 m 1,12,13
 286 607 286 607 268.5 587 c 128,-1,14
 251 567 251 567 239 559 c 1,15,16
 227 567 227 567 209.5 587 c 128,-1,17
 192 607 192 607 185 620 c 1,18,19
 191 632 191 632 208 647.5 c 128,-1,20
 225 663 225 663 239 670 c 1,21,22
 252 662 252 662 269 646.5 c 128,-1,23
 286 631 286 631 293 620 c 1,12,13
EndSplineSet
EndChar

StartChar: copyright
Encoding: 169 169 107
Width: 765
GlyphClass: 2
Flags: W
LayerCount: 2
Fore
SplineSet
313.5 219 m 128,-1,1
 333 177 333 177 384.5 177 c 128,-1,2
 436 177 436 177 484 221 c 1,3,-1
 496 208 l 1,4,5
 452 153 452 153 374 119 c 1,6,7
 299 119 299 119 261 164 c 128,-1,8
 223 209 223 209 223 287.5 c 128,-1,9
 223 366 223 366 271.5 436 c 128,-1,10
 320 506 320 506 392 531 c 1,11,12
 455 531 455 531 512 518 c 1,13,-1
 511 501 l 1,14,15
 494 499 494 499 487 494 c 1,16,17
 471 459 471 459 466 411 c 1,18,-1
 448 411 l 1,19,20
 441 441 441 441 441 464 c 1,21,22
 413 479 413 479 379 479 c 128,-1,23
 345 479 345 479 322 463 c 1,24,25
 294 409 294 409 294 335 c 128,-1,0
 294 261 294 261 313.5 219 c 128,-1,1
42 325 m 128,-1,27
 42 466 42 466 141.5 566 c 128,-1,28
 241 666 241 666 382 666 c 128,-1,29
 523 666 523 666 623 566 c 128,-1,30
 723 466 723 466 723 325 c 128,-1,31
 723 184 723 184 623 84.5 c 128,-1,32
 523 -15 523 -15 382 -15 c 128,-1,33
 241 -15 241 -15 141.5 84.5 c 128,-1,26
 42 184 42 184 42 325 c 128,-1,27
86 325 m 128,-1,35
 86 202 86 202 172.5 114.5 c 128,-1,36
 259 27 259 27 382 27 c 128,-1,37
 505 27 505 27 592 114.5 c 128,-1,38
 679 202 679 202 679 325 c 128,-1,39
 679 448 679 448 592 536 c 128,-1,40
 505 624 505 624 382 624 c 128,-1,41
 259 624 259 624 172.5 536 c 128,-1,34
 86 448 86 448 86 325 c 128,-1,35
EndSplineSet
EndChar

StartChar: ordfeminine
Encoding: 170 170 108
Width: 410
GlyphClass: 2
Flags: W
LayerCount: 2
Fore
SplineSet
38 414 m 0,0,1
 38 498 38 498 85 568.5 c 128,-1,2
 132 639 132 639 210 666 c 1,3,4
 266 666 266 666 327 649 c 1,5,6
 340 669 340 669 347 692 c 1,7,-1
 364 687 l 1,8,9
 346 601 346 601 346 474.5 c 128,-1,10
 346 348 346 348 352 300 c 1,11,12
 367 293 367 293 392 293 c 1,13,-1
 392 275 l 1,14,15
 345 273 345 273 280 259 c 1,16,-1
 274 262 l 1,17,18
 283 315 283 315 283 389 c 1,19,-1
 280 389 l 1,20,21
 251 349 251 349 212.5 311 c 128,-1,22
 174 273 174 273 140 259 c 1,23,24
 93 259 93 259 65.5 308 c 128,-1,25
 38 357 38 357 38 414 c 0,0,1
109 451 m 0,26,27
 109 412 109 412 122.5 370 c 128,-1,28
 136 328 136 328 162 328 c 0,29,30
 190 328 190 328 230 367.5 c 128,-1,31
 270 407 270 407 283 439 c 1,32,33
 283 558 283 558 277 594 c 1,34,35
 240 614 240 614 198 614 c 128,-1,36
 156 614 156 614 135 594 c 1,37,38
 109 533 109 533 109 451 c 0,26,27
EndSplineSet
EndChar

StartChar: guillemotleft
Encoding: 171 171 109
Width: 413
GlyphClass: 2
Flags: W
LayerCount: 2
Fore
SplineSet
111 283 m 1,0,-1
 219 125 l 1,1,-1
 199 111 l 1,2,3
 106 218 106 218 21 269 c 1,4,-1
 21 289 l 1,5,6
 116 341 116 341 199 439 c 1,7,-1
 218 426 l 1,8,-1
 111 283 l 1,0,-1
287 285 m 1,9,-1
 385 142 l 1,10,-1
 365 128 l 1,11,12
 274 224 274 224 197 271 c 1,13,-1
 197 291 l 1,14,15
 297 346 297 346 365 426 c 1,16,-1
 384 413 l 1,17,-1
 287 285 l 1,9,-1
EndSplineSet
EndChar

StartChar: logicalnot
Encoding: 172 172 110
Width: 550
GlyphClass: 2
Flags: W
LayerCount: 2
Fore
SplineSet
447 238 m 1,0,-1
 59 238 l 1,1,-1
 51 245 l 1,2,-1
 60 296 l 1,3,4
 229 287 229 287 339 287 c 128,-1,5
 449 287 449 287 488 290 c 1,6,-1
 494 284 l 1,7,8
 494 220 494 220 499 88 c 1,9,-1
 494 82 l 1,10,-1
 447 91 l 1,11,-1
 447 238 l 1,0,-1
EndSplineSet
EndChar

StartChar: registered
Encoding: 174 174 111
Width: 434
GlyphClass: 2
Flags: W
LayerCount: 2
Fore
SplineSet
21 500 m 128,-1,1
 21 582 21 582 78 639 c 128,-1,2
 135 696 135 696 217 696 c 128,-1,3
 299 696 299 696 356 639 c 128,-1,4
 413 582 413 582 413 500 c 128,-1,5
 413 418 413 418 356 361 c 128,-1,6
 299 304 299 304 217 304 c 128,-1,7
 135 304 135 304 78 361 c 128,-1,0
 21 418 21 418 21 500 c 128,-1,1
57 500 m 128,-1,9
 57 432 57 432 103.5 385 c 128,-1,10
 150 338 150 338 217 338 c 128,-1,11
 284 338 284 338 329.5 385 c 128,-1,12
 375 432 375 432 375 500 c 128,-1,13
 375 568 375 568 329.5 614 c 128,-1,14
 284 660 284 660 217 660 c 128,-1,15
 150 660 150 660 103.5 614 c 128,-1,8
 57 568 57 568 57 500 c 128,-1,9
129 605 m 1,16,-1
 219 608 l 1,17,18
 255 608 255 608 274 598.5 c 128,-1,19
 293 589 293 589 293 556 c 128,-1,20
 293 523 293 523 256 508 c 1,21,-1
 299 420 l 1,22,-1
 319 415 l 1,23,-1
 319 404 l 1,24,25
 298 407 298 407 277 407 c 128,-1,26
 256 407 256 407 240 405 c 1,27,-1
 238 412 l 1,28,29
 244 417 244 417 244 434 c 128,-1,30
 244 451 244 451 218 503 c 1,31,32
 210 506 210 506 203 506 c 1,33,-1
 204 517 l 1,34,-1
 208 517 l 2,35,36
 247 517 247 517 247 556 c 0,37,38
 247 590 247 590 214 590 c 0,39,40
 205 590 205 590 197 587 c 1,41,42
 196 568 196 568 196 501 c 128,-1,43
 196 434 196 434 199 420 c 1,44,-1
 221 415 l 1,45,-1
 220 404 l 1,46,47
 197 407 197 407 173 407 c 128,-1,48
 149 407 149 407 125 404 c 1,49,-1
 125 415 l 1,50,51
 137 418 137 418 150 420 c 1,52,53
 154 460 154 460 154 514 c 128,-1,54
 154 568 154 568 151 589 c 1,55,56
 139 593 139 593 129 593 c 1,57,-1
 129 605 l 1,16,-1
EndSplineSet
EndChar

StartChar: macron
Encoding: 175 175 112
Width: 274
GlyphClass: 2
Flags: W
LayerCount: 2
Fore
SplineSet
54 638 m 2,0,1
 103 635 103 635 162 635 c 128,-1,2
 221 635 221 635 266 639 c 1,3,-1
 274 634 l 1,4,-1
 265 588 l 1,5,-1
 9 585 l 1,6,-1
 0 591 l 1,7,-1
 9 641 l 1,8,-1
 54 638 l 2,0,1
EndSplineSet
EndChar

StartChar: degree
Encoding: 176 176 113
Width: 367
GlyphClass: 2
Flags: W
LayerCount: 2
Fore
SplineSet
85 425.5 m 128,-1,1
 45 455 45 455 45 512.5 c 128,-1,2
 45 570 45 570 86.5 613 c 128,-1,3
 128 656 128 656 192 667 c 1,4,5
 250 667 250 667 286 637 c 128,-1,6
 322 607 322 607 322 549.5 c 128,-1,7
 322 492 322 492 284 450.5 c 128,-1,8
 246 409 246 409 184 396 c 1,9,0
 125 396 125 396 85 425.5 c 128,-1,1
242 600.5 m 128,-1,11
 219 628 219 628 179 628 c 128,-1,12
 139 628 139 628 121 611 c 1,13,14
 102 582 102 582 102 536.5 c 128,-1,15
 102 491 102 491 125.5 463 c 128,-1,16
 149 435 149 435 188.5 435 c 128,-1,17
 228 435 228 435 246 452 c 1,18,19
 265 481 265 481 265 527 c 128,-1,10
 265 573 265 573 242 600.5 c 128,-1,11
EndSplineSet
EndChar

StartChar: plusminus
Encoding: 177 177 114
Width: 550
GlyphClass: 2
Flags: W
LayerCount: 2
Fore
SplineSet
299 267 m 1,0,1
 299 185 299 185 308 90 c 1,2,-1
 262 81 l 1,3,-1
 252 88 l 1,4,-1
 252 267 l 1,5,-1
 66 267 l 1,6,-1
 58 274 l 1,7,-1
 67 325 l 1,8,9
 189 319 189 319 252 318 c 1,10,-1
 252 476 l 1,11,-1
 299 485 l 1,12,-1
 304 479 l 1,13,14
 299 391 299 391 299 318 c 2,15,-1
 299 317 l 1,16,17
 336 316 336 316 396 316 c 128,-1,18
 456 316 456 316 495 319 c 1,19,-1
 501 313 l 1,20,-1
 492 267 l 1,21,-1
 299 267 l 1,0,1
59 58 m 1,22,23
 229 49 229 49 338.5 49 c 128,-1,24
 448 49 448 49 487 52 c 1,25,-1
 493 46 l 1,26,-1
 484 0 l 1,27,-1
 58 0 l 1,28,-1
 50 7 l 1,29,-1
 59 58 l 1,22,23
EndSplineSet
EndChar

StartChar: twosuperior
Encoding: 178 178 115
Width: 372
GlyphClass: 2
Flags: W
LayerCount: 2
Fore
SplineSet
143 422 m 1,0,1
 157 423 157 423 192.5 423 c 128,-1,2
 228 423 228 423 293 414 c 1,3,4
 303 433 303 433 313 461 c 1,5,-1
 330 455 l 1,6,7
 321 425 321 425 321 399 c 128,-1,8
 321 373 321 373 327 346 c 1,9,-1
 317 339 l 1,10,11
 173 369 173 369 75 369 c 1,12,13
 61 355 61 355 49 339 c 1,14,-1
 32 347 l 1,15,16
 50 384 50 384 102 438.5 c 128,-1,17
 154 493 154 493 192.5 543 c 128,-1,18
 231 593 231 593 231 628 c 0,19,20
 231 694 231 694 161 694 c 0,21,22
 133 694 133 694 110 683 c 1,23,24
 105 671 105 671 105 655.5 c 128,-1,25
 105 640 105 640 113 635 c 1,26,-1
 113 629 l 1,27,28
 101 622 101 622 73 596 c 1,29,30
 50 598 50 598 50 620 c 0,31,32
 50 657 50 657 94.5 694.5 c 128,-1,33
 139 732 139 732 184 746 c 1,34,35
 250 746 250 746 281 714 c 128,-1,36
 312 682 312 682 312 616 c 1,37,38
 236 517 236 517 122 418 c 1,39,-1
 124 415 l 1,40,41
 135 420 135 420 143 422 c 1,0,1
EndSplineSet
EndChar

StartChar: threesuperior
Encoding: 179 179 116
Width: 334
GlyphClass: 2
Flags: W
LayerCount: 2
Fore
SplineSet
78 460 m 1,0,1
 78 433 78 433 79 418 c 1,2,3
 127 391 127 391 163 391 c 128,-1,4
 199 391 199 391 209 403 c 1,5,6
 218 426 218 426 218 464 c 128,-1,7
 218 502 218 502 194.5 528.5 c 128,-1,8
 171 555 171 555 125 555 c 1,9,-1
 122 559 l 1,10,-1
 207 678 l 1,11,-1
 205 681 l 1,12,13
 194 676 194 676 186 674 c 1,14,15
 141 674 141 674 91 679 c 1,16,17
 81 661 81 661 75 637 c 1,18,-1
 58 643 l 1,19,20
 63 671 63 671 63 694 c 128,-1,21
 63 717 63 717 56 739 c 1,22,-1
 65 745 l 1,23,24
 151 727 151 727 268 727 c 1,25,26
 282 735 282 735 291 745 c 1,27,-1
 304 734 l 1,28,29
 283 715 283 715 185 600 c 1,30,31
 289 581 289 581 289 462 c 1,32,33
 276 425 276 425 238 389 c 128,-1,34
 200 353 200 353 160 339 c 1,35,36
 89 339 89 339 30 365 c 1,37,-1
 30 377 l 1,38,39
 53 409 53 409 60 460 c 1,40,-1
 78 460 l 1,0,1
EndSplineSet
EndChar

StartChar: acute
Encoding: 180 180 117
Width: 200
GlyphClass: 2
Flags: W
LayerCount: 2
Fore
SplineSet
132 694 m 1,0,1
 142 695 142 695 153.5 695 c 128,-1,2
 165 695 165 695 175 693 c 1,3,4
 182 685 182 685 190.5 664.5 c 128,-1,5
 199 644 199 644 200 634 c 1,6,-1
 11 525 l 1,7,-1
 0 543 l 1,8,9
 37 568 37 568 72.5 610 c 128,-1,10
 108 652 108 652 132 694 c 1,0,1
EndSplineSet
EndChar

StartChar: mu
Encoding: 181 181 118
Width: 529
GlyphClass: 2
Flags: W
LayerCount: 2
Fore
SplineSet
451 480 m 1,0,1
 431 411 431 411 431 257.5 c 128,-1,2
 431 104 431 104 438 33 c 1,3,4
 462 25 462 25 492 25 c 1,5,-1
 492 4 l 1,6,7
 428 1 428 1 357 -15 c 1,8,-1
 350 -13 l 1,9,10
 361 56 361 56 361 145 c 1,11,-1
 357 146 l 1,12,13
 323 98 323 98 270 48.5 c 128,-1,14
 217 -1 217 -1 173 -15 c 1,15,16
 148 -15 148 -15 136 -1 c 1,17,18
 136 -106 136 -106 157 -196 c 1,19,-1
 154 -199 l 1,20,21
 110 -207 110 -207 78 -219 c 1,22,-1
 69 -212 l 1,23,24
 78 -149 78 -149 88 143 c 1,25,-1
 92 331 l 2,26,27
 92 342 92 342 92 383.5 c 128,-1,28
 92 425 92 425 86 467 c 1,29,-1
 90 470 l 1,30,31
 147 476 147 476 182 485 c 1,32,-1
 188 480 l 1,33,34
 153 337 153 337 153 172 c 0,35,36
 153 92 153 92 174 76 c 1,37,38
 184 67 184 67 201 67 c 0,39,40
 239 67 239 67 291 115.5 c 128,-1,41
 343 164 343 164 361 207 c 1,42,43
 361 396 361 396 347 470 c 1,44,45
 407 476 407 476 445 485 c 1,46,-1
 451 480 l 1,0,1
EndSplineSet
EndChar

StartChar: paragraph
Encoding: 182 182 119
Width: 574
GlyphClass: 2
Flags: W
LayerCount: 2
Fore
SplineSet
317 325 m 2,0,-1
 317 181 l 2,1,2
 317 14 317 14 272 -51 c 0,3,4
 254 -78 254 -78 219 -96.5 c 128,-1,5
 184 -115 184 -115 136 -115 c 0,6,7
 124 -115 124 -115 115 -107.5 c 128,-1,8
 106 -100 106 -100 105 -88 c 1,9,10
 132 -63 132 -63 147 -38 c 1,11,-1
 154 -37 l 1,12,13
 165 -47 165 -47 195 -47 c 128,-1,14
 225 -47 225 -47 239 -40 c 1,15,16
 267 36 267 36 267 131 c 2,17,-1
 267 296 l 1,18,19
 255 295 255 295 233 295 c 0,20,21
 128 295 128 295 61.5 359 c 128,-1,22
 -5 423 -5 423 -5 496 c 128,-1,23
 -5 569 -5 569 46 613.5 c 128,-1,24
 97 658 97 658 196 658 c 0,25,26
 212 658 212 658 333 651 c 1,27,-1
 333 644 l 1,28,29
 317 531 317 531 317 325 c 2,0,-1
365.5 90.5 m 128,-1,31
 369 146 369 146 369 350.5 c 128,-1,32
 369 555 369 555 381 649 c 1,33,34
 424 645 424 645 517 645 c 2,35,-1
 553 645 l 1,36,-1
 553 620 l 1,37,38
 503 620 503 620 455 604 c 1,39,40
 444 511 444 511 444 315.5 c 128,-1,41
 444 120 444 120 456 38 c 1,42,43
 507 31 507 31 552 17 c 1,44,-1
 548 -8 l 1,45,46
 487 0 487 0 430.5 0 c 128,-1,47
 374 0 374 0 354 -1 c 1,48,-1
 352 3 l 1,49,30
 362 35 362 35 365.5 90.5 c 128,-1,31
EndSplineSet
EndChar

StartChar: periodcentered
Encoding: 183 183 120
Width: 212
GlyphClass: 2
Flags: W
LayerCount: 2
Fore
SplineSet
160 284 m 1,0,1
 153 271 153 271 135.5 251 c 128,-1,2
 118 231 118 231 106 223 c 1,3,4
 94 231 94 231 76.5 251 c 128,-1,5
 59 271 59 271 52 284 c 1,6,7
 58 296 58 296 75 311.5 c 128,-1,8
 92 327 92 327 106 334 c 1,9,10
 119 326 119 326 136 310.5 c 128,-1,11
 153 295 153 295 160 284 c 1,0,1
EndSplineSet
EndChar

StartChar: cedilla
Encoding: 184 184 121
Width: 184
GlyphClass: 2
Flags: W
LayerCount: 2
Fore
SplineSet
88 -178 m 0,0,1
 106 -178 106 -178 114 -173 c 1,2,3
 123 -160 123 -160 123 -142 c 0,4,5
 123 -97 123 -97 40 -97 c 1,6,-1
 34 -93 l 1,7,-1
 72 14 l 1,8,-1
 101 16 l 1,9,-1
 77 -46 l 1,10,-1
 81 -49 l 1,11,12
 127 -49 127 -49 155.5 -70 c 128,-1,13
 184 -91 184 -91 184 -133 c 1,14,15
 170 -160 170 -160 143.5 -182.5 c 128,-1,16
 117 -205 117 -205 88 -215 c 1,17,18
 44 -215 44 -215 0 -194 c 1,19,20
 10 -175 10 -175 16 -155 c 1,21,-1
 20 -153 l 1,22,23
 52 -178 52 -178 88 -178 c 0,0,1
EndSplineSet
EndChar

StartChar: onesuperior
Encoding: 185 185 122
Width: 303
GlyphClass: 2
Flags: W
LayerCount: 2
Fore
SplineSet
133 507 m 2,0,-1
 133 574 l 2,1,2
 133 618 133 618 130 665 c 1,3,-1
 70 665 l 1,4,-1
 68 667 l 1,5,6
 68 678 68 678 70 684 c 1,7,8
 142 704 142 704 180 744 c 1,9,10
 192 746 192 746 206 746 c 1,11,-1
 209 744 l 1,12,13
 198 663 198 663 198 574 c 2,14,-1
 198 507 l 2,15,16
 198 426 198 426 204 380 c 1,17,18
 229 372 229 372 249 363 c 1,19,-1
 246 346 l 1,20,21
 206 352 206 352 161 352 c 128,-1,22
 116 352 116 352 77 345 c 1,23,-1
 75 362 l 1,24,25
 100 373 100 373 125 378 c 1,26,27
 133 447 133 447 133 507 c 2,0,-1
EndSplineSet
EndChar

StartChar: ordmasculine
Encoding: 186 186 123
Width: 395
GlyphClass: 2
Flags: W
LayerCount: 2
Fore
SplineSet
79 307 m 128,-1,1
 32 355 32 355 32 432 c 128,-1,2
 32 509 32 509 80 577.5 c 128,-1,3
 128 646 128 646 206 666 c 1,4,5
 283 666 283 666 323 622 c 128,-1,6
 363 578 363 578 363 501 c 128,-1,7
 363 424 363 424 316.5 356 c 128,-1,8
 270 288 270 288 198 259 c 1,9,0
 126 259 126 259 79 307 c 128,-1,1
184 613 m 0,10,11
 150 613 150 613 130 594 c 1,12,13
 103 541 103 541 103 476 c 128,-1,14
 103 411 103 411 132.5 362 c 128,-1,15
 162 313 162 313 212 313 c 0,16,17
 244 313 244 313 266 333 c 1,18,19
 292 380 292 380 292 450.5 c 128,-1,20
 292 521 292 521 265 567 c 128,-1,21
 238 613 238 613 184 613 c 0,10,11
EndSplineSet
EndChar

StartChar: guillemotright
Encoding: 187 187 124
Width: 413
GlyphClass: 2
Flags: W
LayerCount: 2
Fore
SplineSet
194 125 m 1,0,-1
 302 283 l 1,1,-1
 197 426 l 1,2,-1
 214 439 l 1,3,4
 297 341 297 341 392 289 c 1,5,-1
 392 269 l 1,6,7
 307 218 307 218 214 111 c 1,8,-1
 194 125 l 1,0,-1
28 142 m 1,9,-1
 126 285 l 1,10,-1
 31 413 l 1,11,-1
 48 426 l 1,12,13
 116 346 116 346 216 291 c 1,14,-1
 216 271 l 1,15,16
 139 224 139 224 48 128 c 1,17,-1
 28 142 l 1,9,-1
EndSplineSet
EndChar

StartChar: onequarter
Encoding: 188 188 125
Width: 830
GlyphClass: 2
Flags: W
LayerCount: 2
Fore
SplineSet
729 263 m 2,0,-1
 729 156 l 1,1,2
 784 156 784 156 795 188 c 1,3,-1
 809 184 l 1,4,5
 804 159 804 159 804 139.5 c 128,-1,6
 804 120 804 120 804 111 c 1,7,-1
 800 109 l 1,8,9
 776 111 776 111 730 111 c 1,10,11
 730 66 730 66 735 41 c 1,12,13
 748 34 748 34 780 25 c 1,14,-1
 777 7 l 1,15,16
 737 13 737 13 688 13 c 128,-1,17
 639 13 639 13 606 5 c 1,18,-1
 604 22 l 1,19,20
 631 34 631 34 658 39 c 1,21,22
 663 68 663 68 663 111 c 1,23,-1
 474 111 l 1,24,-1
 470 123 l 1,25,26
 607 283 607 283 661 389 c 1,27,28
 697 393 697 393 732 406 c 1,29,-1
 738 404 l 1,30,31
 729 356 729 356 729 263 c 2,0,-1
151 -42 m 1,32,-1
 146 -41 l 1,33,34
 129 -27 129 -27 117 -1 c 1,35,36
 210 117 210 117 242 160 c 2,37,-1
 496 511 l 2,38,39
 555 593 555 593 628 704 c 1,40,41
 650 699 650 699 681 697 c 1,42,-1
 685 694 l 1,43,44
 653 654 653 654 549 510 c 2,45,-1
 151 -42 l 1,32,-1
133 427 m 2,46,-1
 133 494 l 2,47,48
 133 538 133 538 130 585 c 1,49,-1
 70 585 l 1,50,-1
 68 587 l 1,51,52
 68 598 68 598 70 604 c 1,53,54
 142 624 142 624 180 664 c 1,55,56
 192 666 192 666 206 666 c 1,57,-1
 209 664 l 1,58,59
 198 583 198 583 198 494 c 2,60,-1
 198 427 l 2,61,62
 198 346 198 346 204 300 c 1,63,64
 229 292 229 292 249 283 c 1,65,-1
 246 266 l 1,66,67
 206 272 206 272 161 272 c 128,-1,68
 116 272 116 272 77 265 c 1,69,-1
 75 282 l 1,70,71
 100 293 100 293 125 298 c 1,72,73
 133 367 133 367 133 427 c 2,46,-1
660 331 m 1,74,75
 627 261 627 261 555 163 c 1,76,77
 599 157 599 157 663 157 c 1,78,-1
 665 331 l 1,79,-1
 660 331 l 1,74,75
EndSplineSet
EndChar

StartChar: onehalf
Encoding: 189 189 126
Width: 830
GlyphClass: 2
Flags: W
LayerCount: 2
Fore
SplineSet
151 -42 m 1,0,-1
 146 -41 l 1,1,2
 129 -27 129 -27 117 -1 c 1,3,4
 210 117 210 117 242 160 c 2,5,-1
 496 511 l 2,6,7
 555 593 555 593 628 704 c 1,8,9
 650 699 650 699 681 697 c 1,10,-1
 685 694 l 1,11,12
 653 654 653 654 549 510 c 2,13,-1
 151 -42 l 1,0,-1
133 427 m 2,14,-1
 133 494 l 2,15,16
 133 538 133 538 130 585 c 1,17,-1
 70 585 l 1,18,-1
 68 587 l 1,19,20
 68 598 68 598 70 604 c 1,21,22
 142 624 142 624 180 664 c 1,23,24
 192 666 192 666 206 666 c 1,25,-1
 209 664 l 1,26,27
 198 583 198 583 198 494 c 2,28,-1
 198 427 l 2,29,30
 198 346 198 346 204 300 c 1,31,32
 229 292 229 292 249 283 c 1,33,-1
 246 266 l 1,34,35
 206 272 206 272 161 272 c 128,-1,36
 116 272 116 272 77 265 c 1,37,-1
 75 282 l 1,38,39
 100 293 100 293 125 298 c 1,40,41
 133 367 133 367 133 427 c 2,14,-1
600 83 m 1,42,43
 615 84 615 84 650.5 84 c 128,-1,44
 686 84 686 84 750 75 c 1,45,46
 760 94 760 94 770 122 c 1,47,-1
 787 116 l 1,48,49
 778 86 778 86 778 60 c 128,-1,50
 778 34 778 34 784 7 c 1,51,-1
 774 0 l 1,52,53
 630 30 630 30 532 30 c 1,54,55
 518 16 518 16 506 0 c 1,56,-1
 489 8 l 1,57,58
 507 45 507 45 559 99.5 c 128,-1,59
 611 154 611 154 649.5 204 c 128,-1,60
 688 254 688 254 688 290 c 0,61,62
 688 355 688 355 618 355 c 0,63,64
 590 355 590 355 567 344 c 1,65,66
 562 332 562 332 562 316.5 c 128,-1,67
 562 301 562 301 570 296 c 1,68,-1
 570 290 l 1,69,70
 558 283 558 283 530 257 c 1,71,72
 507 259 507 259 507 281 c 0,73,74
 507 318 507 318 551.5 355.5 c 128,-1,75
 596 393 596 393 641 407 c 1,76,77
 707 407 707 407 738 375 c 128,-1,78
 769 343 769 343 769 277 c 1,79,80
 693 178 693 178 579 79 c 1,81,-1
 581 76 l 1,82,83
 592 81 592 81 600 83 c 1,42,43
EndSplineSet
EndChar

StartChar: threequarters
Encoding: 190 190 127
Width: 830
GlyphClass: 2
Flags: W
LayerCount: 2
Fore
SplineSet
729 263 m 2,0,-1
 729 156 l 1,1,2
 784 156 784 156 795 188 c 1,3,-1
 809 184 l 1,4,5
 804 159 804 159 804 139.5 c 128,-1,6
 804 120 804 120 804 111 c 1,7,-1
 800 109 l 1,8,9
 776 111 776 111 730 111 c 1,10,11
 730 66 730 66 735 41 c 1,12,13
 748 34 748 34 780 25 c 1,14,-1
 777 7 l 1,15,16
 737 13 737 13 688 13 c 128,-1,17
 639 13 639 13 606 5 c 1,18,-1
 604 22 l 1,19,20
 631 34 631 34 658 39 c 1,21,22
 663 68 663 68 663 111 c 1,23,-1
 474 111 l 1,24,-1
 470 123 l 1,25,26
 607 283 607 283 661 389 c 1,27,28
 697 393 697 393 732 406 c 1,29,-1
 738 404 l 1,30,31
 729 356 729 356 729 263 c 2,0,-1
78 380 m 1,32,33
 78 353 78 353 79 338 c 1,34,35
 127 311 127 311 163 311 c 128,-1,36
 199 311 199 311 209 323 c 1,37,38
 218 346 218 346 218 384 c 128,-1,39
 218 422 218 422 194.5 448.5 c 128,-1,40
 171 475 171 475 125 475 c 1,41,-1
 122 479 l 1,42,-1
 207 598 l 1,43,-1
 205 601 l 1,44,45
 194 596 194 596 186 594 c 1,46,47
 141 594 141 594 91 599 c 1,48,49
 81 581 81 581 75 557 c 1,50,-1
 58 563 l 1,51,52
 63 591 63 591 63 614 c 128,-1,53
 63 637 63 637 56 659 c 1,54,-1
 65 665 l 1,55,56
 151 647 151 647 268 647 c 1,57,58
 282 655 282 655 291 665 c 1,59,-1
 304 654 l 1,60,61
 283 635 283 635 185 520 c 1,62,63
 289 501 289 501 289 382 c 1,64,65
 276 345 276 345 238 309 c 128,-1,66
 200 273 200 273 160 259 c 1,67,68
 89 259 89 259 30 285 c 1,69,-1
 30 297 l 1,70,71
 53 329 53 329 60 380 c 1,72,-1
 78 380 l 1,32,33
151 -42 m 1,73,-1
 146 -41 l 1,74,75
 129 -27 129 -27 117 -1 c 1,76,77
 210 117 210 117 242 160 c 2,78,-1
 496 511 l 2,79,80
 555 593 555 593 628 704 c 1,81,82
 650 699 650 699 681 697 c 1,83,-1
 685 694 l 1,84,85
 653 654 653 654 549 510 c 2,86,-1
 151 -42 l 1,73,-1
660 331 m 1,87,88
 627 261 627 261 555 163 c 1,89,90
 599 157 599 157 663 157 c 1,91,-1
 665 331 l 1,92,-1
 660 331 l 1,87,88
EndSplineSet
EndChar

StartChar: questiondown
Encoding: 191 191 128
Width: 335
GlyphClass: 2
Flags: W
LayerCount: 2
Fore
SplineSet
128 436 m 1,0,1
 135 447 135 447 152 462.5 c 128,-1,2
 169 478 169 478 182 486 c 1,3,4
 196 479 196 479 213 463.5 c 128,-1,5
 230 448 230 448 236 436 c 1,6,7
 229 423 229 423 211.5 403 c 128,-1,8
 194 383 194 383 182 375 c 1,9,10
 170 383 170 383 152.5 403 c 128,-1,11
 135 423 135 423 128 436 c 1,0,1
96 -79 m 0,12,13
 96 -116 96 -116 120 -134.5 c 128,-1,14
 144 -153 144 -153 181 -153 c 128,-1,15
 218 -153 218 -153 246 -139 c 1,16,17
 253 -127 253 -127 253 -107 c 128,-1,18
 253 -87 253 -87 243 -78 c 1,19,-1
 244 -71 l 1,20,21
 270 -55 270 -55 292 -31 c 1,22,23
 304 -32 304 -32 311 -40.5 c 128,-1,24
 318 -49 318 -49 318 -60 c 0,25,26
 318 -106 318 -106 264.5 -152.5 c 128,-1,27
 211 -199 211 -199 156 -215 c 1,28,29
 75 -215 75 -215 37.5 -176 c 128,-1,30
 0 -137 0 -137 0 -56 c 1,31,32
 63 34 63 34 158 129 c 1,33,34
 165 218 165 218 169 299 c 1,35,-1
 195 301 l 1,36,-1
 216 162 l 1,37,-1
 216 143 l 1,38,39
 96 23 96 23 96 -79 c 0,12,13
EndSplineSet
EndChar

StartChar: Agrave
Encoding: 192 192 129
Width: 599
GlyphClass: 2
Flags: W
LayerCount: 2
Fore
SplineSet
98 662 m 1,0,1
 212 651 212 651 336 651 c 128,-1,2
 460 651 460 651 574 662 c 1,3,-1
 578 637 l 1,4,5
 533 623 533 623 482 616 c 1,6,7
 469 520 469 520 469 325.5 c 128,-1,8
 469 131 469 131 482 35 c 1,9,10
 535 30 535 30 592 16 c 1,11,-1
 589 -8 l 1,12,13
 515 0 515 0 428.5 0 c 128,-1,14
 342 0 342 0 289 -8 c 1,15,-1
 285 17 l 1,16,17
 330 31 330 31 381 38 c 1,18,19
 389 104 389 104 392 251 c 1,20,21
 340 257 340 257 277.5 257 c 128,-1,22
 215 257 215 257 172 251 c 1,23,24
 148 153 148 153 148 94 c 128,-1,25
 148 35 148 35 191 10 c 1,26,-1
 187 -4 l 1,27,28
 156 0 156 0 82.5 0 c 128,-1,29
 9 0 9 0 -50 -8 c 1,30,-1
 -54 17 l 1,31,32
 -9 31 -9 31 42 38 c 1,33,-1
 206 619 l 1,34,35
 150 625 150 625 95 638 c 1,36,-1
 98 662 l 1,0,1
183 301 m 1,37,38
 228 294 228 294 289.5 294 c 128,-1,39
 351 294 351 294 392 301 c 1,40,41
 392 543 392 543 382 611 c 1,42,43
 351 614 351 614 320.5 614 c 128,-1,44
 290 614 290 614 258 611 c 1,45,-1
 183 301 l 1,37,38
370 731 m 1,46,-1
 164 806 l 1,47,48
 163 816 163 816 168.5 837.5 c 128,-1,49
 174 859 174 859 179 868 c 1,50,51
 199 875 199 875 221 877 c 1,52,53
 296 787 296 787 378 751 c 1,54,-1
 370 731 l 1,46,-1
EndSplineSet
EndChar

StartChar: Aacute
Encoding: 193 193 130
Width: 599
GlyphClass: 2
Flags: W
LayerCount: 2
Fore
SplineSet
98 662 m 1,0,1
 212 651 212 651 336 651 c 128,-1,2
 460 651 460 651 574 662 c 1,3,-1
 578 637 l 1,4,5
 533 623 533 623 482 616 c 1,6,7
 469 520 469 520 469 325.5 c 128,-1,8
 469 131 469 131 482 35 c 1,9,10
 535 30 535 30 592 16 c 1,11,-1
 589 -8 l 1,12,13
 515 0 515 0 428.5 0 c 128,-1,14
 342 0 342 0 289 -8 c 1,15,-1
 285 17 l 1,16,17
 330 31 330 31 381 38 c 1,18,19
 389 104 389 104 392 251 c 1,20,21
 340 257 340 257 277.5 257 c 128,-1,22
 215 257 215 257 172 251 c 1,23,24
 148 153 148 153 148 94 c 128,-1,25
 148 35 148 35 191 10 c 1,26,-1
 187 -4 l 1,27,28
 156 0 156 0 82.5 0 c 128,-1,29
 9 0 9 0 -50 -8 c 1,30,-1
 -54 17 l 1,31,32
 -9 31 -9 31 42 38 c 1,33,-1
 206 619 l 1,34,35
 150 625 150 625 95 638 c 1,36,-1
 98 662 l 1,0,1
183 301 m 1,37,38
 228 294 228 294 289.5 294 c 128,-1,39
 351 294 351 294 392 301 c 1,40,41
 392 543 392 543 382 611 c 1,42,43
 351 614 351 614 320.5 614 c 128,-1,44
 290 614 290 614 258 611 c 1,45,-1
 183 301 l 1,37,38
529 797 m 1,46,-1
 323 722 l 1,47,-1
 315 742 l 1,48,49
 397 778 397 778 472 868 c 1,50,51
 494 866 494 866 514 859 c 1,52,53
 519 850 519 850 524.5 828.5 c 128,-1,54
 530 807 530 807 529 797 c 1,46,-1
EndSplineSet
EndChar

StartChar: Acircumflex
Encoding: 194 194 131
Width: 599
GlyphClass: 2
Flags: W
LayerCount: 2
Fore
SplineSet
98 662 m 1,0,1
 212 651 212 651 336 651 c 128,-1,2
 460 651 460 651 574 662 c 1,3,-1
 578 637 l 1,4,5
 533 623 533 623 482 616 c 1,6,7
 469 520 469 520 469 325.5 c 128,-1,8
 469 131 469 131 482 35 c 1,9,10
 535 30 535 30 592 16 c 1,11,-1
 589 -8 l 1,12,13
 515 0 515 0 428.5 0 c 128,-1,14
 342 0 342 0 289 -8 c 1,15,-1
 285 17 l 1,16,17
 330 31 330 31 381 38 c 1,18,19
 389 104 389 104 392 251 c 1,20,21
 340 257 340 257 277.5 257 c 128,-1,22
 215 257 215 257 172 251 c 1,23,24
 148 153 148 153 148 94 c 128,-1,25
 148 35 148 35 191 10 c 1,26,-1
 187 -4 l 1,27,28
 156 0 156 0 82.5 0 c 128,-1,29
 9 0 9 0 -50 -8 c 1,30,-1
 -54 17 l 1,31,32
 -9 31 -9 31 42 38 c 1,33,-1
 206 619 l 1,34,35
 150 625 150 625 95 638 c 1,36,-1
 98 662 l 1,0,1
183 301 m 1,37,38
 228 294 228 294 289.5 294 c 128,-1,39
 351 294 351 294 392 301 c 1,40,41
 392 543 392 543 382 611 c 1,42,43
 351 614 351 614 320.5 614 c 128,-1,44
 290 614 290 614 258 611 c 1,45,-1
 183 301 l 1,37,38
509 715 m 1,46,-1
 348 790 l 1,47,-1
 187 715 l 1,48,-1
 177 734 l 1,49,50
 269 792 269 792 338 885 c 1,51,-1
 358 885 l 1,52,53
 427 792 427 792 519 734 c 1,54,-1
 509 715 l 1,46,-1
EndSplineSet
EndChar

StartChar: Atilde
Encoding: 195 195 132
Width: 599
GlyphClass: 2
Flags: W
LayerCount: 2
Fore
SplineSet
98 662 m 1,0,1
 212 651 212 651 336 651 c 128,-1,2
 460 651 460 651 574 662 c 1,3,-1
 578 637 l 1,4,5
 533 623 533 623 482 616 c 1,6,7
 469 520 469 520 469 325.5 c 128,-1,8
 469 131 469 131 482 35 c 1,9,10
 535 30 535 30 592 16 c 1,11,-1
 589 -8 l 1,12,13
 515 0 515 0 428.5 0 c 128,-1,14
 342 0 342 0 289 -8 c 1,15,-1
 285 17 l 1,16,17
 330 31 330 31 381 38 c 1,18,19
 389 104 389 104 392 251 c 1,20,21
 340 257 340 257 277.5 257 c 128,-1,22
 215 257 215 257 172 251 c 1,23,24
 148 153 148 153 148 94 c 128,-1,25
 148 35 148 35 191 10 c 1,26,-1
 187 -4 l 1,27,28
 156 0 156 0 82.5 0 c 128,-1,29
 9 0 9 0 -50 -8 c 1,30,-1
 -54 17 l 1,31,32
 -9 31 -9 31 42 38 c 1,33,-1
 206 619 l 1,34,35
 150 625 150 625 95 638 c 1,36,-1
 98 662 l 1,0,1
183 301 m 1,37,38
 228 294 228 294 289.5 294 c 128,-1,39
 351 294 351 294 392 301 c 1,40,41
 392 543 392 543 382 611 c 1,42,43
 351 614 351 614 320.5 614 c 128,-1,44
 290 614 290 614 258 611 c 1,45,-1
 183 301 l 1,37,38
311 837 m 1,46,47
 370 806 370 806 422.5 806 c 128,-1,48
 475 806 475 806 495 830 c 1,49,-1
 513 819 l 1,50,51
 457 758 457 758 409 737 c 1,52,53
 388 737 388 737 336.5 752.5 c 128,-1,54
 285 768 285 768 264 768 c 0,55,56
 221 768 221 768 201 744 c 1,57,-1
 183 755 l 1,58,59
 239 816 239 816 311 837 c 1,46,47
EndSplineSet
EndChar

StartChar: Adieresis
Encoding: 196 196 133
Width: 599
GlyphClass: 2
Flags: W
LayerCount: 2
Fore
SplineSet
98 662 m 1,0,1
 212 651 212 651 336 651 c 128,-1,2
 460 651 460 651 574 662 c 1,3,-1
 578 637 l 1,4,5
 533 623 533 623 482 616 c 1,6,7
 469 520 469 520 469 325.5 c 128,-1,8
 469 131 469 131 482 35 c 1,9,10
 535 30 535 30 592 16 c 1,11,-1
 589 -8 l 1,12,13
 515 0 515 0 428.5 0 c 128,-1,14
 342 0 342 0 289 -8 c 1,15,-1
 285 17 l 1,16,17
 330 31 330 31 381 38 c 1,18,19
 389 104 389 104 392 251 c 1,20,21
 340 257 340 257 277.5 257 c 128,-1,22
 215 257 215 257 172 251 c 1,23,24
 148 153 148 153 148 94 c 128,-1,25
 148 35 148 35 191 10 c 1,26,-1
 187 -4 l 1,27,28
 156 0 156 0 82.5 0 c 128,-1,29
 9 0 9 0 -50 -8 c 1,30,-1
 -54 17 l 1,31,32
 -9 31 -9 31 42 38 c 1,33,-1
 206 619 l 1,34,35
 150 625 150 625 95 638 c 1,36,-1
 98 662 l 1,0,1
183 301 m 1,37,38
 228 294 228 294 289.5 294 c 128,-1,39
 351 294 351 294 392 301 c 1,40,41
 392 543 392 543 382 611 c 1,42,43
 351 614 351 614 320.5 614 c 128,-1,44
 290 614 290 614 258 611 c 1,45,-1
 183 301 l 1,37,38
310 803 m 1,46,47
 303 790 303 790 285.5 770 c 128,-1,48
 268 750 268 750 256 742 c 1,49,50
 244 750 244 750 226.5 770 c 128,-1,51
 209 790 209 790 202 803 c 1,52,53
 208 815 208 815 225 830.5 c 128,-1,54
 242 846 242 846 256 853 c 1,55,56
 269 845 269 845 286 829.5 c 128,-1,57
 303 814 303 814 310 803 c 1,46,47
495 803 m 1,58,59
 488 790 488 790 470.5 770 c 128,-1,60
 453 750 453 750 441 742 c 1,61,62
 429 750 429 750 411.5 770 c 128,-1,63
 394 790 394 790 387 803 c 1,64,65
 393 815 393 815 410 830.5 c 128,-1,66
 427 846 427 846 441 853 c 1,67,68
 454 845 454 845 471 829.5 c 128,-1,69
 488 814 488 814 495 803 c 1,58,59
EndSplineSet
EndChar

StartChar: Aring
Encoding: 197 197 134
Width: 599
GlyphClass: 2
Flags: W
LayerCount: 2
Fore
SplineSet
98 662 m 1,0,1
 212 651 212 651 336 651 c 128,-1,2
 460 651 460 651 574 662 c 1,3,-1
 578 637 l 1,4,5
 533 623 533 623 482 616 c 1,6,7
 469 520 469 520 469 325.5 c 128,-1,8
 469 131 469 131 482 35 c 1,9,10
 535 30 535 30 592 16 c 1,11,-1
 589 -8 l 1,12,13
 515 0 515 0 428.5 0 c 128,-1,14
 342 0 342 0 289 -8 c 1,15,-1
 285 17 l 1,16,17
 330 31 330 31 381 38 c 1,18,19
 389 104 389 104 392 251 c 1,20,21
 340 257 340 257 277.5 257 c 128,-1,22
 215 257 215 257 172 251 c 1,23,24
 148 153 148 153 148 94 c 128,-1,25
 148 35 148 35 191 10 c 1,26,-1
 187 -4 l 1,27,28
 156 0 156 0 82.5 0 c 128,-1,29
 9 0 9 0 -50 -8 c 1,30,-1
 -54 17 l 1,31,32
 -9 31 -9 31 42 38 c 1,33,-1
 206 619 l 1,34,35
 150 625 150 625 95 638 c 1,36,-1
 98 662 l 1,0,1
183 301 m 1,37,38
 228 294 228 294 289.5 294 c 128,-1,39
 351 294 351 294 392 301 c 1,40,41
 392 543 392 543 382 611 c 1,42,43
 351 614 351 614 320.5 614 c 128,-1,44
 290 614 290 614 258 611 c 1,45,-1
 183 301 l 1,37,38
271 723 m 128,-1,47
 243 742 243 742 243 779.5 c 128,-1,48
 243 817 243 817 272.5 846.5 c 128,-1,49
 302 876 302 876 345 885 c 1,50,51
 436 885 436 885 436 811 c 0,52,53
 436 772 436 772 409.5 744.5 c 128,-1,54
 383 717 383 717 340 704 c 1,55,46
 299 704 299 704 271 723 c 128,-1,47
373.5 834 m 128,-1,57
 358 850 358 850 335 850 c 128,-1,58
 312 850 312 850 301 841 c 1,59,60
 290 824 290 824 290 798 c 128,-1,61
 290 772 290 772 306 755.5 c 128,-1,62
 322 739 322 739 345 739 c 128,-1,63
 368 739 368 739 378 748 c 1,64,65
 389 764 389 764 389 791 c 128,-1,56
 389 818 389 818 373.5 834 c 128,-1,57
EndSplineSet
EndChar

StartChar: AE
Encoding: 198 198 135
Width: 748
GlyphClass: 2
Flags: W
LayerCount: 2
Fore
SplineSet
134 662 m 1,0,1
 269 651 269 651 428.5 651 c 128,-1,2
 588 651 588 651 723 662 c 1,3,-1
 727 642 l 1,4,5
 675 589 675 589 668 484 c 1,6,-1
 643 484 l 1,7,8
 634 527 634 527 634 593 c 1,9,10
 591 614 591 614 534.5 614 c 128,-1,11
 478 614 478 614 450 609 c 1,12,13
 433 557 433 557 425 365 c 1,14,15
 457 358 457 358 502 358 c 0,16,17
 591 358 591 358 611 401 c 1,18,-1
 631 397 l 1,19,20
 622 365 622 365 622 320.5 c 128,-1,21
 622 276 622 276 628 233 c 1,22,-1
 605 229 l 1,23,24
 590 267 590 267 585 318 c 1,25,26
 548 321 548 321 503 321 c 128,-1,27
 458 321 458 321 424 316 c 1,28,-1
 424 273 l 2,29,30
 424 178 424 178 448 124 c 0,31,32
 474 64 474 64 560 64 c 0,33,34
 632 64 632 64 708 142 c 1,35,-1
 722 129 l 1,36,37
 639 19 639 19 539 -15 c 1,38,39
 428 -15 428 -15 385 53 c 128,-1,40
 342 121 342 121 342 241 c 0,41,42
 342 246 342 246 342 252 c 2,43,-1
 343 315 l 1,44,45
 311 321 311 321 265.5 321 c 128,-1,46
 220 321 220 321 195 315 c 1,47,-1
 181 269 l 2,48,49
 143 143 143 143 143 87.5 c 128,-1,50
 143 32 143 32 181 10 c 1,51,-1
 177 -4 l 1,52,53
 146 0 146 0 72.5 0 c 128,-1,54
 -1 0 -1 0 -60 -8 c 1,55,-1
 -64 17 l 1,56,57
 -19 31 -19 31 32 38 c 1,58,-1
 242 619 l 1,59,60
 185 625 185 625 131 638 c 1,61,-1
 134 662 l 1,0,1
213 364 m 1,62,63
 236 358 236 358 278 358 c 128,-1,64
 320 358 320 358 345 365 c 1,65,66
 351 475 351 475 353.5 511 c 128,-1,67
 356 547 356 547 356 571 c 128,-1,68
 356 595 356 595 353 611 c 1,69,70
 340 614 340 614 321 614 c 128,-1,71
 302 614 302 614 285 611 c 1,72,-1
 213 364 l 1,62,63
EndSplineSet
EndChar

StartChar: Ccedilla
Encoding: 199 199 136
Width: 498
GlyphClass: 2
Flags: W
LayerCount: 2
Fore
SplineSet
304 64 m 0,0,1
 253 64 253 64 217 86 c 0,2,3
 131 139 131 139 131 339 c 0,4,5
 131 473 131 473 182 560 c 1,6,7
 225 596 225 596 290.5 596 c 128,-1,8
 356 596 356 596 403 571 c 1,9,10
 403 518 403 518 412 478 c 1,11,-1
 437 478 l 1,12,13
 445 557 445 557 470 616 c 1,14,15
 492 625 492 625 518 625 c 1,16,-1
 519 647 l 1,17,18
 414 666 414 666 313 666 c 1,19,20
 189 632 189 632 115.5 517.5 c 128,-1,21
 42 403 42 403 42 269.5 c 128,-1,22
 42 136 42 136 102.5 60.5 c 128,-1,23
 163 -15 163 -15 283 -15 c 1,24,25
 398 23 398 23 481 129 c 1,26,-1
 467 142 l 1,27,28
 385 64 385 64 304 64 c 0,0,1
263 -178 m 0,29,30
 281 -178 281 -178 289 -173 c 1,31,32
 298 -160 298 -160 298 -142 c 0,33,34
 298 -97 298 -97 215 -97 c 1,35,-1
 209 -93 l 1,36,-1
 247 14 l 1,37,-1
 276 16 l 1,38,-1
 252 -46 l 1,39,-1
 256 -49 l 1,40,41
 302 -49 302 -49 330.5 -70 c 128,-1,42
 359 -91 359 -91 359 -133 c 1,43,44
 345 -160 345 -160 318.5 -182.5 c 128,-1,45
 292 -205 292 -205 263 -215 c 1,46,47
 219 -215 219 -215 175 -194 c 1,48,49
 185 -175 185 -175 191 -155 c 1,50,-1
 195 -153 l 1,51,52
 227 -178 227 -178 263 -178 c 0,29,30
EndSplineSet
EndChar

StartChar: Egrave
Encoding: 200 200 137
Width: 512
GlyphClass: 2
Flags: W
LayerCount: 2
Fore
SplineSet
304 64 m 0,0,1
 385 64 385 64 467 142 c 1,2,-1
 481 129 l 1,3,4
 398 23 398 23 283 -15 c 1,5,6
 163 -15 163 -15 102.5 60.5 c 128,-1,7
 42 136 42 136 42 269.5 c 128,-1,8
 42 403 42 403 115.5 517.5 c 128,-1,9
 189 632 189 632 313 666 c 1,10,11
 414 666 414 666 519 647 c 1,12,-1
 518 625 l 1,13,14
 492 625 492 625 470 616 c 1,15,16
 445 557 445 557 437 478 c 1,17,-1
 412 478 l 1,18,19
 403 518 403 518 403 571 c 1,20,21
 356 596 356 596 290.5 596 c 128,-1,22
 225 596 225 596 182 560 c 1,23,24
 137 483 137 483 132 373 c 1,25,26
 175 365 175 365 244 365 c 0,27,28
 355 365 355 365 376 408 c 1,29,-1
 396 404 l 1,30,31
 387 372 387 372 387 328 c 128,-1,32
 387 284 387 284 393 240 c 1,33,-1
 370 236 l 1,34,35
 355 274 355 274 350 325 c 1,36,37
 312 328 312 328 241.5 328 c 128,-1,38
 171 328 171 328 131 323 c 1,39,40
 134 135 134 135 220 84 c 0,41,42
 254 64 254 64 304 64 c 0,0,1
362 731 m 1,43,-1
 156 806 l 1,44,45
 155 816 155 816 160.5 837.5 c 128,-1,46
 166 859 166 859 171 868 c 1,47,48
 191 875 191 875 213 877 c 1,49,50
 288 787 288 787 370 751 c 1,51,-1
 362 731 l 1,43,-1
EndSplineSet
EndChar

StartChar: Eacute
Encoding: 201 201 138
Width: 512
GlyphClass: 2
Flags: W
LayerCount: 2
Fore
SplineSet
304 64 m 0,0,1
 385 64 385 64 467 142 c 1,2,-1
 481 129 l 1,3,4
 398 23 398 23 283 -15 c 1,5,6
 163 -15 163 -15 102.5 60.5 c 128,-1,7
 42 136 42 136 42 269.5 c 128,-1,8
 42 403 42 403 115.5 517.5 c 128,-1,9
 189 632 189 632 313 666 c 1,10,11
 414 666 414 666 519 647 c 1,12,-1
 518 625 l 1,13,14
 492 625 492 625 470 616 c 1,15,16
 445 557 445 557 437 478 c 1,17,-1
 412 478 l 1,18,19
 403 518 403 518 403 571 c 1,20,21
 356 596 356 596 290.5 596 c 128,-1,22
 225 596 225 596 182 560 c 1,23,24
 137 483 137 483 132 373 c 1,25,26
 175 365 175 365 244 365 c 0,27,28
 355 365 355 365 376 408 c 1,29,-1
 396 404 l 1,30,31
 387 372 387 372 387 328 c 128,-1,32
 387 284 387 284 393 240 c 1,33,-1
 370 236 l 1,34,35
 355 274 355 274 350 325 c 1,36,37
 312 328 312 328 241.5 328 c 128,-1,38
 171 328 171 328 131 323 c 1,39,40
 134 135 134 135 220 84 c 0,41,42
 254 64 254 64 304 64 c 0,0,1
456 797 m 1,43,-1
 250 722 l 1,44,-1
 242 742 l 1,45,46
 324 778 324 778 399 868 c 1,47,48
 421 866 421 866 441 859 c 1,49,50
 446 850 446 850 451.5 828.5 c 128,-1,51
 457 807 457 807 456 797 c 1,43,-1
EndSplineSet
EndChar

StartChar: Ecircumflex
Encoding: 202 202 139
Width: 512
GlyphClass: 2
Flags: W
LayerCount: 2
Fore
SplineSet
304 64 m 0,0,1
 385 64 385 64 467 142 c 1,2,-1
 481 129 l 1,3,4
 398 23 398 23 283 -15 c 1,5,6
 163 -15 163 -15 102.5 60.5 c 128,-1,7
 42 136 42 136 42 269.5 c 128,-1,8
 42 403 42 403 115.5 517.5 c 128,-1,9
 189 632 189 632 313 666 c 1,10,11
 414 666 414 666 519 647 c 1,12,-1
 518 625 l 1,13,14
 492 625 492 625 470 616 c 1,15,16
 445 557 445 557 437 478 c 1,17,-1
 412 478 l 1,18,19
 403 518 403 518 403 571 c 1,20,21
 356 596 356 596 290.5 596 c 128,-1,22
 225 596 225 596 182 560 c 1,23,24
 137 483 137 483 132 373 c 1,25,26
 175 365 175 365 244 365 c 0,27,28
 355 365 355 365 376 408 c 1,29,-1
 396 404 l 1,30,31
 387 372 387 372 387 328 c 128,-1,32
 387 284 387 284 393 240 c 1,33,-1
 370 236 l 1,34,35
 355 274 355 274 350 325 c 1,36,37
 312 328 312 328 241.5 328 c 128,-1,38
 171 328 171 328 131 323 c 1,39,40
 134 135 134 135 220 84 c 0,41,42
 254 64 254 64 304 64 c 0,0,1
472 715 m 1,43,-1
 311 790 l 1,44,-1
 150 715 l 1,45,-1
 140 734 l 1,46,47
 232 792 232 792 301 885 c 1,48,-1
 321 885 l 1,49,50
 390 792 390 792 482 734 c 1,51,-1
 472 715 l 1,43,-1
EndSplineSet
EndChar

StartChar: Edieresis
Encoding: 203 203 140
Width: 512
GlyphClass: 2
Flags: W
LayerCount: 2
Fore
SplineSet
304 64 m 0,0,1
 385 64 385 64 467 142 c 1,2,-1
 481 129 l 1,3,4
 398 23 398 23 283 -15 c 1,5,6
 163 -15 163 -15 102.5 60.5 c 128,-1,7
 42 136 42 136 42 269.5 c 128,-1,8
 42 403 42 403 115.5 517.5 c 128,-1,9
 189 632 189 632 313 666 c 1,10,11
 414 666 414 666 519 647 c 1,12,-1
 518 625 l 1,13,14
 492 625 492 625 470 616 c 1,15,16
 445 557 445 557 437 478 c 1,17,-1
 412 478 l 1,18,19
 403 518 403 518 403 571 c 1,20,21
 356 596 356 596 290.5 596 c 128,-1,22
 225 596 225 596 182 560 c 1,23,24
 137 483 137 483 132 373 c 1,25,26
 175 365 175 365 244 365 c 0,27,28
 355 365 355 365 376 408 c 1,29,-1
 396 404 l 1,30,31
 387 372 387 372 387 328 c 128,-1,32
 387 284 387 284 393 240 c 1,33,-1
 370 236 l 1,34,35
 355 274 355 274 350 325 c 1,36,37
 312 328 312 328 241.5 328 c 128,-1,38
 171 328 171 328 131 323 c 1,39,40
 134 135 134 135 220 84 c 0,41,42
 254 64 254 64 304 64 c 0,0,1
272 803 m 1,43,44
 265 790 265 790 247.5 770 c 128,-1,45
 230 750 230 750 218 742 c 1,46,47
 206 750 206 750 188.5 770 c 128,-1,48
 171 790 171 790 164 803 c 1,49,50
 170 815 170 815 187 830.5 c 128,-1,51
 204 846 204 846 218 853 c 1,52,53
 231 845 231 845 248 829.5 c 128,-1,54
 265 814 265 814 272 803 c 1,43,44
457 803 m 1,55,56
 450 790 450 790 432.5 770 c 128,-1,57
 415 750 415 750 403 742 c 1,58,59
 391 750 391 750 373.5 770 c 128,-1,60
 356 790 356 790 349 803 c 1,61,62
 355 815 355 815 372 830.5 c 128,-1,63
 389 846 389 846 403 853 c 1,64,65
 416 845 416 845 433 829.5 c 128,-1,66
 450 814 450 814 457 803 c 1,55,56
EndSplineSet
EndChar

StartChar: Igrave
Encoding: 204 204 141
Width: 337
GlyphClass: 2
Flags: W
LayerCount: 2
Fore
SplineSet
218 616 m 1,0,1
 207 541 207 541 207 336 c 128,-1,2
 207 131 207 131 220 35 c 1,3,4
 273 30 273 30 330 16 c 1,5,-1
 327 -8 l 1,6,7
 253 0 253 0 166.5 0 c 128,-1,8
 80 0 80 0 27 -8 c 1,9,-1
 23 17 l 1,10,11
 68 31 68 31 119 38 c 1,12,13
 130 120 130 120 130 296 c 2,14,-1
 130 355 l 2,15,16
 130 517 130 517 117 613 c 1,17,18
 66 620 66 620 21 634 c 1,19,-1
 25 659 l 1,20,21
 78 651 78 651 164.5 651 c 128,-1,22
 251 651 251 651 325 659 c 1,23,-1
 328 635 l 1,24,25
 271 621 271 621 218 616 c 1,0,1
243 731 m 1,26,-1
 37 806 l 1,27,28
 36 816 36 816 41.5 837.5 c 128,-1,29
 47 859 47 859 52 868 c 1,30,31
 72 875 72 875 94 877 c 1,32,33
 169 787 169 787 251 751 c 1,34,-1
 243 731 l 1,26,-1
EndSplineSet
EndChar

StartChar: Iacute
Encoding: 205 205 142
Width: 337
GlyphClass: 2
Flags: W
LayerCount: 2
Fore
SplineSet
218 616 m 1,0,1
 207 541 207 541 207 336 c 128,-1,2
 207 131 207 131 220 35 c 1,3,4
 273 30 273 30 330 16 c 1,5,-1
 327 -8 l 1,6,7
 253 0 253 0 166.5 0 c 128,-1,8
 80 0 80 0 27 -8 c 1,9,-1
 23 17 l 1,10,11
 68 31 68 31 119 38 c 1,12,13
 130 120 130 120 130 296 c 2,14,-1
 130 355 l 2,15,16
 130 517 130 517 117 613 c 1,17,18
 66 620 66 620 21 634 c 1,19,-1
 25 659 l 1,20,21
 78 651 78 651 164.5 651 c 128,-1,22
 251 651 251 651 325 659 c 1,23,-1
 328 635 l 1,24,25
 271 621 271 621 218 616 c 1,0,1
315 797 m 1,26,-1
 109 722 l 1,27,-1
 101 742 l 1,28,29
 183 778 183 778 258 868 c 1,30,31
 280 866 280 866 300 859 c 1,32,33
 305 850 305 850 310.5 828.5 c 128,-1,34
 316 807 316 807 315 797 c 1,26,-1
EndSplineSet
EndChar

StartChar: Icircumflex
Encoding: 206 206 143
Width: 337
GlyphClass: 2
Flags: W
LayerCount: 2
Fore
SplineSet
218 616 m 1,0,1
 207 541 207 541 207 336 c 128,-1,2
 207 131 207 131 220 35 c 1,3,4
 273 30 273 30 330 16 c 1,5,-1
 327 -8 l 1,6,7
 253 0 253 0 166.5 0 c 128,-1,8
 80 0 80 0 27 -8 c 1,9,-1
 23 17 l 1,10,11
 68 31 68 31 119 38 c 1,12,13
 130 120 130 120 130 296 c 2,14,-1
 130 355 l 2,15,16
 130 517 130 517 117 613 c 1,17,18
 66 620 66 620 21 634 c 1,19,-1
 25 659 l 1,20,21
 78 651 78 651 164.5 651 c 128,-1,22
 251 651 251 651 325 659 c 1,23,-1
 328 635 l 1,24,25
 271 621 271 621 218 616 c 1,0,1
335 715 m 1,26,-1
 174 790 l 1,27,-1
 13 715 l 1,28,-1
 3 734 l 1,29,30
 95 792 95 792 164 885 c 1,31,-1
 184 885 l 1,32,33
 253 792 253 792 345 734 c 1,34,-1
 335 715 l 1,26,-1
EndSplineSet
EndChar

StartChar: Idieresis
Encoding: 207 207 144
Width: 337
GlyphClass: 2
Flags: W
LayerCount: 2
Fore
SplineSet
218 616 m 1,0,1
 207 541 207 541 207 336 c 128,-1,2
 207 131 207 131 220 35 c 1,3,4
 273 30 273 30 330 16 c 1,5,-1
 327 -8 l 1,6,7
 253 0 253 0 166.5 0 c 128,-1,8
 80 0 80 0 27 -8 c 1,9,-1
 23 17 l 1,10,11
 68 31 68 31 119 38 c 1,12,13
 130 120 130 120 130 296 c 2,14,-1
 130 355 l 2,15,16
 130 517 130 517 117 613 c 1,17,18
 66 620 66 620 21 634 c 1,19,-1
 25 659 l 1,20,21
 78 651 78 651 164.5 651 c 128,-1,22
 251 651 251 651 325 659 c 1,23,-1
 328 635 l 1,24,25
 271 621 271 621 218 616 c 1,0,1
135 803 m 1,26,27
 128 790 128 790 110.5 770 c 128,-1,28
 93 750 93 750 81 742 c 1,29,30
 69 750 69 750 51.5 770 c 128,-1,31
 34 790 34 790 27 803 c 1,32,33
 33 815 33 815 50 830.5 c 128,-1,34
 67 846 67 846 81 853 c 1,35,36
 94 845 94 845 111 829.5 c 128,-1,37
 128 814 128 814 135 803 c 1,26,27
320 803 m 1,38,39
 313 790 313 790 295.5 770 c 128,-1,40
 278 750 278 750 266 742 c 1,41,42
 254 750 254 750 236.5 770 c 128,-1,43
 219 790 219 790 212 803 c 1,44,45
 218 815 218 815 235 830.5 c 128,-1,46
 252 846 252 846 266 853 c 1,47,48
 279 845 279 845 296 829.5 c 128,-1,49
 313 814 313 814 320 803 c 1,38,39
EndSplineSet
EndChar

StartChar: Eth
Encoding: 208 208 145
Width: 619
GlyphClass: 2
Flags: W
LayerCount: 2
Fore
SplineSet
16 649 m 1,0,-1
 304 658 l 1,1,2
 438 658 438 658 507.5 589 c 128,-1,3
 577 520 577 520 577 383.5 c 128,-1,4
 577 247 577 247 504 134 c 128,-1,5
 431 21 431 21 306 -15 c 1,6,7
 234 -15 234 -15 145 23 c 1,8,9
 128 -3 128 -3 122 -22 c 1,10,-1
 101 -17 l 1,11,12
 125 91 125 91 125 324 c 1,13,14
 63 321 63 321 19 315 c 1,15,-1
 16 319 l 1,16,17
 22 339 22 339 23 351 c 1,18,-1
 125 354 l 1,19,20
 124 504 124 504 114 608 c 1,21,22
 66 624 66 624 16 624 c 1,23,-1
 16 649 l 1,0,-1
207 85 m 1,24,25
 261 57 261 57 330 57 c 128,-1,26
 399 57 399 57 437 91 c 1,27,28
 488 184 488 184 488 320 c 0,29,30
 488 444 488 444 446 528 c 0,31,32
 424 572 424 572 383.5 596.5 c 128,-1,33
 343 621 343 621 295 621 c 128,-1,34
 247 621 247 621 211 608 c 1,35,36
 202 521 202 521 202 357 c 1,37,-1
 264 359 l 2,38,39
 328 362 328 362 348 364 c 1,40,41
 352 344 352 344 357 333 c 1,42,-1
 357 328 l 1,43,-1
 235 326 l 1,44,-1
 202 325 l 1,45,46
 202 173 202 173 207 85 c 1,24,25
EndSplineSet
EndChar

StartChar: Ntilde
Encoding: 209 209 146
Width: 706
GlyphClass: 2
Flags: W
LayerCount: 2
Fore
SplineSet
25 659 m 1,0,1
 75 651 75 651 154.5 651 c 128,-1,2
 234 651 234 651 278 657 c 1,3,-1
 283 641 l 1,4,5
 271 637 271 637 260 628.5 c 128,-1,6
 249 620 249 620 249 610 c 0,7,8
 249 586 249 586 300 498 c 128,-1,9
 351 410 351 410 524 140 c 1,10,-1
 528 142 l 1,11,-1
 528 286 l 2,12,13
 528 454 528 454 511 540 c 128,-1,14
 494 626 494 626 451 641 c 1,15,-1
 455 655 l 1,16,17
 486 651 486 651 556 651 c 128,-1,18
 626 651 626 651 685 659 c 1,19,-1
 688 636 l 1,20,21
 617 619 617 619 589 616 c 1,22,23
 576 518 576 518 576 355 c 2,24,-1
 576 296 l 2,25,26
 576 109 576 109 589 35 c 1,27,28
 640 29 640 29 685 17 c 1,29,-1
 681 -8 l 1,30,31
 628 0 628 0 574.5 0 c 128,-1,32
 521 0 521 0 488 -3 c 1,33,34
 488 66 488 66 187 535 c 1,35,-1
 183 533 l 1,36,-1
 183 365 l 2,37,38
 183 110 183 110 220 35 c 1,39,40
 275 30 275 30 329 16 c 1,41,-1
 327 -8 l 1,42,43
 253 0 253 0 166.5 0 c 128,-1,44
 80 0 80 0 27 -8 c 1,45,-1
 23 17 l 1,46,47
 68 31 68 31 119 38 c 1,48,49
 130 120 130 120 130 296 c 2,50,-1
 130 355 l 2,51,52
 130 517 130 517 117 613 c 1,53,54
 66 620 66 620 21 634 c 1,55,-1
 25 659 l 1,0,1
329 837 m 1,56,57
 388 806 388 806 440.5 806 c 128,-1,58
 493 806 493 806 513 830 c 1,59,-1
 531 819 l 1,60,61
 475 758 475 758 427 737 c 1,62,63
 406 737 406 737 354.5 752.5 c 128,-1,64
 303 768 303 768 282 768 c 0,65,66
 239 768 239 768 219 744 c 1,67,-1
 201 755 l 1,68,69
 257 816 257 816 329 837 c 1,56,57
EndSplineSet
EndChar

StartChar: Ograve
Encoding: 210 210 147
Width: 602
GlyphClass: 2
Flags: W
LayerCount: 2
Fore
SplineSet
113 62.5 m 128,-1,1
 42 140 42 140 42 272 c 128,-1,2
 42 404 42 404 116.5 518.5 c 128,-1,3
 191 633 191 633 313 666 c 1,4,5
 435 666 435 666 497.5 593 c 128,-1,6
 560 520 560 520 560 384.5 c 128,-1,7
 560 249 560 249 491.5 140.5 c 128,-1,8
 423 32 423 32 301 -15 c 1,9,0
 184 -15 184 -15 113 62.5 c 128,-1,1
276 594 m 0,10,11
 220 594 220 594 182 560 c 1,12,13
 131 470 131 470 131 339 c 0,14,15
 131 183 131 183 215 101 c 0,16,17
 260 57 260 57 320.5 57 c 128,-1,18
 381 57 381 57 421 92 c 1,19,20
 471 184 471 184 471 310 c 0,21,22
 471 427 471 427 431 506 c 0,23,24
 387 594 387 594 276 594 c 0,10,11
385 731 m 1,25,-1
 179 806 l 1,26,27
 178 816 178 816 183.5 837.5 c 128,-1,28
 189 859 189 859 194 868 c 1,29,30
 214 875 214 875 236 877 c 1,31,32
 311 787 311 787 393 751 c 1,33,-1
 385 731 l 1,25,-1
EndSplineSet
EndChar

StartChar: Oacute
Encoding: 211 211 148
Width: 602
GlyphClass: 2
Flags: W
LayerCount: 2
Fore
SplineSet
113 62.5 m 128,-1,1
 42 140 42 140 42 272 c 128,-1,2
 42 404 42 404 116.5 518.5 c 128,-1,3
 191 633 191 633 313 666 c 1,4,5
 435 666 435 666 497.5 593 c 128,-1,6
 560 520 560 520 560 384.5 c 128,-1,7
 560 249 560 249 491.5 140.5 c 128,-1,8
 423 32 423 32 301 -15 c 1,9,0
 184 -15 184 -15 113 62.5 c 128,-1,1
276 594 m 0,10,11
 220 594 220 594 182 560 c 1,12,13
 131 470 131 470 131 339 c 0,14,15
 131 183 131 183 215 101 c 0,16,17
 260 57 260 57 320.5 57 c 128,-1,18
 381 57 381 57 421 92 c 1,19,20
 471 184 471 184 471 310 c 0,21,22
 471 427 471 427 431 506 c 0,23,24
 387 594 387 594 276 594 c 0,10,11
485 797 m 1,25,-1
 279 722 l 1,26,-1
 271 742 l 1,27,28
 353 778 353 778 428 868 c 1,29,30
 450 866 450 866 470 859 c 1,31,32
 475 850 475 850 480.5 828.5 c 128,-1,33
 486 807 486 807 485 797 c 1,25,-1
EndSplineSet
EndChar

StartChar: Ocircumflex
Encoding: 212 212 149
Width: 602
GlyphClass: 2
Flags: W
LayerCount: 2
Fore
SplineSet
113 62.5 m 128,-1,1
 42 140 42 140 42 272 c 128,-1,2
 42 404 42 404 116.5 518.5 c 128,-1,3
 191 633 191 633 313 666 c 1,4,5
 435 666 435 666 497.5 593 c 128,-1,6
 560 520 560 520 560 384.5 c 128,-1,7
 560 249 560 249 491.5 140.5 c 128,-1,8
 423 32 423 32 301 -15 c 1,9,0
 184 -15 184 -15 113 62.5 c 128,-1,1
276 594 m 0,10,11
 220 594 220 594 182 560 c 1,12,13
 131 470 131 470 131 339 c 0,14,15
 131 183 131 183 215 101 c 0,16,17
 260 57 260 57 320.5 57 c 128,-1,18
 381 57 381 57 421 92 c 1,19,20
 471 184 471 184 471 310 c 0,21,22
 471 427 471 427 431 506 c 0,23,24
 387 594 387 594 276 594 c 0,10,11
482 715 m 1,25,-1
 321 790 l 1,26,-1
 160 715 l 1,27,-1
 150 734 l 1,28,29
 242 792 242 792 311 885 c 1,30,-1
 331 885 l 1,31,32
 400 792 400 792 492 734 c 1,33,-1
 482 715 l 1,25,-1
EndSplineSet
EndChar

StartChar: Otilde
Encoding: 213 213 150
Width: 602
GlyphClass: 2
Flags: W
LayerCount: 2
Fore
SplineSet
113 62.5 m 128,-1,1
 42 140 42 140 42 272 c 128,-1,2
 42 404 42 404 116.5 518.5 c 128,-1,3
 191 633 191 633 313 666 c 1,4,5
 435 666 435 666 497.5 593 c 128,-1,6
 560 520 560 520 560 384.5 c 128,-1,7
 560 249 560 249 491.5 140.5 c 128,-1,8
 423 32 423 32 301 -15 c 1,9,0
 184 -15 184 -15 113 62.5 c 128,-1,1
276 594 m 0,10,11
 220 594 220 594 182 560 c 1,12,13
 131 470 131 470 131 339 c 0,14,15
 131 183 131 183 215 101 c 0,16,17
 260 57 260 57 320.5 57 c 128,-1,18
 381 57 381 57 421 92 c 1,19,20
 471 184 471 184 471 310 c 0,21,22
 471 427 471 427 431 506 c 0,23,24
 387 594 387 594 276 594 c 0,10,11
285 837 m 1,25,26
 344 806 344 806 396.5 806 c 128,-1,27
 449 806 449 806 469 830 c 1,28,-1
 487 819 l 1,29,30
 431 758 431 758 383 737 c 1,31,32
 362 737 362 737 310.5 752.5 c 128,-1,33
 259 768 259 768 238 768 c 0,34,35
 195 768 195 768 175 744 c 1,36,-1
 157 755 l 1,37,38
 213 816 213 816 285 837 c 1,25,26
EndSplineSet
EndChar

StartChar: Odieresis
Encoding: 214 214 151
Width: 602
GlyphClass: 2
Flags: W
LayerCount: 2
Fore
SplineSet
113 62.5 m 128,-1,1
 42 140 42 140 42 272 c 128,-1,2
 42 404 42 404 116.5 518.5 c 128,-1,3
 191 633 191 633 313 666 c 1,4,5
 435 666 435 666 497.5 593 c 128,-1,6
 560 520 560 520 560 384.5 c 128,-1,7
 560 249 560 249 491.5 140.5 c 128,-1,8
 423 32 423 32 301 -15 c 1,9,0
 184 -15 184 -15 113 62.5 c 128,-1,1
276 594 m 0,10,11
 220 594 220 594 182 560 c 1,12,13
 131 470 131 470 131 339 c 0,14,15
 131 183 131 183 215 101 c 0,16,17
 260 57 260 57 320.5 57 c 128,-1,18
 381 57 381 57 421 92 c 1,19,20
 471 184 471 184 471 310 c 0,21,22
 471 427 471 427 431 506 c 0,23,24
 387 594 387 594 276 594 c 0,10,11
283 803 m 1,25,26
 276 790 276 790 258.5 770 c 128,-1,27
 241 750 241 750 229 742 c 1,28,29
 217 750 217 750 199.5 770 c 128,-1,30
 182 790 182 790 175 803 c 1,31,32
 181 815 181 815 198 830.5 c 128,-1,33
 215 846 215 846 229 853 c 1,34,35
 242 845 242 845 259 829.5 c 128,-1,36
 276 814 276 814 283 803 c 1,25,26
468 803 m 1,37,38
 461 790 461 790 443.5 770 c 128,-1,39
 426 750 426 750 414 742 c 1,40,41
 402 750 402 750 384.5 770 c 128,-1,42
 367 790 367 790 360 803 c 1,43,44
 366 815 366 815 383 830.5 c 128,-1,45
 400 846 400 846 414 853 c 1,46,47
 427 845 427 845 444 829.5 c 128,-1,48
 461 814 461 814 468 803 c 1,37,38
EndSplineSet
EndChar

StartChar: multiply
Encoding: 215 215 152
Width: 550
GlyphClass: 2
Flags: W
LayerCount: 2
Fore
SplineSet
427 425 m 1,0,-1
 465 390 l 1,1,-1
 311 239 l 1,2,3
 348 201 348 201 405.5 150 c 128,-1,4
 463 99 463 99 475 89 c 1,5,-1
 447 50 l 1,6,-1
 436 50 l 1,7,-1
 278 205 l 1,8,-1
 120 50 l 1,9,-1
 109 50 l 1,10,-1
 81 89 l 1,11,12
 211 205 211 205 244 239 c 1,13,-1
 91 390 l 1,14,-1
 129 425 l 1,15,-1
 137 424 l 1,16,17
 180 376 180 376 278 273 c 1,18,-1
 419 424 l 1,19,-1
 427 425 l 1,0,-1
EndSplineSet
EndChar

StartChar: Oslash
Encoding: 216 216 153
Width: 602
GlyphClass: 2
Flags: W
LayerCount: 2
Fore
SplineSet
42 265 m 0,0,1
 42 404 42 404 116.5 518.5 c 128,-1,2
 191 633 191 633 313 666 c 1,3,4
 357 666 357 666 396 655 c 1,5,-1
 421 732 l 1,6,7
 444 734 444 734 459 739 c 1,8,-1
 463 736 l 1,9,10
 449 704 449 704 426 645 c 1,11,12
 560 586 560 586 560 387 c 0,13,14
 560 249 560 249 491.5 140.5 c 128,-1,15
 423 32 423 32 301 -15 c 1,16,17
 241 -15 241 -15 184 10 c 1,18,-1
 148 -87 l 1,19,-1
 143 -87 l 1,20,21
 127 -78 127 -78 117 -63 c 1,22,-1
 156 26 l 1,23,24
 102 62 102 62 72 124 c 128,-1,25
 42 186 42 186 42 265 c 0,0,1
217 97 m 1,26,27
 262 57 262 57 321.5 57 c 128,-1,28
 381 57 381 57 421 92 c 1,29,30
 471 184 471 184 471 310 c 0,31,32
 471 487 471 487 392 556 c 1,33,-1
 217 97 l 1,26,27
368 573 m 1,34,35
 329 594 329 594 274.5 594 c 128,-1,36
 220 594 220 594 182 560 c 1,37,38
 131 470 131 470 131 337 c 128,-1,39
 131 204 131 204 195 121 c 1,40,-1
 368 573 l 1,34,35
EndSplineSet
EndChar

StartChar: Ugrave
Encoding: 217 217 154
Width: 665
GlyphClass: 2
Flags: W
LayerCount: 2
Fore
SplineSet
197 549 m 0,0,1
 183 423 183 423 183 329.5 c 128,-1,2
 183 236 183 236 186 206.5 c 128,-1,3
 189 177 189 177 198 149 c 128,-1,4
 207 121 207 121 222 103 c 0,5,6
 256 64 256 64 328 64 c 128,-1,7
 400 64 400 64 453 112 c 1,8,9
 458 242 458 242 458 372 c 128,-1,10
 458 502 458 502 447 616 c 1,11,12
 396 623 396 623 351 637 c 1,13,-1
 355 659 l 1,14,15
 416 651 416 651 503.5 651 c 128,-1,16
 591 651 591 651 655 659 c 1,17,-1
 658 638 l 1,18,19
 601 624 601 624 548 619 c 1,20,21
 535 545 535 545 535 355 c 2,22,-1
 535 296 l 2,23,24
 535 109 535 109 548 35 c 1,25,26
 601 30 601 30 658 16 c 1,27,-1
 655 -8 l 1,28,29
 591 0 591 0 525 0 c 128,-1,30
 459 0 459 0 441 -1 c 1,31,-1
 438 13 l 1,32,33
 447 24 447 24 451 84 c 1,34,35
 393 19 393 19 305 -15 c 1,36,37
 194 -15 194 -15 148.5 50.5 c 128,-1,38
 103 116 103 116 103 241 c 0,39,40
 103 298 103 298 110 422 c 128,-1,41
 117 546 117 546 117 569 c 128,-1,42
 117 592 117 592 110 613 c 1,43,44
 59 620 59 620 14 634 c 1,45,-1
 18 659 l 1,46,47
 77 651 77 651 145.5 651 c 128,-1,48
 214 651 214 651 245 655 c 1,49,-1
 249 641 l 1,50,51
 204 616 204 616 197 549 c 0,0,1
394 731 m 1,52,-1
 188 806 l 1,53,54
 187 816 187 816 192.5 837.5 c 128,-1,55
 198 859 198 859 203 868 c 1,56,57
 223 875 223 875 245 877 c 1,58,59
 320 787 320 787 402 751 c 1,60,-1
 394 731 l 1,52,-1
EndSplineSet
EndChar

StartChar: Uacute
Encoding: 218 218 155
Width: 665
GlyphClass: 2
Flags: W
LayerCount: 2
Fore
SplineSet
197 549 m 0,0,1
 183 423 183 423 183 329.5 c 128,-1,2
 183 236 183 236 186 206.5 c 128,-1,3
 189 177 189 177 198 149 c 128,-1,4
 207 121 207 121 222 103 c 0,5,6
 256 64 256 64 328 64 c 128,-1,7
 400 64 400 64 453 112 c 1,8,9
 458 242 458 242 458 372 c 128,-1,10
 458 502 458 502 447 616 c 1,11,12
 396 623 396 623 351 637 c 1,13,-1
 355 659 l 1,14,15
 416 651 416 651 503.5 651 c 128,-1,16
 591 651 591 651 655 659 c 1,17,-1
 658 638 l 1,18,19
 601 624 601 624 548 619 c 1,20,21
 535 545 535 545 535 355 c 2,22,-1
 535 296 l 2,23,24
 535 109 535 109 548 35 c 1,25,26
 601 30 601 30 658 16 c 1,27,-1
 655 -8 l 1,28,29
 591 0 591 0 525 0 c 128,-1,30
 459 0 459 0 441 -1 c 1,31,-1
 438 13 l 1,32,33
 447 24 447 24 451 84 c 1,34,35
 393 19 393 19 305 -15 c 1,36,37
 194 -15 194 -15 148.5 50.5 c 128,-1,38
 103 116 103 116 103 241 c 0,39,40
 103 298 103 298 110 422 c 128,-1,41
 117 546 117 546 117 569 c 128,-1,42
 117 592 117 592 110 613 c 1,43,44
 59 620 59 620 14 634 c 1,45,-1
 18 659 l 1,46,47
 77 651 77 651 145.5 651 c 128,-1,48
 214 651 214 651 245 655 c 1,49,-1
 249 641 l 1,50,51
 204 616 204 616 197 549 c 0,0,1
519 797 m 1,52,-1
 313 722 l 1,53,-1
 305 742 l 1,54,55
 387 778 387 778 462 868 c 1,56,57
 484 866 484 866 504 859 c 1,58,59
 509 850 509 850 514.5 828.5 c 128,-1,60
 520 807 520 807 519 797 c 1,52,-1
EndSplineSet
EndChar

StartChar: Ucircumflex
Encoding: 219 219 156
Width: 665
GlyphClass: 2
Flags: W
LayerCount: 2
Fore
SplineSet
197 549 m 0,0,1
 183 423 183 423 183 329.5 c 128,-1,2
 183 236 183 236 186 206.5 c 128,-1,3
 189 177 189 177 198 149 c 128,-1,4
 207 121 207 121 222 103 c 0,5,6
 256 64 256 64 328 64 c 128,-1,7
 400 64 400 64 453 112 c 1,8,9
 458 242 458 242 458 372 c 128,-1,10
 458 502 458 502 447 616 c 1,11,12
 396 623 396 623 351 637 c 1,13,-1
 355 659 l 1,14,15
 416 651 416 651 503.5 651 c 128,-1,16
 591 651 591 651 655 659 c 1,17,-1
 658 638 l 1,18,19
 601 624 601 624 548 619 c 1,20,21
 535 545 535 545 535 355 c 2,22,-1
 535 296 l 2,23,24
 535 109 535 109 548 35 c 1,25,26
 601 30 601 30 658 16 c 1,27,-1
 655 -8 l 1,28,29
 591 0 591 0 525 0 c 128,-1,30
 459 0 459 0 441 -1 c 1,31,-1
 438 13 l 1,32,33
 447 24 447 24 451 84 c 1,34,35
 393 19 393 19 305 -15 c 1,36,37
 194 -15 194 -15 148.5 50.5 c 128,-1,38
 103 116 103 116 103 241 c 0,39,40
 103 298 103 298 110 422 c 128,-1,41
 117 546 117 546 117 569 c 128,-1,42
 117 592 117 592 110 613 c 1,43,44
 59 620 59 620 14 634 c 1,45,-1
 18 659 l 1,46,47
 77 651 77 651 145.5 651 c 128,-1,48
 214 651 214 651 245 655 c 1,49,-1
 249 641 l 1,50,51
 204 616 204 616 197 549 c 0,0,1
504 715 m 1,52,-1
 343 790 l 1,53,-1
 182 715 l 1,54,-1
 172 734 l 1,55,56
 264 792 264 792 333 885 c 1,57,-1
 353 885 l 1,58,59
 422 792 422 792 514 734 c 1,60,-1
 504 715 l 1,52,-1
EndSplineSet
EndChar

StartChar: Udieresis
Encoding: 220 220 157
Width: 665
GlyphClass: 2
Flags: W
LayerCount: 2
Fore
SplineSet
197 549 m 0,0,1
 183 423 183 423 183 329.5 c 128,-1,2
 183 236 183 236 186 206.5 c 128,-1,3
 189 177 189 177 198 149 c 128,-1,4
 207 121 207 121 222 103 c 0,5,6
 256 64 256 64 328 64 c 128,-1,7
 400 64 400 64 453 112 c 1,8,9
 458 242 458 242 458 372 c 128,-1,10
 458 502 458 502 447 616 c 1,11,12
 396 623 396 623 351 637 c 1,13,-1
 355 659 l 1,14,15
 416 651 416 651 503.5 651 c 128,-1,16
 591 651 591 651 655 659 c 1,17,-1
 658 638 l 1,18,19
 601 624 601 624 548 619 c 1,20,21
 535 545 535 545 535 355 c 2,22,-1
 535 296 l 2,23,24
 535 109 535 109 548 35 c 1,25,26
 601 30 601 30 658 16 c 1,27,-1
 655 -8 l 1,28,29
 591 0 591 0 525 0 c 128,-1,30
 459 0 459 0 441 -1 c 1,31,-1
 438 13 l 1,32,33
 447 24 447 24 451 84 c 1,34,35
 393 19 393 19 305 -15 c 1,36,37
 194 -15 194 -15 148.5 50.5 c 128,-1,38
 103 116 103 116 103 241 c 0,39,40
 103 298 103 298 110 422 c 128,-1,41
 117 546 117 546 117 569 c 128,-1,42
 117 592 117 592 110 613 c 1,43,44
 59 620 59 620 14 634 c 1,45,-1
 18 659 l 1,46,47
 77 651 77 651 145.5 651 c 128,-1,48
 214 651 214 651 245 655 c 1,49,-1
 249 641 l 1,50,51
 204 616 204 616 197 549 c 0,0,1
305 803 m 1,52,53
 298 790 298 790 280.5 770 c 128,-1,54
 263 750 263 750 251 742 c 1,55,56
 239 750 239 750 221.5 770 c 128,-1,57
 204 790 204 790 197 803 c 1,58,59
 203 815 203 815 220 830.5 c 128,-1,60
 237 846 237 846 251 853 c 1,61,62
 264 845 264 845 281 829.5 c 128,-1,63
 298 814 298 814 305 803 c 1,52,53
490 803 m 1,64,65
 483 790 483 790 465.5 770 c 128,-1,66
 448 750 448 750 436 742 c 1,67,68
 424 750 424 750 406.5 770 c 128,-1,69
 389 790 389 790 382 803 c 1,70,71
 388 815 388 815 405 830.5 c 128,-1,72
 422 846 422 846 436 853 c 1,73,74
 449 845 449 845 466 829.5 c 128,-1,75
 483 814 483 814 490 803 c 1,64,65
EndSplineSet
EndChar

StartChar: Yacute
Encoding: 221 221 158
Width: 545
GlyphClass: 2
Flags: W
LayerCount: 2
Fore
SplineSet
402 609 m 0,0,1
 402 631 402 631 382 641 c 1,2,-1
 386 655 l 1,3,4
 436 651 436 651 491.5 651 c 128,-1,5
 547 651 547 651 599 659 c 1,6,-1
 604 634 l 1,7,8
 556 619 556 619 507 613 c 1,9,-1
 311 298 l 1,10,11
 311 131 311 131 324 35 c 1,12,13
 377 30 377 30 434 16 c 1,14,-1
 431 -8 l 1,15,16
 357 0 357 0 270.5 0 c 128,-1,17
 184 0 184 0 131 -8 c 1,18,-1
 127 17 l 1,19,20
 172 31 172 31 223 38 c 1,21,22
 234 120 234 120 234 245 c 2,23,-1
 234 271 l 1,24,25
 134 483 134 483 107 537.5 c 128,-1,26
 80 592 80 592 62 613 c 1,27,28
 6 620 6 620 -34 634 c 1,29,-1
 -30 659 l 1,30,31
 23 651 23 651 113.5 651 c 128,-1,32
 204 651 204 651 278 659 c 1,33,-1
 281 635 l 1,34,35
 224 621 224 621 171 616 c 1,36,37
 218 476 218 476 291 337 c 1,38,39
 402 554 402 554 402 609 c 0,0,1
476 797 m 1,40,-1
 270 722 l 1,41,-1
 262 742 l 1,42,43
 344 778 344 778 419 868 c 1,44,45
 441 866 441 866 461 859 c 1,46,47
 466 850 466 850 471.5 828.5 c 128,-1,48
 477 807 477 807 476 797 c 1,40,-1
EndSplineSet
EndChar

StartChar: Thorn
Encoding: 222 222 159
Width: 510
GlyphClass: 2
Flags: W
LayerCount: 2
Fore
SplineSet
211 525 m 1,0,-1
 305 528 l 1,1,2
 511 528 511 528 511 364 c 0,3,4
 511 275 511 275 438 220 c 128,-1,5
 365 165 365 165 268 165 c 0,6,7
 253 165 253 165 246 166 c 1,8,-1
 250 198 l 1,9,-1
 262 198 l 2,10,11
 337 198 337 198 377 236 c 128,-1,12
 417 274 417 274 417 347 c 128,-1,13
 417 420 417 420 386 455.5 c 128,-1,14
 355 491 355 491 288 491 c 0,15,16
 248 491 248 491 210 478 c 1,17,-1
 209 478 l 1,18,19
 207 438 207 438 207 284.5 c 128,-1,20
 207 131 207 131 220 35 c 1,21,22
 273 30 273 30 330 16 c 1,23,-1
 327 -8 l 1,24,25
 253 0 253 0 166.5 0 c 128,-1,26
 80 0 80 0 27 -8 c 1,27,-1
 23 17 l 1,28,29
 68 31 68 31 119 38 c 1,30,31
 130 120 130 120 130 296 c 2,32,-1
 130 355 l 2,33,34
 130 517 130 517 117 613 c 1,35,36
 66 620 66 620 21 634 c 1,37,-1
 25 659 l 1,38,39
 78 651 78 651 164.5 651 c 128,-1,40
 251 651 251 651 325 659 c 1,41,-1
 328 635 l 1,42,43
 271 621 271 621 218 616 c 1,44,45
 214 597 214 597 211 525 c 1,0,-1
EndSplineSet
EndChar

StartChar: germandbls
Encoding: 223 223 160
Width: 525
GlyphClass: 2
Flags: W
LayerCount: 2
Fore
SplineSet
287 110 m 1,0,-1
 289 68 l 1,1,-1
 289 64 l 1,2,3
 317 47 317 47 357 47 c 128,-1,4
 397 47 397 47 419 67 c 128,-1,5
 441 87 441 87 441 125 c 0,6,7
 441 159 441 159 354 252 c 0,8,9
 321 286 321 286 293.5 326 c 128,-1,10
 266 366 266 366 266 393 c 2,11,-1
 266 402 l 1,12,13
 384 473 384 473 384 566 c 0,14,15
 384 649 384 649 290 649 c 0,16,17
 235 649 235 649 204 621 c 1,18,19
 188 585 188 585 182.5 544.5 c 128,-1,20
 177 504 177 504 177 429 c 2,21,-1
 177 230 l 2,22,23
 177 96 177 96 189 -60 c 1,24,25
 175 -58 175 -58 166.5 -58 c 128,-1,26
 158 -58 158 -58 154 -58 c 1,27,28
 124 -113 124 -113 109 -200 c 1,29,-1
 91 -199 l 1,30,31
 103 17 103 17 103 230 c 2,32,-1
 103 429 l 1,33,-1
 49 429 l 1,34,-1
 47 431 l 1,35,36
 47 447 47 447 50 453 c 1,37,38
 63 458 63 458 103 470 c 1,39,40
 116 557 116 557 172 621 c 128,-1,41
 228 685 228 685 313 711 c 1,42,43
 375 711 375 711 416.5 686.5 c 128,-1,44
 458 662 458 662 458 610 c 0,45,46
 458 573 458 573 439.5 538 c 128,-1,47
 421 503 421 503 399.5 482 c 128,-1,48
 378 461 378 461 359.5 443 c 128,-1,49
 341 425 341 425 341 420 c 0,50,51
 341 385 341 385 419 306 c 0,52,53
 448 276 448 276 472.5 239.5 c 128,-1,54
 497 203 497 203 497 176 c 0,55,56
 497 120 497 120 447 62 c 128,-1,57
 397 4 397 4 339 -15 c 1,58,59
 277 -15 277 -15 222 6 c 1,60,-1
 222 20 l 1,61,62
 261 68 261 68 265 125 c 1,63,-1
 287 125 l 1,64,-1
 287 110 l 1,0,-1
EndSplineSet
EndChar

StartChar: agrave
Encoding: 224 224 161
Width: 514
GlyphClass: 2
Flags: W
LayerCount: 2
Fore
SplineSet
153 693 m 1,0,1
 163 695 163 695 174.5 695 c 128,-1,2
 186 695 186 695 196 694 c 1,3,4
 220 652 220 652 255.5 610 c 128,-1,5
 291 568 291 568 328 543 c 1,6,-1
 317 525 l 1,7,-1
 128 634 l 1,8,9
 129 644 129 644 137.5 664.5 c 128,-1,10
 146 685 146 685 153 693 c 1,0,1
50 176 m 0,11,12
 50 280 50 280 106 366.5 c 128,-1,13
 162 453 162 453 256 485 c 1,14,15
 323 485 323 485 396 464 c 1,16,17
 410 485 410 485 419 517 c 1,18,-1
 440 511 l 1,19,20
 418 421 418 421 418 193 c 0,21,22
 418 91 418 91 425 33 c 1,23,24
 449 25 449 25 479 25 c 1,25,-1
 479 4 l 1,26,27
 415 1 415 1 344 -15 c 1,28,-1
 337 -11 l 1,29,30
 348 58 348 58 348 145 c 1,31,-1
 344 146 l 1,32,33
 309 96 309 96 261 49 c 128,-1,34
 213 2 213 2 170 -15 c 1,35,36
 115 -15 115 -15 82.5 46 c 128,-1,37
 50 107 50 107 50 176 c 0,11,12
130 221 m 0,38,39
 130 172 130 172 147.5 119.5 c 128,-1,40
 165 67 165 67 198 67 c 0,41,42
 233 67 233 67 283 117 c 128,-1,43
 333 167 333 167 348 207 c 1,44,45
 348 356 348 356 341 399 c 1,46,47
 288 423 288 423 238.5 423 c 128,-1,48
 189 423 189 423 163 399 c 1,49,50
 130 323 130 323 130 221 c 0,38,39
EndSplineSet
EndChar

StartChar: aacute
Encoding: 225 225 162
Width: 514
GlyphClass: 2
Flags: W
LayerCount: 2
Fore
SplineSet
50 176 m 0,0,1
 50 280 50 280 106 366.5 c 128,-1,2
 162 453 162 453 256 485 c 1,3,4
 323 485 323 485 396 464 c 1,5,6
 410 485 410 485 419 517 c 1,7,-1
 440 511 l 1,8,9
 418 421 418 421 418 193 c 0,10,11
 418 91 418 91 425 33 c 1,12,13
 449 25 449 25 479 25 c 1,14,-1
 479 4 l 1,15,16
 415 1 415 1 344 -15 c 1,17,-1
 337 -11 l 1,18,19
 348 58 348 58 348 145 c 1,20,-1
 344 146 l 1,21,22
 309 96 309 96 261 49 c 128,-1,23
 213 2 213 2 170 -15 c 1,24,25
 115 -15 115 -15 82.5 46 c 128,-1,26
 50 107 50 107 50 176 c 0,0,1
130 221 m 0,27,28
 130 172 130 172 147.5 119.5 c 128,-1,29
 165 67 165 67 198 67 c 0,30,31
 233 67 233 67 283 117 c 128,-1,32
 333 167 333 167 348 207 c 1,33,34
 348 356 348 356 341 399 c 1,35,36
 288 423 288 423 238.5 423 c 128,-1,37
 189 423 189 423 163 399 c 1,38,39
 130 323 130 323 130 221 c 0,27,28
359 694 m 1,40,41
 369 695 369 695 380.5 695 c 128,-1,42
 392 695 392 695 402 693 c 1,43,44
 409 685 409 685 417.5 664.5 c 128,-1,45
 426 644 426 644 427 634 c 1,46,-1
 238 525 l 1,47,-1
 227 543 l 1,48,49
 264 568 264 568 299.5 610 c 128,-1,50
 335 652 335 652 359 694 c 1,40,41
EndSplineSet
EndChar

StartChar: acircumflex
Encoding: 226 226 163
Width: 514
GlyphClass: 2
Flags: W
LayerCount: 2
Fore
SplineSet
277 612 m 1,0,-1
 143 522 l 1,1,-1
 130 539 l 1,2,3
 214 610 214 610 267 707 c 1,4,-1
 287 707 l 1,5,6
 342 615 342 615 424 549 c 1,7,-1
 411 532 l 1,8,-1
 277 612 l 1,0,-1
50 176 m 0,9,10
 50 280 50 280 106 366.5 c 128,-1,11
 162 453 162 453 256 485 c 1,12,13
 323 485 323 485 396 464 c 1,14,15
 410 485 410 485 419 517 c 1,16,-1
 440 511 l 1,17,18
 418 421 418 421 418 193 c 0,19,20
 418 91 418 91 425 33 c 1,21,22
 449 25 449 25 479 25 c 1,23,-1
 479 4 l 1,24,25
 415 1 415 1 344 -15 c 1,26,-1
 337 -11 l 1,27,28
 348 58 348 58 348 145 c 1,29,-1
 344 146 l 1,30,31
 309 96 309 96 261 49 c 128,-1,32
 213 2 213 2 170 -15 c 1,33,34
 115 -15 115 -15 82.5 46 c 128,-1,35
 50 107 50 107 50 176 c 0,9,10
130 221 m 0,36,37
 130 172 130 172 147.5 119.5 c 128,-1,38
 165 67 165 67 198 67 c 0,39,40
 233 67 233 67 283 117 c 128,-1,41
 333 167 333 167 348 207 c 1,42,43
 348 356 348 356 341 399 c 1,44,45
 288 423 288 423 238.5 423 c 128,-1,46
 189 423 189 423 163 399 c 1,47,48
 130 323 130 323 130 221 c 0,36,37
EndSplineSet
EndChar

StartChar: atilde
Encoding: 227 227 164
Width: 514
GlyphClass: 2
Flags: W
LayerCount: 2
Fore
SplineSet
50 176 m 0,0,1
 50 280 50 280 106 366.5 c 128,-1,2
 162 453 162 453 256 485 c 1,3,4
 323 485 323 485 396 464 c 1,5,6
 410 485 410 485 419 517 c 1,7,-1
 440 511 l 1,8,9
 418 421 418 421 418 193 c 0,10,11
 418 91 418 91 425 33 c 1,12,13
 449 25 449 25 479 25 c 1,14,-1
 479 4 l 1,15,16
 415 1 415 1 344 -15 c 1,17,-1
 337 -11 l 1,18,19
 348 58 348 58 348 145 c 1,20,-1
 344 146 l 1,21,22
 309 96 309 96 261 49 c 128,-1,23
 213 2 213 2 170 -15 c 1,24,25
 115 -15 115 -15 82.5 46 c 128,-1,26
 50 107 50 107 50 176 c 0,0,1
130 221 m 0,27,28
 130 172 130 172 147.5 119.5 c 128,-1,29
 165 67 165 67 198 67 c 0,30,31
 233 67 233 67 283 117 c 128,-1,32
 333 167 333 167 348 207 c 1,33,34
 348 356 348 356 341 399 c 1,35,36
 288 423 288 423 238.5 423 c 128,-1,37
 189 423 189 423 163 399 c 1,38,39
 130 323 130 323 130 221 c 0,27,28
258 663 m 1,40,41
 317 632 317 632 369.5 632 c 128,-1,42
 422 632 422 632 442 656 c 1,43,-1
 460 645 l 1,44,45
 404 584 404 584 356 563 c 1,46,47
 335 563 335 563 283.5 578.5 c 128,-1,48
 232 594 232 594 211 594 c 0,49,50
 168 594 168 594 148 570 c 1,51,-1
 130 581 l 1,52,53
 186 642 186 642 258 663 c 1,40,41
EndSplineSet
EndChar

StartChar: adieresis
Encoding: 228 228 165
Width: 514
GlyphClass: 2
Flags: W
LayerCount: 2
Fore
SplineSet
50 176 m 0,0,1
 50 280 50 280 106 366.5 c 128,-1,2
 162 453 162 453 256 485 c 1,3,4
 323 485 323 485 396 464 c 1,5,6
 410 485 410 485 419 517 c 1,7,-1
 440 511 l 1,8,9
 418 421 418 421 418 193 c 0,10,11
 418 91 418 91 425 33 c 1,12,13
 449 25 449 25 479 25 c 1,14,-1
 479 4 l 1,15,16
 415 1 415 1 344 -15 c 1,17,-1
 337 -11 l 1,18,19
 348 58 348 58 348 145 c 1,20,-1
 344 146 l 1,21,22
 309 96 309 96 261 49 c 128,-1,23
 213 2 213 2 170 -15 c 1,24,25
 115 -15 115 -15 82.5 46 c 128,-1,26
 50 107 50 107 50 176 c 0,0,1
130 221 m 0,27,28
 130 172 130 172 147.5 119.5 c 128,-1,29
 165 67 165 67 198 67 c 0,30,31
 233 67 233 67 283 117 c 128,-1,32
 333 167 333 167 348 207 c 1,33,34
 348 356 348 356 341 399 c 1,35,36
 288 423 288 423 238.5 423 c 128,-1,37
 189 423 189 423 163 399 c 1,38,39
 130 323 130 323 130 221 c 0,27,28
238 620 m 1,40,41
 231 607 231 607 213.5 587 c 128,-1,42
 196 567 196 567 184 559 c 1,43,44
 172 567 172 567 154.5 587 c 128,-1,45
 137 607 137 607 130 620 c 1,46,47
 136 632 136 632 153 647.5 c 128,-1,48
 170 663 170 663 184 670 c 1,49,50
 197 662 197 662 214 646.5 c 128,-1,51
 231 631 231 631 238 620 c 1,40,41
423 620 m 1,52,53
 416 607 416 607 398.5 587 c 128,-1,54
 381 567 381 567 369 559 c 1,55,56
 357 567 357 567 339.5 587 c 128,-1,57
 322 607 322 607 315 620 c 1,58,59
 321 632 321 632 338 647.5 c 128,-1,60
 355 663 355 663 369 670 c 1,61,62
 382 662 382 662 399 646.5 c 128,-1,63
 416 631 416 631 423 620 c 1,52,53
EndSplineSet
EndChar

StartChar: aring
Encoding: 229 229 166
Width: 514
GlyphClass: 2
Flags: W
LayerCount: 2
Fore
SplineSet
50 176 m 0,0,1
 50 280 50 280 106 366.5 c 128,-1,2
 162 453 162 453 256 485 c 1,3,4
 323 485 323 485 396 464 c 1,5,6
 410 485 410 485 419 517 c 1,7,-1
 440 511 l 1,8,9
 418 421 418 421 418 193 c 0,10,11
 418 91 418 91 425 33 c 1,12,13
 449 25 449 25 479 25 c 1,14,-1
 479 4 l 1,15,16
 415 1 415 1 344 -15 c 1,17,-1
 337 -11 l 1,18,19
 348 58 348 58 348 145 c 1,20,-1
 344 146 l 1,21,22
 309 96 309 96 261 49 c 128,-1,23
 213 2 213 2 170 -15 c 1,24,25
 115 -15 115 -15 82.5 46 c 128,-1,26
 50 107 50 107 50 176 c 0,0,1
130 221 m 0,27,28
 130 172 130 172 147.5 119.5 c 128,-1,29
 165 67 165 67 198 67 c 0,30,31
 233 67 233 67 283 117 c 128,-1,32
 333 167 333 167 348 207 c 1,33,34
 348 356 348 356 341 399 c 1,35,36
 288 423 288 423 238.5 423 c 128,-1,37
 189 423 189 423 163 399 c 1,38,39
 130 323 130 323 130 221 c 0,27,28
224 544 m 128,-1,41
 196 563 196 563 196 600.5 c 128,-1,42
 196 638 196 638 225.5 667.5 c 128,-1,43
 255 697 255 697 298 706 c 1,44,45
 389 706 389 706 389 632 c 0,46,47
 389 593 389 593 362.5 565.5 c 128,-1,48
 336 538 336 538 293 525 c 1,49,40
 252 525 252 525 224 544 c 128,-1,41
326.5 655 m 128,-1,51
 311 671 311 671 287.5 671 c 128,-1,52
 264 671 264 671 254 662 c 1,53,54
 243 646 243 646 243 619.5 c 128,-1,55
 243 593 243 593 259 576.5 c 128,-1,56
 275 560 275 560 297.5 560 c 128,-1,57
 320 560 320 560 331 569 c 1,58,59
 342 586 342 586 342 612.5 c 128,-1,50
 342 639 342 639 326.5 655 c 128,-1,51
EndSplineSet
EndChar

StartChar: ae
Encoding: 230 230 167
Width: 701
GlyphClass: 2
Flags: W
LayerCount: 2
Fore
SplineSet
54 156 m 0,0,1
 54 276 54 276 122 369 c 128,-1,2
 190 462 190 462 302 485 c 1,3,4
 374 475 374 475 447 441 c 1,5,6
 487 472 487 472 534 485 c 1,7,8
 601 485 601 485 628 458.5 c 128,-1,9
 655 432 655 432 655 365 c 0,10,11
 655 344 655 344 651 327 c 1,12,13
 659 325 659 325 667 325 c 128,-1,14
 675 325 675 325 693 329 c 1,15,-1
 694 309 l 1,16,17
 540 282 540 282 413 208 c 1,18,19
 417 57 417 57 520 57 c 0,20,21
 583 57 583 57 643 110 c 1,22,-1
 654 100 l 1,23,24
 597 22 597 22 508 -15 c 1,25,26
 376 -15 376 -15 336 121 c 1,27,28
 300 78 300 78 247 38 c 128,-1,29
 194 -2 194 -2 148 -15 c 1,30,31
 100 -7 100 -7 77 43.5 c 128,-1,32
 54 94 54 94 54 156 c 0,0,1
139 181 m 0,33,34
 139 136 139 136 150.5 98.5 c 128,-1,35
 162 61 162 61 190 61 c 128,-1,36
 218 61 218 61 263 92 c 128,-1,37
 308 123 308 123 334 157 c 1,38,39
 332 171 332 171 332 190 c 0,40,41
 332 292 332 292 388 376 c 1,42,-1
 388 380 l 1,43,44
 322 429 322 429 244 429 c 0,45,46
 218 429 218 429 199 413 c 1,47,48
 139 314 139 314 139 181 c 0,33,34
561 399.5 m 128,-1,50
 548 423 548 423 509 423 c 128,-1,51
 470 423 470 423 441 399 c 1,52,53
 414 341 414 341 412 238 c 1,54,55
 495 291 495 291 575 317 c 1,56,49
 574 376 574 376 561 399.5 c 128,-1,50
EndSplineSet
EndChar

StartChar: ccedilla
Encoding: 231 231 168
Width: 387
GlyphClass: 2
Flags: W
LayerCount: 2
Fore
SplineSet
238 57 m 0,0,1
 204 57 204 57 181 72 c 0,2,3
 130 105 130 105 130 245 c 0,4,5
 130 338 130 338 159 399 c 1,6,7
 185 423 185 423 225 423 c 128,-1,8
 265 423 265 423 306 411 c 1,9,10
 308 389 308 389 308 350 c 1,11,-1
 330 350 l 1,12,13
 334 407 334 407 373 455 c 1,14,15
 373 455 373 455 373 469 c 1,16,17
 313 485 313 485 252 485 c 1,18,19
 162 461 162 461 106 377 c 128,-1,20
 50 293 50 293 50 194 c 128,-1,21
 50 95 50 95 92 40 c 128,-1,22
 134 -15 134 -15 221 -15 c 1,23,24
 304 19 304 19 362 100 c 1,25,-1
 352 110 l 1,26,27
 293 57 293 57 238 57 c 0,0,1
205 -178 m 0,28,29
 223 -178 223 -178 231 -173 c 1,30,31
 240 -160 240 -160 240 -142 c 0,32,33
 240 -97 240 -97 157 -97 c 1,34,-1
 151 -93 l 1,35,-1
 189 14 l 1,36,-1
 218 16 l 1,37,-1
 194 -46 l 1,38,-1
 198 -49 l 1,39,40
 244 -49 244 -49 272.5 -70 c 128,-1,41
 301 -91 301 -91 301 -133 c 1,42,43
 287 -160 287 -160 260.5 -182.5 c 128,-1,44
 234 -205 234 -205 205 -215 c 1,45,46
 161 -215 161 -215 117 -194 c 1,47,48
 127 -175 127 -175 133 -155 c 1,49,-1
 137 -153 l 1,50,51
 169 -178 169 -178 205 -178 c 0,28,29
EndSplineSet
EndChar

StartChar: egrave
Encoding: 232 232 169
Width: 426
GlyphClass: 2
Flags: W
LayerCount: 2
Fore
SplineSet
238 57 m 0,0,1
 301 57 301 57 361 110 c 1,2,-1
 372 100 l 1,3,4
 315 22 315 22 226 -15 c 1,5,6
 138 -15 138 -15 94 40 c 128,-1,7
 50 95 50 95 50 193 c 128,-1,8
 50 291 50 291 105 375.5 c 128,-1,9
 160 460 160 460 252 485 c 1,10,11
 319 485 319 485 346 458.5 c 128,-1,12
 373 432 373 432 373 365 c 0,13,14
 373 327 373 327 363 300 c 1,15,16
 384 292 384 292 412 292 c 1,17,-1
 411 271 l 1,18,19
 405 271 405 271 398 271 c 0,20,21
 286 271 286 271 130 238 c 1,22,23
 130 105 130 105 182 72 c 0,24,25
 204 57 204 57 238 57 c 0,0,1
280.5 397 m 128,-1,27
 268 423 268 423 228 423 c 128,-1,28
 188 423 188 423 159 399 c 1,29,30
 132 343 132 343 130 264 c 1,31,32
 212 291 212 291 293 305 c 1,33,26
 293 371 293 371 280.5 397 c 128,-1,27
115 693 m 1,34,35
 125 695 125 695 136.5 695 c 128,-1,36
 148 695 148 695 158 694 c 1,37,38
 182 652 182 652 217.5 610 c 128,-1,39
 253 568 253 568 290 543 c 1,40,-1
 279 525 l 1,41,-1
 90 634 l 1,42,43
 91 644 91 644 99.5 664.5 c 128,-1,44
 108 685 108 685 115 693 c 1,34,35
EndSplineSet
EndChar

StartChar: eacute
Encoding: 233 233 170
Width: 426
GlyphClass: 2
Flags: W
LayerCount: 2
Fore
SplineSet
238 57 m 0,0,1
 301 57 301 57 361 110 c 1,2,-1
 372 100 l 1,3,4
 315 22 315 22 226 -15 c 1,5,6
 138 -15 138 -15 94 40 c 128,-1,7
 50 95 50 95 50 193 c 128,-1,8
 50 291 50 291 105 375.5 c 128,-1,9
 160 460 160 460 252 485 c 1,10,11
 319 485 319 485 346 458.5 c 128,-1,12
 373 432 373 432 373 365 c 0,13,14
 373 327 373 327 363 300 c 1,15,16
 384 292 384 292 412 292 c 1,17,-1
 411 271 l 1,18,19
 405 271 405 271 398 271 c 0,20,21
 286 271 286 271 130 238 c 1,22,23
 130 105 130 105 182 72 c 0,24,25
 204 57 204 57 238 57 c 0,0,1
280.5 397 m 128,-1,27
 268 423 268 423 228 423 c 128,-1,28
 188 423 188 423 159 399 c 1,29,30
 132 343 132 343 130 264 c 1,31,32
 212 291 212 291 293 305 c 1,33,26
 293 371 293 371 280.5 397 c 128,-1,27
333 694 m 1,34,35
 343 695 343 695 354.5 695 c 128,-1,36
 366 695 366 695 376 693 c 1,37,38
 383 685 383 685 391.5 664.5 c 128,-1,39
 400 644 400 644 401 634 c 1,40,-1
 212 525 l 1,41,-1
 201 543 l 1,42,43
 238 568 238 568 273.5 610 c 128,-1,44
 309 652 309 652 333 694 c 1,34,35
EndSplineSet
EndChar

StartChar: ecircumflex
Encoding: 234 234 171
Width: 426
GlyphClass: 2
Flags: W
LayerCount: 2
Fore
SplineSet
238 57 m 0,0,1
 301 57 301 57 361 110 c 1,2,-1
 372 100 l 1,3,4
 315 22 315 22 226 -15 c 1,5,6
 138 -15 138 -15 94 40 c 128,-1,7
 50 95 50 95 50 193 c 128,-1,8
 50 291 50 291 105 375.5 c 128,-1,9
 160 460 160 460 252 485 c 1,10,11
 319 485 319 485 346 458.5 c 128,-1,12
 373 432 373 432 373 365 c 0,13,14
 373 327 373 327 363 300 c 1,15,16
 384 292 384 292 412 292 c 1,17,-1
 411 271 l 1,18,19
 405 271 405 271 398 271 c 0,20,21
 286 271 286 271 130 238 c 1,22,23
 130 105 130 105 182 72 c 0,24,25
 204 57 204 57 238 57 c 0,0,1
280.5 397 m 128,-1,27
 268 423 268 423 228 423 c 128,-1,28
 188 423 188 423 159 399 c 1,29,30
 132 343 132 343 130 264 c 1,31,32
 212 291 212 291 293 305 c 1,33,26
 293 371 293 371 280.5 397 c 128,-1,27
256 612 m 1,34,-1
 122 522 l 1,35,-1
 109 539 l 1,36,37
 193 610 193 610 246 707 c 1,38,-1
 266 707 l 1,39,40
 319 610 319 610 403 539 c 1,41,-1
 390 522 l 1,42,-1
 256 612 l 1,34,-1
EndSplineSet
EndChar

StartChar: edieresis
Encoding: 235 235 172
Width: 426
GlyphClass: 2
Flags: W
LayerCount: 2
Fore
SplineSet
238 57 m 0,0,1
 301 57 301 57 361 110 c 1,2,-1
 372 100 l 1,3,4
 315 22 315 22 226 -15 c 1,5,6
 138 -15 138 -15 94 40 c 128,-1,7
 50 95 50 95 50 193 c 128,-1,8
 50 291 50 291 105 375.5 c 128,-1,9
 160 460 160 460 252 485 c 1,10,11
 319 485 319 485 346 458.5 c 128,-1,12
 373 432 373 432 373 365 c 0,13,14
 373 327 373 327 363 300 c 1,15,16
 384 292 384 292 412 292 c 1,17,-1
 411 271 l 1,18,19
 405 271 405 271 398 271 c 0,20,21
 286 271 286 271 130 238 c 1,22,23
 130 105 130 105 182 72 c 0,24,25
 204 57 204 57 238 57 c 0,0,1
280.5 397 m 128,-1,27
 268 423 268 423 228 423 c 128,-1,28
 188 423 188 423 159 399 c 1,29,30
 132 343 132 343 130 264 c 1,31,32
 212 291 212 291 293 305 c 1,33,26
 293 371 293 371 280.5 397 c 128,-1,27
217 620 m 1,34,35
 210 607 210 607 192.5 587 c 128,-1,36
 175 567 175 567 163 559 c 1,37,38
 151 567 151 567 133.5 587 c 128,-1,39
 116 607 116 607 109 620 c 1,40,41
 115 632 115 632 132 647.5 c 128,-1,42
 149 663 149 663 163 670 c 1,43,44
 176 662 176 662 193 646.5 c 128,-1,45
 210 631 210 631 217 620 c 1,34,35
402 620 m 1,46,47
 395 607 395 607 377.5 587 c 128,-1,48
 360 567 360 567 348 559 c 1,49,50
 336 567 336 567 318.5 587 c 128,-1,51
 301 607 301 607 294 620 c 1,52,53
 300 632 300 632 317 647.5 c 128,-1,54
 334 663 334 663 348 670 c 1,55,56
 361 662 361 662 378 646.5 c 128,-1,57
 395 631 395 631 402 620 c 1,46,47
EndSplineSet
EndChar

StartChar: igrave
Encoding: 236 236 173
Width: 287
GlyphClass: 2
Flags: W
LayerCount: 2
Fore
SplineSet
190 274 m 2,0,-1
 190 190 l 2,1,2
 190 82 190 82 197 30 c 1,3,4
 225 24 225 24 260 11 c 1,5,-1
 258 -8 l 1,6,7
 202 0 202 0 152 0 c 128,-1,8
 102 0 102 0 51 -6 c 1,9,-1
 48 13 l 1,10,11
 78 26 78 26 107 33 c 1,12,13
 116 101 116 101 116 190 c 2,14,-1
 116 274 l 2,15,16
 116 355 116 355 108 436 c 1,17,18
 82 444 82 444 54 444 c 1,19,-1
 54 465 l 1,20,21
 131 470 131 470 196 485 c 1,22,-1
 203 481 l 1,23,24
 190 404 190 404 190 274 c 2,0,-1
55 693 m 1,25,26
 65 695 65 695 76.5 695 c 128,-1,27
 88 695 88 695 98 694 c 1,28,29
 122 652 122 652 157.5 610 c 128,-1,30
 193 568 193 568 230 543 c 1,31,-1
 219 525 l 1,32,-1
 30 634 l 1,33,34
 31 644 31 644 39.5 664.5 c 128,-1,35
 48 685 48 685 55 693 c 1,25,26
EndSplineSet
EndChar

StartChar: iacute
Encoding: 237 237 174
Width: 287
GlyphClass: 2
Flags: W
LayerCount: 2
Fore
SplineSet
190 274 m 2,0,-1
 190 190 l 2,1,2
 190 82 190 82 197 30 c 1,3,4
 225 24 225 24 260 11 c 1,5,-1
 258 -8 l 1,6,7
 202 0 202 0 152 0 c 128,-1,8
 102 0 102 0 51 -6 c 1,9,-1
 48 13 l 1,10,11
 78 26 78 26 107 33 c 1,12,13
 116 101 116 101 116 190 c 2,14,-1
 116 274 l 2,15,16
 116 355 116 355 108 436 c 1,17,18
 82 444 82 444 54 444 c 1,19,-1
 54 465 l 1,20,21
 131 470 131 470 196 485 c 1,22,-1
 203 481 l 1,23,24
 190 404 190 404 190 274 c 2,0,-1
216 694 m 1,25,26
 226 695 226 695 237.5 695 c 128,-1,27
 249 695 249 695 259 693 c 1,28,29
 266 685 266 685 274.5 664.5 c 128,-1,30
 283 644 283 644 284 634 c 1,31,-1
 95 525 l 1,32,-1
 84 543 l 1,33,34
 121 568 121 568 156.5 610 c 128,-1,35
 192 652 192 652 216 694 c 1,25,26
EndSplineSet
EndChar

StartChar: icircumflex
Encoding: 238 238 175
Width: 287
GlyphClass: 2
Flags: W
LayerCount: 2
Fore
SplineSet
190 274 m 2,0,-1
 190 190 l 2,1,2
 190 82 190 82 197 30 c 1,3,4
 225 24 225 24 260 11 c 1,5,-1
 258 -8 l 1,6,7
 202 0 202 0 152 0 c 128,-1,8
 102 0 102 0 51 -6 c 1,9,-1
 48 13 l 1,10,11
 78 26 78 26 107 33 c 1,12,13
 116 101 116 101 116 190 c 2,14,-1
 116 274 l 2,15,16
 116 355 116 355 108 436 c 1,17,18
 82 444 82 444 54 444 c 1,19,-1
 54 465 l 1,20,21
 131 470 131 470 196 485 c 1,22,-1
 203 481 l 1,23,24
 190 404 190 404 190 274 c 2,0,-1
146 612 m 1,25,-1
 12 522 l 1,26,-1
 -1 539 l 1,27,28
 83 610 83 610 136 707 c 1,29,-1
 156 707 l 1,30,31
 209 610 209 610 293 539 c 1,32,-1
 280 522 l 1,33,-1
 146 612 l 1,25,-1
EndSplineSet
EndChar

StartChar: idieresis
Encoding: 239 239 176
Width: 287
GlyphClass: 2
Flags: W
LayerCount: 2
Fore
SplineSet
115 630 m 1,0,1
 108 617 108 617 90.5 597 c 128,-1,2
 73 577 73 577 61 569 c 1,3,4
 49 577 49 577 31.5 597 c 128,-1,5
 14 617 14 617 7 630 c 1,6,7
 13 642 13 642 30 657.5 c 128,-1,8
 47 673 47 673 61 680 c 1,9,10
 74 672 74 672 91 656.5 c 128,-1,11
 108 641 108 641 115 630 c 1,0,1
286 630 m 1,12,13
 279 617 279 617 261.5 597 c 128,-1,14
 244 577 244 577 232 569 c 1,15,16
 220 577 220 577 202.5 597 c 128,-1,17
 185 617 185 617 178 630 c 1,18,19
 184 642 184 642 201 657.5 c 128,-1,20
 218 673 218 673 232 680 c 1,21,22
 245 672 245 672 262 656.5 c 128,-1,23
 279 641 279 641 286 630 c 1,12,13
190 274 m 2,24,-1
 190 190 l 2,25,26
 190 82 190 82 197 30 c 1,27,28
 225 24 225 24 260 11 c 1,29,-1
 258 -8 l 1,30,31
 202 0 202 0 152 0 c 128,-1,32
 102 0 102 0 51 -6 c 1,33,-1
 48 13 l 1,34,35
 78 26 78 26 107 33 c 1,36,37
 116 101 116 101 116 190 c 2,38,-1
 116 274 l 2,39,40
 116 355 116 355 108 436 c 1,41,42
 82 444 82 444 54 444 c 1,43,-1
 54 465 l 1,44,45
 131 470 131 470 196 485 c 1,46,-1
 203 481 l 1,47,48
 190 404 190 404 190 274 c 2,24,-1
EndSplineSet
EndChar

StartChar: eth
Encoding: 240 240 177
Width: 471
GlyphClass: 2
Flags: W
LayerCount: 2
Fore
SplineSet
429 272 m 0,0,1
 429 154 429 154 367.5 76.5 c 128,-1,2
 306 -1 306 -1 194 -15 c 1,3,4
 123 -3 123 -3 84 50.5 c 128,-1,5
 45 104 45 104 45 187.5 c 128,-1,6
 45 271 45 271 102.5 335 c 128,-1,7
 160 399 160 399 252 419 c 1,8,9
 300 408 300 408 333 354 c 1,10,-1
 338 354 l 1,11,12
 302 457 302 457 237 536 c 1,13,-1
 215 523 l 2,14,15
 153 487 153 487 118 455 c 1,16,-1
 113 458 l 1,17,18
 105 485 105 485 103 489 c 1,19,-1
 216 559 l 1,20,21
 152 628 152 628 51 688 c 1,22,-1
 65 711 l 1,23,24
 174 656 174 656 259 586 c 1,25,-1
 308 617 l 2,26,27
 362 650 362 650 378 663 c 1,28,29
 386 652 386 652 401 641 c 1,30,-1
 404 637 l 1,31,-1
 299 572 l 1,32,-1
 285 564 l 1,33,34
 429 430 429 430 429 272 c 0,0,1
349 231 m 0,35,36
 349 264 349 264 342 291 c 1,37,38
 299 360 299 360 223 376 c 1,39,40
 176 376 176 376 151 331 c 128,-1,41
 126 286 126 286 126 211.5 c 128,-1,42
 126 137 126 137 159 88.5 c 128,-1,43
 192 40 192 40 253 40 c 0,44,45
 284 40 284 40 306 54 c 1,46,47
 349 114 349 114 349 231 c 0,35,36
EndSplineSet
EndChar

StartChar: ntilde
Encoding: 241 241 178
Width: 547
GlyphClass: 2
Flags: W
LayerCount: 2
Fore
SplineSet
385 291 m 0,0,1
 385 403 385 403 339 403 c 0,2,3
 300 403 300 403 247 354 c 128,-1,4
 194 305 194 305 176 263 c 1,5,6
 176 118 176 118 187 30 c 1,7,8
 214 24 214 24 250 11 c 1,9,-1
 248 -8 l 1,10,11
 192 0 192 0 142 0 c 128,-1,12
 92 0 92 0 41 -6 c 1,13,-1
 38 13 l 1,14,15
 68 26 68 26 97 33 c 1,16,17
 106 101 106 101 106 190 c 2,18,-1
 106 274 l 2,19,20
 106 366 106 366 99 437 c 1,21,22
 75 445 75 445 45 445 c 1,23,-1
 45 466 l 1,24,25
 109 469 109 469 180 485 c 1,26,-1
 187 481 l 1,27,28
 176 412 176 412 176 325 c 1,29,-1
 180 324 l 1,30,31
 214 371 214 371 268.5 420.5 c 128,-1,32
 323 470 323 470 367 485 c 1,33,34
 428 485 428 485 446 430 c 0,35,36
 458 391 458 391 458 334 c 0,37,38
 458 325 458 325 458 314 c 2,39,-1
 453 33 l 1,40,41
 482 26 482 26 512 13 c 1,42,-1
 509 -6 l 1,43,44
 461 0 461 0 427.5 0 c 128,-1,45
 394 0 394 0 364 -2 c 1,46,-1
 364 12 l 1,47,48
 380 90 380 90 384 269 c 0,49,50
 385 279 385 279 385 291 c 0,0,1
257 663 m 1,51,52
 316 632 316 632 368.5 632 c 128,-1,53
 421 632 421 632 441 656 c 1,54,-1
 459 645 l 1,55,56
 403 584 403 584 355 563 c 1,57,58
 334 563 334 563 282.5 578.5 c 128,-1,59
 231 594 231 594 210 594 c 0,60,61
 167 594 167 594 147 570 c 1,62,-1
 129 581 l 1,63,64
 185 642 185 642 257 663 c 1,51,52
EndSplineSet
EndChar

StartChar: ograve
Encoding: 242 242 179
Width: 488
GlyphClass: 2
Flags: W
LayerCount: 2
Fore
SplineSet
101 43.5 m 128,-1,1
 45 102 45 102 45 197 c 128,-1,2
 45 292 45 292 102.5 376.5 c 128,-1,3
 160 461 160 461 254 485 c 1,4,5
 347 485 347 485 395 431 c 128,-1,6
 443 377 443 377 443 282 c 128,-1,7
 443 187 443 187 387 103 c 128,-1,8
 331 19 331 19 244 -15 c 1,9,0
 157 -15 157 -15 101 43.5 c 128,-1,1
227 423 m 0,10,11
 185 423 185 423 158 399 c 1,12,13
 125 336 125 336 125 254 c 128,-1,14
 125 172 125 172 162 109.5 c 128,-1,15
 199 47 199 47 261 47 c 0,16,17
 303 47 303 47 331 72 c 1,18,19
 363 133 363 133 363 220.5 c 128,-1,20
 363 308 363 308 329.5 365.5 c 128,-1,21
 296 423 296 423 227 423 c 0,10,11
138 693 m 1,22,23
 148 695 148 695 159.5 695 c 128,-1,24
 171 695 171 695 181 694 c 1,25,26
 205 652 205 652 240.5 610 c 128,-1,27
 276 568 276 568 313 543 c 1,28,-1
 302 525 l 1,29,-1
 113 634 l 1,30,31
 114 644 114 644 122.5 664.5 c 128,-1,32
 131 685 131 685 138 693 c 1,22,23
EndSplineSet
EndChar

StartChar: oacute
Encoding: 243 243 180
Width: 488
GlyphClass: 2
Flags: W
LayerCount: 2
Fore
SplineSet
101 43.5 m 128,-1,1
 45 102 45 102 45 197 c 128,-1,2
 45 292 45 292 102.5 376.5 c 128,-1,3
 160 461 160 461 254 485 c 1,4,5
 347 485 347 485 395 431 c 128,-1,6
 443 377 443 377 443 282 c 128,-1,7
 443 187 443 187 387 103 c 128,-1,8
 331 19 331 19 244 -15 c 1,9,0
 157 -15 157 -15 101 43.5 c 128,-1,1
227 423 m 0,10,11
 185 423 185 423 158 399 c 1,12,13
 125 336 125 336 125 254 c 128,-1,14
 125 172 125 172 162 109.5 c 128,-1,15
 199 47 199 47 261 47 c 0,16,17
 303 47 303 47 331 72 c 1,18,19
 363 133 363 133 363 220.5 c 128,-1,20
 363 308 363 308 329.5 365.5 c 128,-1,21
 296 423 296 423 227 423 c 0,10,11
351 694 m 1,22,23
 361 695 361 695 372.5 695 c 128,-1,24
 384 695 384 695 394 693 c 1,25,26
 401 685 401 685 409.5 664.5 c 128,-1,27
 418 644 418 644 419 634 c 1,28,-1
 230 525 l 1,29,-1
 219 543 l 1,30,31
 256 568 256 568 291.5 610 c 128,-1,32
 327 652 327 652 351 694 c 1,22,23
EndSplineSet
EndChar

StartChar: ocircumflex
Encoding: 244 244 181
Width: 488
GlyphClass: 2
Flags: W
LayerCount: 2
Fore
SplineSet
101 43.5 m 128,-1,1
 45 102 45 102 45 197 c 128,-1,2
 45 292 45 292 102.5 376.5 c 128,-1,3
 160 461 160 461 254 485 c 1,4,5
 347 485 347 485 395 431 c 128,-1,6
 443 377 443 377 443 282 c 128,-1,7
 443 187 443 187 387 103 c 128,-1,8
 331 19 331 19 244 -15 c 1,9,0
 157 -15 157 -15 101 43.5 c 128,-1,1
227 423 m 0,10,11
 185 423 185 423 158 399 c 1,12,13
 125 336 125 336 125 254 c 128,-1,14
 125 172 125 172 162 109.5 c 128,-1,15
 199 47 199 47 261 47 c 0,16,17
 303 47 303 47 331 72 c 1,18,19
 363 133 363 133 363 220.5 c 128,-1,20
 363 308 363 308 329.5 365.5 c 128,-1,21
 296 423 296 423 227 423 c 0,10,11
259 612 m 1,22,-1
 125 522 l 1,23,-1
 112 539 l 1,24,25
 196 610 196 610 249 707 c 1,26,-1
 269 707 l 1,27,28
 322 610 322 610 406 539 c 1,29,-1
 393 522 l 1,30,-1
 259 612 l 1,22,-1
EndSplineSet
EndChar

StartChar: otilde
Encoding: 245 245 182
Width: 488
GlyphClass: 2
Flags: W
LayerCount: 2
Fore
SplineSet
101 43.5 m 128,-1,1
 45 102 45 102 45 197 c 128,-1,2
 45 292 45 292 102.5 376.5 c 128,-1,3
 160 461 160 461 254 485 c 1,4,5
 347 485 347 485 395 431 c 128,-1,6
 443 377 443 377 443 282 c 128,-1,7
 443 187 443 187 387 103 c 128,-1,8
 331 19 331 19 244 -15 c 1,9,0
 157 -15 157 -15 101 43.5 c 128,-1,1
227 423 m 0,10,11
 185 423 185 423 158 399 c 1,12,13
 125 336 125 336 125 254 c 128,-1,14
 125 172 125 172 162 109.5 c 128,-1,15
 199 47 199 47 261 47 c 0,16,17
 303 47 303 47 331 72 c 1,18,19
 363 133 363 133 363 220.5 c 128,-1,20
 363 308 363 308 329.5 365.5 c 128,-1,21
 296 423 296 423 227 423 c 0,10,11
216 663 m 1,22,23
 275 632 275 632 327.5 632 c 128,-1,24
 380 632 380 632 400 656 c 1,25,-1
 418 645 l 1,26,27
 362 584 362 584 314 563 c 1,28,29
 293 563 293 563 241.5 578.5 c 128,-1,30
 190 594 190 594 169 594 c 0,31,32
 126 594 126 594 106 570 c 1,33,-1
 88 581 l 1,34,35
 144 642 144 642 216 663 c 1,22,23
EndSplineSet
EndChar

StartChar: odieresis
Encoding: 246 246 183
Width: 488
GlyphClass: 2
Flags: W
LayerCount: 2
Fore
SplineSet
101 43.5 m 128,-1,1
 45 102 45 102 45 197 c 128,-1,2
 45 292 45 292 102.5 376.5 c 128,-1,3
 160 461 160 461 254 485 c 1,4,5
 347 485 347 485 395 431 c 128,-1,6
 443 377 443 377 443 282 c 128,-1,7
 443 187 443 187 387 103 c 128,-1,8
 331 19 331 19 244 -15 c 1,9,0
 157 -15 157 -15 101 43.5 c 128,-1,1
227 423 m 0,10,11
 185 423 185 423 158 399 c 1,12,13
 125 336 125 336 125 254 c 128,-1,14
 125 172 125 172 162 109.5 c 128,-1,15
 199 47 199 47 261 47 c 0,16,17
 303 47 303 47 331 72 c 1,18,19
 363 133 363 133 363 220.5 c 128,-1,20
 363 308 363 308 329.5 365.5 c 128,-1,21
 296 423 296 423 227 423 c 0,10,11
221 620 m 1,22,23
 214 607 214 607 196.5 587 c 128,-1,24
 179 567 179 567 167 559 c 1,25,26
 155 567 155 567 137.5 587 c 128,-1,27
 120 607 120 607 113 620 c 1,28,29
 119 632 119 632 136 647.5 c 128,-1,30
 153 663 153 663 167 670 c 1,31,32
 180 662 180 662 197 646.5 c 128,-1,33
 214 631 214 631 221 620 c 1,22,23
406 620 m 1,34,35
 399 607 399 607 381.5 587 c 128,-1,36
 364 567 364 567 352 559 c 1,37,38
 340 567 340 567 322.5 587 c 128,-1,39
 305 607 305 607 298 620 c 1,40,41
 304 632 304 632 321 647.5 c 128,-1,42
 338 663 338 663 352 670 c 1,43,44
 365 662 365 662 382 646.5 c 128,-1,45
 399 631 399 631 406 620 c 1,34,35
EndSplineSet
EndChar

StartChar: divide
Encoding: 247 247 184
Width: 550
GlyphClass: 2
Flags: W
LayerCount: 2
Fore
SplineSet
318 385 m 128,-1,1
 318 368 318 368 304 353.5 c 128,-1,2
 290 339 290 339 274 339 c 128,-1,3
 258 339 258 339 243.5 353.5 c 128,-1,4
 229 368 229 368 229 385 c 128,-1,5
 229 402 229 402 243.5 416 c 128,-1,6
 258 430 258 430 274 430 c 128,-1,7
 290 430 290 430 304 416 c 128,-1,0
 318 402 318 402 318 385 c 128,-1,1
318 112 m 128,-1,9
 318 95 318 95 304 80.5 c 128,-1,10
 290 66 290 66 274 66 c 128,-1,11
 258 66 258 66 243.5 80.5 c 128,-1,12
 229 95 229 95 229 111.5 c 128,-1,13
 229 128 229 128 243.5 142.5 c 128,-1,14
 258 157 258 157 274 157 c 128,-1,15
 290 157 290 157 304 143 c 128,-1,8
 318 129 318 129 318 112 c 128,-1,9
62 280 m 1,16,17
 232 271 232 271 341.5 271 c 128,-1,18
 451 271 451 271 490 274 c 1,19,-1
 496 268 l 1,20,-1
 487 222 l 1,21,-1
 61 222 l 1,22,-1
 53 229 l 1,23,-1
 62 280 l 1,16,17
EndSplineSet
EndChar

StartChar: oslash
Encoding: 248 248 185
Width: 488
GlyphClass: 2
Flags: W
LayerCount: 2
Fore
SplineSet
45 190 m 0,0,1
 45 292 45 292 102.5 376.5 c 128,-1,2
 160 461 160 461 254 485 c 1,3,4
 284 485 284 485 315 478 c 1,5,6
 322 499 322 499 336 548 c 1,7,8
 355 550 355 550 370 555 c 1,9,-1
 374 552 l 1,10,11
 372 548 372 548 340 469 c 1,12,13
 443 427 443 427 443 280 c 0,14,15
 443 187 443 187 387 103 c 128,-1,16
 331 19 331 19 244 -15 c 1,17,18
 202 -15 202 -15 162 1 c 1,19,-1
 133 -77 l 1,20,-1
 128 -77 l 1,21,22
 113 -69 113 -69 105 -54 c 1,23,-1
 136 15 l 1,24,25
 45 74 45 74 45 190 c 0,0,1
331 72 m 1,26,27
 363 133 363 133 363 235 c 128,-1,28
 363 337 363 337 310 390 c 1,29,-1
 190 75 l 1,30,31
 221 47 221 47 262 47 c 128,-1,32
 303 47 303 47 331 72 c 1,26,27
290 406 m 1,33,34
 264 423 264 423 224.5 423 c 128,-1,35
 185 423 185 423 158 399 c 1,36,37
 125 336 125 336 125 247 c 128,-1,38
 125 158 125 158 170 98 c 1,39,-1
 290 406 l 1,33,34
EndSplineSet
EndChar

StartChar: ugrave
Encoding: 249 249 186
Width: 542
GlyphClass: 2
Flags: W
LayerCount: 2
Fore
SplineSet
157 179 m 0,0,1
 157 67 157 67 203 67 c 0,2,3
 242 67 242 67 295 116 c 128,-1,4
 348 165 348 165 366 207 c 1,5,6
 366 352 366 352 355 440 c 1,7,8
 328 446 328 446 292 459 c 1,9,-1
 294 478 l 1,10,11
 350 470 350 470 400 470 c 128,-1,12
 450 470 450 470 501 476 c 1,13,-1
 504 457 l 1,14,15
 474 444 474 444 445 437 c 1,16,17
 436 369 436 369 436 280 c 2,18,-1
 436 196 l 2,19,20
 436 104 436 104 443 33 c 1,21,22
 467 25 467 25 497 25 c 1,23,-1
 497 4 l 1,24,25
 433 1 433 1 362 -15 c 1,26,-1
 355 -13 l 1,27,28
 366 56 366 56 366 145 c 1,29,-1
 362 146 l 1,30,31
 328 99 328 99 273.5 49.5 c 128,-1,32
 219 0 219 0 175 -15 c 1,33,34
 114 -15 114 -15 96 40 c 0,35,36
 84 79 84 79 84 136 c 0,37,38
 84 145 84 145 84 156 c 2,39,-1
 89 437 l 1,40,41
 65 445 65 445 35 445 c 1,42,-1
 35 466 l 1,43,44
 99 469 99 469 170 485 c 1,45,-1
 177 481 l 1,46,47
 161 384 161 384 158 201 c 0,48,49
 157 191 157 191 157 179 c 0,0,1
157 693 m 1,50,51
 167 695 167 695 178.5 695 c 128,-1,52
 190 695 190 695 200 694 c 1,53,54
 224 652 224 652 259.5 610 c 128,-1,55
 295 568 295 568 332 543 c 1,56,-1
 321 525 l 1,57,-1
 132 634 l 1,58,59
 133 644 133 644 141.5 664.5 c 128,-1,60
 150 685 150 685 157 693 c 1,50,51
EndSplineSet
EndChar

StartChar: uacute
Encoding: 250 250 187
Width: 542
GlyphClass: 2
Flags: W
LayerCount: 2
Fore
SplineSet
157 179 m 0,0,1
 157 67 157 67 203 67 c 0,2,3
 242 67 242 67 295 116 c 128,-1,4
 348 165 348 165 366 207 c 1,5,6
 366 352 366 352 355 440 c 1,7,8
 328 446 328 446 292 459 c 1,9,-1
 294 478 l 1,10,11
 350 470 350 470 400 470 c 128,-1,12
 450 470 450 470 501 476 c 1,13,-1
 504 457 l 1,14,15
 474 444 474 444 445 437 c 1,16,17
 436 369 436 369 436 280 c 2,18,-1
 436 196 l 2,19,20
 436 104 436 104 443 33 c 1,21,22
 467 25 467 25 497 25 c 1,23,-1
 497 4 l 1,24,25
 433 1 433 1 362 -15 c 1,26,-1
 355 -13 l 1,27,28
 366 56 366 56 366 145 c 1,29,-1
 362 146 l 1,30,31
 328 99 328 99 273.5 49.5 c 128,-1,32
 219 0 219 0 175 -15 c 1,33,34
 114 -15 114 -15 96 40 c 0,35,36
 84 79 84 79 84 136 c 0,37,38
 84 145 84 145 84 156 c 2,39,-1
 89 437 l 1,40,41
 65 445 65 445 35 445 c 1,42,-1
 35 466 l 1,43,44
 99 469 99 469 170 485 c 1,45,-1
 177 481 l 1,46,47
 161 384 161 384 158 201 c 0,48,49
 157 191 157 191 157 179 c 0,0,1
383 694 m 1,50,51
 393 695 393 695 404.5 695 c 128,-1,52
 416 695 416 695 426 693 c 1,53,54
 433 685 433 685 441.5 664.5 c 128,-1,55
 450 644 450 644 451 634 c 1,56,-1
 262 525 l 1,57,-1
 251 543 l 1,58,59
 288 568 288 568 323.5 610 c 128,-1,60
 359 652 359 652 383 694 c 1,50,51
EndSplineSet
EndChar

StartChar: ucircumflex
Encoding: 251 251 188
Width: 542
GlyphClass: 2
Flags: W
LayerCount: 2
Fore
SplineSet
157 179 m 0,0,1
 157 67 157 67 203 67 c 0,2,3
 242 67 242 67 295 116 c 128,-1,4
 348 165 348 165 366 207 c 1,5,6
 366 352 366 352 355 440 c 1,7,8
 328 446 328 446 292 459 c 1,9,-1
 294 478 l 1,10,11
 350 470 350 470 400 470 c 128,-1,12
 450 470 450 470 501 476 c 1,13,-1
 504 457 l 1,14,15
 474 444 474 444 445 437 c 1,16,17
 436 369 436 369 436 280 c 2,18,-1
 436 196 l 2,19,20
 436 104 436 104 443 33 c 1,21,22
 467 25 467 25 497 25 c 1,23,-1
 497 4 l 1,24,25
 433 1 433 1 362 -15 c 1,26,-1
 355 -13 l 1,27,28
 366 56 366 56 366 145 c 1,29,-1
 362 146 l 1,30,31
 328 99 328 99 273.5 49.5 c 128,-1,32
 219 0 219 0 175 -15 c 1,33,34
 114 -15 114 -15 96 40 c 0,35,36
 84 79 84 79 84 136 c 0,37,38
 84 145 84 145 84 156 c 2,39,-1
 89 437 l 1,40,41
 65 445 65 445 35 445 c 1,42,-1
 35 466 l 1,43,44
 99 469 99 469 170 485 c 1,45,-1
 177 481 l 1,46,47
 161 384 161 384 158 201 c 0,48,49
 157 191 157 191 157 179 c 0,0,1
284 612 m 1,50,-1
 150 522 l 1,51,-1
 137 539 l 1,52,53
 221 610 221 610 274 707 c 1,54,-1
 294 707 l 1,55,56
 347 610 347 610 431 539 c 1,57,-1
 418 522 l 1,58,-1
 284 612 l 1,50,-1
EndSplineSet
EndChar

StartChar: udieresis
Encoding: 252 252 189
Width: 542
GlyphClass: 2
Flags: W
LayerCount: 2
Fore
SplineSet
157 179 m 0,0,1
 157 67 157 67 203 67 c 0,2,3
 242 67 242 67 295 116 c 128,-1,4
 348 165 348 165 366 207 c 1,5,6
 366 352 366 352 355 440 c 1,7,8
 328 446 328 446 292 459 c 1,9,-1
 294 478 l 1,10,11
 350 470 350 470 400 470 c 128,-1,12
 450 470 450 470 501 476 c 1,13,-1
 504 457 l 1,14,15
 474 444 474 444 445 437 c 1,16,17
 436 369 436 369 436 280 c 2,18,-1
 436 196 l 2,19,20
 436 104 436 104 443 33 c 1,21,22
 467 25 467 25 497 25 c 1,23,-1
 497 4 l 1,24,25
 433 1 433 1 362 -15 c 1,26,-1
 355 -13 l 1,27,28
 366 56 366 56 366 145 c 1,29,-1
 362 146 l 1,30,31
 328 99 328 99 273.5 49.5 c 128,-1,32
 219 0 219 0 175 -15 c 1,33,34
 114 -15 114 -15 96 40 c 0,35,36
 84 79 84 79 84 136 c 0,37,38
 84 145 84 145 84 156 c 2,39,-1
 89 437 l 1,40,41
 65 445 65 445 35 445 c 1,42,-1
 35 466 l 1,43,44
 99 469 99 469 170 485 c 1,45,-1
 177 481 l 1,46,47
 161 384 161 384 158 201 c 0,48,49
 157 191 157 191 157 179 c 0,0,1
246 620 m 1,50,51
 239 607 239 607 221.5 587 c 128,-1,52
 204 567 204 567 192 559 c 1,53,54
 180 567 180 567 162.5 587 c 128,-1,55
 145 607 145 607 138 620 c 1,56,57
 144 632 144 632 161 647.5 c 128,-1,58
 178 663 178 663 192 670 c 1,59,60
 205 662 205 662 222 646.5 c 128,-1,61
 239 631 239 631 246 620 c 1,50,51
431 620 m 1,62,63
 424 607 424 607 406.5 587 c 128,-1,64
 389 567 389 567 377 559 c 1,65,66
 365 567 365 567 347.5 587 c 128,-1,67
 330 607 330 607 323 620 c 1,68,69
 329 632 329 632 346 647.5 c 128,-1,70
 363 663 363 663 377 670 c 1,71,72
 390 662 390 662 407 646.5 c 128,-1,73
 424 631 424 631 431 620 c 1,62,63
EndSplineSet
EndChar

StartChar: yacute
Encoding: 253 253 190
Width: 542
GlyphClass: 2
Flags: W
LayerCount: 2
Fore
SplineSet
190 481 m 1,0,1
 171 365 171 365 171 185 c 0,2,3
 171 67 171 67 213 67 c 0,4,5
 249 67 249 67 301.5 117.5 c 128,-1,6
 354 168 354 168 369 207 c 1,7,8
 369 352 369 352 358 440 c 1,9,10
 330 446 330 446 295 459 c 1,11,-1
 297 478 l 1,12,13
 353 470 353 470 403 470 c 128,-1,14
 453 470 453 470 504 476 c 1,15,-1
 507 457 l 1,16,17
 477 444 477 444 448 437 c 1,18,19
 439 369 439 369 439 280 c 2,20,-1
 439 196 l 2,21,22
 439 37 439 37 446 -34 c 1,23,24
 427 -89 427 -89 366 -141.5 c 128,-1,25
 305 -194 305 -194 245 -215 c 1,26,27
 153 -215 153 -215 77 -186 c 1,28,-1
 77 -173 l 1,29,30
 114 -129 114 -129 119 -61 c 1,31,-1
 140 -61 l 1,32,33
 140 -100 140 -100 142 -122 c 1,34,35
 198 -153 198 -153 270 -153 c 0,36,37
 310 -153 310 -153 335 -129 c 1,38,39
 358 -68 358 -68 363.5 -18.5 c 128,-1,40
 369 31 369 31 369 145 c 1,41,-1
 365 146 l 1,42,43
 335 101 335 101 282 50.5 c 128,-1,44
 229 0 229 0 187 -15 c 1,45,46
 129 -15 129 -15 112 40 c 0,47,48
 99 79 99 79 99 136 c 0,49,50
 99 145 99 145 99 156 c 2,51,-1
 104 437 l 1,52,53
 80 445 80 445 50 445 c 1,54,-1
 50 466 l 1,55,56
 113 469 113 469 183 485 c 1,57,-1
 190 481 l 1,0,1
389 694 m 1,58,59
 399 695 399 695 410.5 695 c 128,-1,60
 422 695 422 695 432 693 c 1,61,62
 439 685 439 685 447.5 664.5 c 128,-1,63
 456 644 456 644 457 634 c 1,64,-1
 268 525 l 1,65,-1
 257 543 l 1,66,67
 294 568 294 568 329.5 610 c 128,-1,68
 365 652 365 652 389 694 c 1,58,59
EndSplineSet
EndChar

StartChar: thorn
Encoding: 254 254 191
Width: 522
GlyphClass: 2
Flags: W
LayerCount: 2
Fore
SplineSet
472 294 m 0,0,1
 472 190 472 190 416 103.5 c 128,-1,2
 360 17 360 17 266 -15 c 1,3,4
 212 -15 212 -15 168 -5 c 1,5,6
 168 -114 168 -114 175 -166 c 1,7,8
 220 -177 220 -177 254 -192 c 1,9,-1
 251 -212 l 1,10,11
 189 -200 189 -200 145.5 -200 c 128,-1,12
 102 -200 102 -200 45 -205 c 1,13,-1
 41 -185 l 1,14,15
 71 -178 71 -178 92 -167 c 1,16,17
 100 -95 100 -95 102 144 c 2,18,-1
 104 417 l 2,19,20
 104 448 104 448 104 524 c 128,-1,21
 104 600 104 600 97 661 c 1,22,23
 73 669 73 669 43 669 c 1,24,-1
 43 690 l 1,25,26
 103 693 103 693 184 711 c 1,27,-1
 191 707 l 1,28,29
 172 588 172 588 172 417 c 2,30,-1
 172 322 l 1,31,-1
 176 322 l 1,32,33
 211 372 211 372 260 420 c 128,-1,34
 309 468 309 468 352 485 c 1,35,36
 407 485 407 485 439.5 424 c 128,-1,37
 472 363 472 363 472 294 c 0,0,1
392 249 m 0,38,39
 392 298 392 298 374.5 350.5 c 128,-1,40
 357 403 357 403 324 403 c 0,41,42
 289 403 289 403 239 353 c 128,-1,43
 189 303 189 303 174 263 c 1,44,45
 174 114 174 114 181 71 c 1,46,47
 234 47 234 47 283.5 47 c 128,-1,48
 333 47 333 47 359 71 c 1,49,50
 392 147 392 147 392 249 c 0,38,39
EndSplineSet
EndChar

StartChar: ydieresis
Encoding: 255 255 192
Width: 542
GlyphClass: 2
Flags: W
LayerCount: 2
Fore
SplineSet
190 481 m 1,0,1
 171 365 171 365 171 185 c 0,2,3
 171 67 171 67 213 67 c 0,4,5
 249 67 249 67 301.5 117.5 c 128,-1,6
 354 168 354 168 369 207 c 1,7,8
 369 352 369 352 358 440 c 1,9,10
 330 446 330 446 295 459 c 1,11,-1
 297 478 l 1,12,13
 353 470 353 470 403 470 c 128,-1,14
 453 470 453 470 504 476 c 1,15,-1
 507 457 l 1,16,17
 477 444 477 444 448 437 c 1,18,19
 439 369 439 369 439 280 c 2,20,-1
 439 196 l 2,21,22
 439 37 439 37 446 -34 c 1,23,24
 427 -89 427 -89 366 -141.5 c 128,-1,25
 305 -194 305 -194 245 -215 c 1,26,27
 153 -215 153 -215 77 -186 c 1,28,-1
 77 -173 l 1,29,30
 114 -129 114 -129 119 -61 c 1,31,-1
 140 -61 l 1,32,33
 140 -100 140 -100 142 -122 c 1,34,35
 198 -153 198 -153 270 -153 c 0,36,37
 310 -153 310 -153 335 -129 c 1,38,39
 358 -68 358 -68 363.5 -18.5 c 128,-1,40
 369 31 369 31 369 145 c 1,41,-1
 365 146 l 1,42,43
 335 101 335 101 282 50.5 c 128,-1,44
 229 0 229 0 187 -15 c 1,45,46
 129 -15 129 -15 112 40 c 0,47,48
 99 79 99 79 99 136 c 0,49,50
 99 145 99 145 99 156 c 2,51,-1
 104 437 l 1,52,53
 80 445 80 445 50 445 c 1,54,-1
 50 466 l 1,55,56
 113 469 113 469 183 485 c 1,57,-1
 190 481 l 1,0,1
248 620 m 1,58,59
 241 607 241 607 223.5 587 c 128,-1,60
 206 567 206 567 194 559 c 1,61,62
 182 567 182 567 164.5 587 c 128,-1,63
 147 607 147 607 140 620 c 1,64,65
 146 632 146 632 163 647.5 c 128,-1,66
 180 663 180 663 194 670 c 1,67,68
 207 662 207 662 224 646.5 c 128,-1,69
 241 631 241 631 248 620 c 1,58,59
433 620 m 1,70,71
 426 607 426 607 408.5 587 c 128,-1,72
 391 567 391 567 379 559 c 1,73,74
 367 567 367 567 349.5 587 c 128,-1,75
 332 607 332 607 325 620 c 1,76,77
 331 632 331 632 348 647.5 c 128,-1,78
 365 663 365 663 379 670 c 1,79,80
 392 662 392 662 409 646.5 c 128,-1,81
 426 631 426 631 433 620 c 1,70,71
EndSplineSet
EndChar

StartChar: Amacron
Encoding: 256 256 193
Width: 599
GlyphClass: 2
Flags: W
LayerCount: 2
Fore
SplineSet
265 826 m 2,0,1
 314 823 314 823 373 823 c 128,-1,2
 432 823 432 823 477 827 c 1,3,-1
 485 822 l 1,4,-1
 476 776 l 1,5,-1
 220 773 l 1,6,-1
 211 779 l 1,7,-1
 220 829 l 1,8,-1
 265 826 l 2,0,1
98 662 m 1,9,10
 212 651 212 651 336 651 c 128,-1,11
 460 651 460 651 574 662 c 1,12,-1
 578 637 l 1,13,14
 533 623 533 623 482 616 c 1,15,16
 469 520 469 520 469 325.5 c 128,-1,17
 469 131 469 131 482 35 c 1,18,19
 535 30 535 30 592 16 c 1,20,-1
 589 -8 l 1,21,22
 515 0 515 0 428.5 0 c 128,-1,23
 342 0 342 0 289 -8 c 1,24,-1
 285 17 l 1,25,26
 330 31 330 31 381 38 c 1,27,28
 389 104 389 104 392 251 c 1,29,30
 340 257 340 257 277.5 257 c 128,-1,31
 215 257 215 257 172 251 c 1,32,33
 148 153 148 153 148 94 c 128,-1,34
 148 35 148 35 191 10 c 1,35,-1
 187 -4 l 1,36,37
 156 0 156 0 82.5 0 c 128,-1,38
 9 0 9 0 -50 -8 c 1,39,-1
 -54 17 l 1,40,41
 -9 31 -9 31 42 38 c 1,42,-1
 206 619 l 1,43,44
 150 625 150 625 95 638 c 1,45,-1
 98 662 l 1,9,10
183 301 m 1,46,47
 228 294 228 294 289.5 294 c 128,-1,48
 351 294 351 294 392 301 c 1,49,50
 392 543 392 543 382 611 c 1,51,52
 351 614 351 614 320.5 614 c 128,-1,53
 290 614 290 614 258 611 c 1,54,-1
 183 301 l 1,46,47
EndSplineSet
EndChar

StartChar: amacron
Encoding: 257 257 194
Width: 514
GlyphClass: 2
Flags: W
LayerCount: 2
Fore
SplineSet
50 176 m 0,0,1
 50 280 50 280 106 366.5 c 128,-1,2
 162 453 162 453 256 485 c 1,3,4
 323 485 323 485 396 464 c 1,5,6
 410 485 410 485 419 517 c 1,7,-1
 440 511 l 1,8,9
 418 421 418 421 418 193 c 0,10,11
 418 91 418 91 425 33 c 1,12,13
 449 25 449 25 479 25 c 1,14,-1
 479 4 l 1,15,16
 415 1 415 1 344 -15 c 1,17,-1
 337 -11 l 1,18,19
 348 58 348 58 348 145 c 1,20,-1
 344 146 l 1,21,22
 309 96 309 96 261 49 c 128,-1,23
 213 2 213 2 170 -15 c 1,24,25
 115 -15 115 -15 82.5 46 c 128,-1,26
 50 107 50 107 50 176 c 0,0,1
130 221 m 0,27,28
 130 172 130 172 147.5 119.5 c 128,-1,29
 165 67 165 67 198 67 c 0,30,31
 233 67 233 67 283 117 c 128,-1,32
 333 167 333 167 348 207 c 1,33,34
 348 356 348 356 341 399 c 1,35,36
 288 423 288 423 238.5 423 c 128,-1,37
 189 423 189 423 163 399 c 1,38,39
 130 323 130 323 130 221 c 0,27,28
193 638 m 2,40,41
 243 635 243 635 301.5 635 c 128,-1,42
 360 635 360 635 405 639 c 1,43,-1
 413 634 l 1,44,-1
 404 588 l 1,45,-1
 148 585 l 1,46,-1
 139 591 l 1,47,-1
 148 641 l 1,48,-1
 193 638 l 2,40,41
EndSplineSet
EndChar

StartChar: Abreve
Encoding: 258 258 195
Width: 599
GlyphClass: 2
Flags: W
LayerCount: 2
Fore
SplineSet
381 785 m 0,0,1
 451 785 451 785 488 854 c 1,2,-1
 506 843 l 1,3,4
 485 800 485 800 448 767 c 128,-1,5
 411 734 411 734 367 719 c 1,6,7
 318 719 318 719 264 752 c 128,-1,8
 210 785 210 785 191 829 c 1,9,-1
 192 838 l 1,10,11
 235 840 235 840 263 854 c 1,12,-1
 267 854 l 1,13,14
 281 821 281 821 312 803 c 128,-1,15
 343 785 343 785 381 785 c 0,0,1
98 662 m 1,16,17
 212 651 212 651 336 651 c 128,-1,18
 460 651 460 651 574 662 c 1,19,-1
 578 637 l 1,20,21
 533 623 533 623 482 616 c 1,22,23
 469 520 469 520 469 325.5 c 128,-1,24
 469 131 469 131 482 35 c 1,25,26
 535 30 535 30 592 16 c 1,27,-1
 589 -8 l 1,28,29
 515 0 515 0 428.5 0 c 128,-1,30
 342 0 342 0 289 -8 c 1,31,-1
 285 17 l 1,32,33
 330 31 330 31 381 38 c 1,34,35
 389 104 389 104 392 251 c 1,36,37
 340 257 340 257 277.5 257 c 128,-1,38
 215 257 215 257 172 251 c 1,39,40
 148 153 148 153 148 94 c 128,-1,41
 148 35 148 35 191 10 c 1,42,-1
 187 -4 l 1,43,44
 156 0 156 0 82.5 0 c 128,-1,45
 9 0 9 0 -50 -8 c 1,46,-1
 -54 17 l 1,47,48
 -9 31 -9 31 42 38 c 1,49,-1
 206 619 l 1,50,51
 150 625 150 625 95 638 c 1,52,-1
 98 662 l 1,16,17
183 301 m 1,53,54
 228 294 228 294 289.5 294 c 128,-1,55
 351 294 351 294 392 301 c 1,56,57
 392 543 392 543 382 611 c 1,58,59
 351 614 351 614 320.5 614 c 128,-1,60
 290 614 290 614 258 611 c 1,61,-1
 183 301 l 1,53,54
EndSplineSet
EndChar

StartChar: abreve
Encoding: 259 259 196
Width: 514
GlyphClass: 2
Flags: W
LayerCount: 2
Fore
SplineSet
50 176 m 0,0,1
 50 280 50 280 106 366.5 c 128,-1,2
 162 453 162 453 256 485 c 1,3,4
 323 485 323 485 396 464 c 1,5,6
 410 485 410 485 419 517 c 1,7,-1
 440 511 l 1,8,9
 418 421 418 421 418 193 c 0,10,11
 418 91 418 91 425 33 c 1,12,13
 449 25 449 25 479 25 c 1,14,-1
 479 4 l 1,15,16
 415 1 415 1 344 -15 c 1,17,-1
 337 -11 l 1,18,19
 348 58 348 58 348 145 c 1,20,-1
 344 146 l 1,21,22
 309 96 309 96 261 49 c 128,-1,23
 213 2 213 2 170 -15 c 1,24,25
 115 -15 115 -15 82.5 46 c 128,-1,26
 50 107 50 107 50 176 c 0,0,1
130 221 m 0,27,28
 130 172 130 172 147.5 119.5 c 128,-1,29
 165 67 165 67 198 67 c 0,30,31
 233 67 233 67 283 117 c 128,-1,32
 333 167 333 167 348 207 c 1,33,34
 348 356 348 356 341 399 c 1,35,36
 288 423 288 423 238.5 423 c 128,-1,37
 189 423 189 423 163 399 c 1,38,39
 130 323 130 323 130 221 c 0,27,28
310 614 m 0,40,41
 380 614 380 614 417 683 c 1,42,-1
 435 672 l 1,43,44
 414 629 414 629 377 596 c 128,-1,45
 340 563 340 563 296 548 c 1,46,47
 247 548 247 548 193 581 c 128,-1,48
 139 614 139 614 120 658 c 1,49,-1
 121 667 l 1,50,51
 164 669 164 669 192 683 c 1,52,-1
 196 683 l 1,53,54
 210 650 210 650 241 632 c 128,-1,55
 272 614 272 614 310 614 c 0,40,41
EndSplineSet
EndChar

StartChar: Aogonek
Encoding: 260 260 197
Width: 599
GlyphClass: 2
Flags: W
LayerCount: 2
Fore
SplineSet
98 662 m 1,0,1
 212 651 212 651 336 651 c 128,-1,2
 460 651 460 651 574 662 c 1,3,-1
 578 637 l 1,4,5
 533 623 533 623 482 616 c 1,6,7
 469 520 469 520 469 325.5 c 128,-1,8
 469 131 469 131 482 35 c 1,9,10
 535 30 535 30 592 16 c 1,11,-1
 589 -8 l 1,12,13
 515 0 515 0 433 0 c 0,14,15
 384 0 384 0 344 -29 c 128,-1,16
 304 -58 304 -58 304 -102 c 0,17,18
 304 -164 304 -164 370 -164 c 0,19,20
 392 -164 392 -164 407 -160 c 1,21,-1
 407 -169 l 1,22,23
 376 -190 376 -190 358 -215 c 1,24,25
 298 -215 298 -215 268 -192 c 128,-1,26
 238 -169 238 -169 238 -113 c 1,27,28
 255 -69 255 -69 333 -3 c 2,29,-1
 381 38 l 1,30,31
 389 104 389 104 392 251 c 1,32,33
 340 257 340 257 277.5 257 c 128,-1,34
 215 257 215 257 172 251 c 1,35,36
 148 153 148 153 148 94 c 128,-1,37
 148 35 148 35 191 10 c 1,38,-1
 187 -4 l 1,39,40
 156 0 156 0 82.5 0 c 128,-1,41
 9 0 9 0 -50 -8 c 1,42,-1
 -54 17 l 1,43,44
 -9 31 -9 31 42 38 c 1,45,-1
 206 619 l 1,46,47
 150 625 150 625 95 638 c 1,48,-1
 98 662 l 1,0,1
183 301 m 1,49,50
 228 294 228 294 289.5 294 c 128,-1,51
 351 294 351 294 392 301 c 1,52,53
 392 543 392 543 382 611 c 1,54,55
 351 614 351 614 320.5 614 c 128,-1,56
 290 614 290 614 258 611 c 1,57,-1
 183 301 l 1,49,50
EndSplineSet
EndChar

